# This file uses centimeters as units for non-parametric coordinates.

v 0.500000 -0.500000 -2.000000
v -0.500000 -0.500000 -2.000000
v -0.500000 -0.500000 0.000000
v -0.500000 -0.500000 1.000000
v -0.500000 -0.500000 3.000000
v -1.500000 -0.500000 3.000000
v -1.500000 -0.500000 -2.000000
v -0.500000 -0.500000 -3.000000
v 0.500000 -0.500000 -3.000000
v 1.500000 -0.500000 -2.000000
v 0.500000 -0.500000 0.000000
v 0.500000 -0.500000 1.000000
v 1.500000 -0.500000 3.000000
v 0.500000 0.500000 -3.000000
v -0.500000 0.500000 -3.000000
v 0.500000 0.500000 -2.000000
v -0.500000 0.500000 -2.000000
v -0.500000 0.500000 0.000000
v 1.500000 0.500000 -2.000000
v -1.500000 0.500000 3.000000
v -1.500000 0.500000 -2.000000
v 0.500000 0.500000 0.000000
v -0.500000 0.500000 1.000000
v 0.500000 0.500000 1.000000
v -0.500000 0.500000 3.000000
v 1.500000 0.500000 3.000000
v 0.500000 0.500000 3.000000
v 0.500000 -0.500000 3.000000
vt 0.234081 0.960812
vt 0.237461 0.960812
vt 0.237461 0.960812
vt 0.237461 0.960812
vt 0.237461 0.964193
vt 0.234081 0.960812
vt 0.234081 0.960812
vt 0.237461 0.964193
vt 0.234081 0.960812
vt 0.237461 0.964193
vt 0.234081 0.960812
vt 0.237461 0.960812
vt 0.237461 0.964193
vt 0.234081 0.960812
vt 0.234081 0.960812
vt 0.237461 0.960812
vt 0.237461 0.960812
vt 0.234081 0.960812
vt 0.237461 0.960812
vt 0.089545 0.968224
vt 0.092926 0.971605
vt 0.237461 0.964193
vt 0.092926 0.968224
vt 0.092926 0.968224
vt 0.092926 0.971605
vt 0.092926 0.971605
vt 0.089545 0.968224
vt 0.092926 0.971605
vt 0.092926 0.968224
vt 0.089545 0.968224
vt 0.237461 0.960812
vt 0.092926 0.968224
vt 0.089545 0.968224
vt 0.234081 0.960812
vt 0.089545 0.968224
vt 0.089545 0.968224
vt 0.089545 0.968224
vt 0.237461 0.964193
vt 0.234081 0.960812
vt 0.089545 0.968224
vt 0.092926 0.971605
vt 0.234081 0.960812
vt 0.237461 0.964193
vt 0.092926 0.968224
vt 0.089545 0.968224
vt 0.234081 0.960812
vt 0.237461 0.960812
vt 0.237461 0.964193
vt 0.237461 0.960812
vt 0.237461 0.964193
vt 0.234081 0.960812
vt 0.237461 0.960812
vt 0.237461 0.964193
vt 0.237461 0.964193
vt 0.234081 0.960812
vt 0.237461 0.960812
vt 0.237461 0.964193
vt 0.234081 0.960812
vt 0.237461 0.960812
vt 0.234081 0.960812
vt 0.237461 0.960812
vt 0.237461 0.964193
vt 0.237461 0.960812
vt 0.234081 0.960812
vt 0.237461 0.964193
vt 0.237461 0.960812
vt 0.237461 0.964193
vt 0.234081 0.960812
vt 0.237461 0.964193
vt 0.237461 0.960812
vt 0.237461 0.964193
vt 0.234081 0.960812
vt 0.237461 0.960812
vt 0.237461 0.964193
vt 0.237461 0.964193
vt 0.089545 0.968224
vt 0.092926 0.968224
vt 0.092926 0.971605
vt 0.089545 0.968224
vt 0.092926 0.968224
vt 0.092926 0.971605
vt 0.089545 0.968224
vt 0.092926 0.968224
vt 0.092926 0.971605
vt 0.089545 0.968224
vt 0.092926 0.968224
vt 0.092926 0.971605
vt 0.092926 0.968224
vt 0.092926 0.971605
vt 0.089545 0.968224
vt 0.092926 0.968224
vt 0.092926 0.971605
vt 0.092926 0.968224
vt 0.092926 0.971605
vt 0.092926 0.968224
vt 0.092926 0.971605
vt 0.092926 0.968224
vt 0.092926 0.971605
vt 0.089545 0.968224
vt 0.092926 0.968224
vt 0.092926 0.971605
vt 0.089545 0.968224
vt 0.089545 0.968224
vt 0.092926 0.968224
vt 0.092926 0.971605
vt 0.089545 0.968224
vt 0.092926 0.968224
vt 0.092926 0.971605
vt 0.089545 0.968224
vt 0.092926 0.968224
vt 0.092926 0.971605
vt 0.089545 0.968224
vt 0.092926 0.968224
vt 0.092926 0.971605
vt 0.092926 0.968224
vt 0.092926 0.971605
vt 0.092926 0.968224
vt 0.092926 0.971605
vt 0.089545 0.968224
vt 0.092926 0.971605
vt 0.089545 0.968224
vt 0.092926 0.968224
vt 0.092926 0.971605
vt 0.089545 0.968224
vt 0.092926 0.971605
vt 0.089545 0.968224
vt 0.092926 0.968224
vt 0.092926 0.971605
vt 0.089545 0.968224
vt 0.092926 0.968224
vt 0.089545 0.968224
vt 0.092926 0.968224
vt 0.092926 0.971605
vt 0.089545 0.968224
vt 0.092926 0.968224
vt 0.092926 0.971605
vt 0.234081 0.960812
vt 0.237461 0.960812
vt 0.237461 0.964193
vt 0.234081 0.960812
vt 0.237461 0.960812
vt 0.237461 0.964193
vt 0.234081 0.960812
vt 0.237461 0.960812
vt 0.237461 0.964193
vt 0.089545 0.968224
vt 0.092926 0.968224
vt 0.092926 0.971605
vt 0.092926 0.968224
vt 0.234081 0.960812
vt 0.237461 0.960812
vt 0.237461 0.964193
vt 0.234081 0.960812
vt 0.237461 0.960812
vt 0.237461 0.964193
vt 0.234081 0.960812
vt 0.234081 0.960812
vt 0.237461 0.960812
vt 0.237461 0.964193
vt 0.234081 0.960812
vt 0.237461 0.960812
vt 0.237461 0.964193
vt 0.234081 0.960812
vt 0.237461 0.960812
vt 0.237461 0.960812
vt 0.237461 0.964193
vt 0.237461 0.960812
vt 0.237461 0.964193
vn 0.000000 -1.000000 0.000000
vn 0.000000 -1.000000 0.000000
vn 0.000000 -1.000000 0.000000
vn 0.000000 -1.000000 0.000000
vn 0.000000 -1.000000 0.000000
vn 0.000000 -1.000000 0.000000
vn 0.000000 -1.000000 0.000000
vn 0.000000 -1.000000 0.000000
vn 0.000000 -1.000000 0.000000
vn 0.000000 -1.000000 0.000000
vn 0.000000 -1.000000 0.000000
vn 0.000000 -1.000000 0.000000
vn 0.000000 -1.000000 0.000000
vn 0.000000 -1.000000 0.000000
vn 0.000000 -1.000000 0.000000
vn 0.000000 -1.000000 0.000000
vn 0.000000 -1.000000 0.000000
vn 0.000000 -1.000000 0.000000
vn 0.000000 -1.000000 0.000000
vn 0.000000 -1.000000 0.000000
vn 0.000000 -1.000000 0.000000
vn 0.000000 -1.000000 0.000000
vn 0.000000 -1.000000 0.000000
vn 0.000000 -1.000000 0.000000
vn 0.000000 -1.000000 0.000000
vn 0.000000 -1.000000 0.000000
vn 0.000000 -1.000000 0.000000
vn 0.000000 -1.000000 0.000000
vn 0.000000 0.000000 -1.000000
vn 0.000000 0.000000 -1.000000
vn 0.000000 0.000000 -1.000000
vn 0.000000 0.000000 -1.000000
vn 0.000000 0.000000 1.000000
vn 0.000000 0.000000 1.000000
vn 0.000000 0.000000 1.000000
vn 0.000000 0.000000 1.000000
vn 1.000000 0.000000 0.000000
vn 1.000000 0.000000 0.000000
vn 1.000000 0.000000 0.000000
vn 1.000000 0.000000 0.000000
vn 0.707107 0.000000 -0.707107
vn 0.707107 0.000000 -0.707107
vn 0.707107 0.000000 -0.707107
vn 0.707107 0.000000 -0.707107
vn -1.000000 0.000000 0.000000
vn -1.000000 0.000000 0.000000
vn -1.000000 0.000000 0.000000
vn -1.000000 0.000000 0.000000
vn -1.000000 0.000000 0.000000
vn -1.000000 0.000000 0.000000
vn -1.000000 0.000000 0.000000
vn -1.000000 0.000000 0.000000
vn 0.000000 0.000000 -1.000000
vn 0.000000 0.000000 -1.000000
vn 0.000000 0.000000 -1.000000
vn 0.000000 0.000000 -1.000000
vn 0.000000 0.000000 1.000000
vn 0.000000 0.000000 1.000000
vn 0.000000 0.000000 1.000000
vn 0.000000 0.000000 1.000000
vn 1.000000 0.000000 0.000000
vn 1.000000 0.000000 0.000000
vn 1.000000 0.000000 0.000000
vn 1.000000 0.000000 0.000000
vn 0.000000 0.000000 1.000000
vn 0.000000 0.000000 1.000000
vn 0.000000 0.000000 1.000000
vn 0.000000 0.000000 1.000000
vn 1.000000 0.000000 0.000000
vn 1.000000 0.000000 0.000000
vn 1.000000 0.000000 0.000000
vn 1.000000 0.000000 0.000000
vn -1.000000 0.000000 0.000000
vn -1.000000 0.000000 0.000000
vn -1.000000 0.000000 0.000000
vn -1.000000 0.000000 0.000000
vn 0.000000 0.000000 1.000000
vn 0.000000 0.000000 1.000000
vn 0.000000 0.000000 1.000000
vn 0.000000 0.000000 1.000000
vn 0.000000 1.000000 0.000000
vn 0.000000 1.000000 0.000000
vn 0.000000 1.000000 0.000000
vn 0.000000 1.000000 0.000000
vn 0.000000 1.000000 0.000000
vn 0.000000 1.000000 0.000000
vn 0.000000 1.000000 0.000000
vn -0.707107 0.000000 -0.707107
vn -0.707107 0.000000 -0.707107
vn -0.707107 0.000000 -0.707107
vn -0.707107 0.000000 -0.707107
vn 0.000000 1.000000 0.000000
vn 0.000000 1.000000 0.000000
vn 0.000000 1.000000 0.000000
vn 0.000000 1.000000 0.000000
vn 0.000000 1.000000 0.000000
vn 0.000000 1.000000 0.000000
vn 0.000000 1.000000 0.000000
vn 0.000000 1.000000 0.000000
vn 0.000000 1.000000 0.000000
vn 0.000000 1.000000 0.000000
vn 0.000000 1.000000 0.000000
vn 0.000000 1.000000 0.000000
vn 0.000000 1.000000 0.000000
vn 0.000000 1.000000 0.000000
vn 0.000000 1.000000 0.000000
vn 0.000000 1.000000 0.000000
vn 0.000000 1.000000 0.000000
vn 0.000000 1.000000 0.000000
vn 0.000000 1.000000 0.000000
vn 0.000000 1.000000 0.000000
vn 0.000000 1.000000 0.000000
vn 0.000000 1.000000 0.000000
vn 0.000000 1.000000 0.000000
vn 0.000000 1.000000 0.000000
vn 0.000000 1.000000 0.000000
vn 0.000000 1.000000 0.000000
vn 0.000000 1.000000 0.000000
vn 0.000000 -1.000000 0.000000
vn 0.000000 -1.000000 0.000000
vn 0.000000 -1.000000 0.000000
vn 0.000000 -1.000000 0.000000
vn 0.000000 -1.000000 0.000000
vn 0.000000 -1.000000 0.000000
g a
f 8/55/1 2/56/2 7/57/3
f 1/58/4 9/59/5 10/10/6
f 1/60/7 2/61/8 9/62/9
f 9/9/9 2/63/8 8/8/10
f 7/64/11 2/2/12 3/65/13
f 7/7/14 3/66/15 6/67/16
f 6/68/16 3/3/15 4/69/17
f 6/6/18 4/4/19 5/5/20
f 11/11/21 12/70/22 3/71/23
f 3/14/23 12/12/22 4/13/24
f 12/72/25 11/73/26 13/74/27
f 13/18/27 11/16/26 10/75/28
f 14/76/29 9/77/30 15/78/31
f 15/79/31 9/80/30 8/81/32
f 16/82/33 17/83/34 1/84/35
f 1/85/35 17/24/34 2/25/36
f 17/27/37 18/86/38 2/87/39
f 2/30/39 18/88/38 3/89/40
f 14/90/41 19/91/42 9/92/43
f 9/20/43 19/93/42 10/94/44
f 20/33/45 21/95/46 6/96/47
f 6/36/47 21/97/46 7/98/48
f 22/99/49 16/100/50 11/101/51
f 11/102/51 16/23/50 1/26/52
f 11/103/53 3/104/54 22/105/55
f 22/37/55 3/29/54 18/28/56
f 23/106/57 4/107/58 24/108/59
f 24/109/59 4/110/58 12/111/60
f 23/112/61 25/113/62 4/114/63
f 4/40/63 25/115/62 5/116/64
f 6/45/65 5/117/66 20/118/67
f 20/119/67 5/44/66 25/120/68
f 13/121/69 10/122/70 26/123/71
f 26/124/71 10/32/70 19/125/72
f 27/126/73 24/127/74 28/128/75
f 28/129/75 24/130/74 12/41/76
f 26/131/77 27/132/78 13/133/79
f 13/134/79 27/135/78 28/136/80
f 24/137/81 22/138/82 23/139/83
f 23/140/83 22/141/82 18/142/84
f 17/143/85 15/144/86 21/145/87
f 21/146/88 15/147/89 7/148/90
f 7/35/90 15/149/89 8/21/91
f 16/150/92 19/151/93 14/152/94
f 16/153/95 14/154/96 17/155/97
f 17/156/97 14/19/96 15/22/98
f 24/157/99 26/158/100 22/159/101
f 22/160/101 26/161/100 19/162/102
f 23/163/103 20/164/104 25/43/105
f 22/51/106 19/31/107 16/54/108
f 24/42/109 27/49/110 26/48/111
f 23/39/112 18/165/113 20/166/114
f 20/46/114 18/167/113 21/168/115
f 21/34/116 18/52/117 17/53/118
f 1/1/119 10/17/120 11/38/121
f 12/15/122 13/47/123 28/50/124
