# This file uses centimeters as units for non-parametric coordinates.

v 0.000000 0.941372 0.008994
v 0.357911 0.941372 0.008994
v 0.000000 0.962252 0.008994
v 0.357911 0.962252 0.008994
v 0.000000 0.962252 -0.008994
v 0.357911 0.962252 -0.008994
v 0.000000 0.941372 -0.008994
v 0.357911 0.941372 -0.008994
v 0.000000 -0.275744 0.008994
v 0.357911 -0.275744 0.008994
v 0.000000 -0.254864 0.008994
v 0.357911 -0.254864 0.008994
v 0.000000 -0.254864 -0.008994
v 0.357911 -0.254864 -0.008994
v 0.000000 -0.275744 -0.008994
v 0.357911 -0.275744 -0.008994
v 0.281854 -1.000000 0.015843
v 0.639765 -1.000000 0.015843
v 0.281854 1.000000 0.015843
v 0.639765 1.000000 0.015843
v 0.281854 1.000000 -0.015843
v 0.639765 1.000000 -0.015843
v 0.281854 -1.000000 -0.015843
v 0.639765 -1.000000 -0.015843
vt 0.865283 0.012502
vt 0.922847 0.012502
vt 0.922847 0.070066
vt 0.865283 0.070066
vt 0.865283 0.012502
vt 0.922847 0.012502
vt 0.922847 0.070066
vt 0.865283 0.070066
vt 0.865283 0.012502
vt 0.922847 0.012502
vt 0.922847 0.070066
vt 0.865283 0.070066
vt 0.865283 0.012502
vt 0.922847 0.012502
vt 0.922847 0.070066
vt 0.865283 0.070066
vt 0.006692 0.009034
vt 0.121373 0.009034
vt 0.121373 0.644911
vt 0.006692 0.644911
vt 0.935067 0.009543
vt 0.994086 0.009543
vt 0.994086 0.068563
vt 0.935067 0.068563
vt 0.935067 0.009543
vt 0.994086 0.009543
vt 0.994086 0.068563
vt 0.935067 0.068563
vt 0.935067 0.009543
vt 0.994086 0.009543
vt 0.994086 0.068563
vt 0.935067 0.068563
vt 0.935067 0.009543
vt 0.994086 0.009543
vt 0.994086 0.068563
vt 0.935067 0.068563
vt 0.935067 0.009543
vt 0.994086 0.009543
vt 0.994086 0.068563
vt 0.935067 0.068563
vt 0.935067 0.009543
vt 0.994086 0.009543
vt 0.994086 0.068563
vt 0.935067 0.068563
vt 0.935067 0.009543
vt 0.994086 0.009543
vt 0.994086 0.068563
vt 0.935067 0.068563
vt 0.935067 0.009543
vt 0.994086 0.009543
vt 0.994086 0.068563
vt 0.935067 0.068563
vt 0.121128 0.644955
vt 0.006447 0.644867
vt 0.121618 0.009078
vt 0.006937 0.008990
vn 0.000000 0.000000 1.000000
vn 0.000000 0.000000 1.000000
vn 0.000000 0.000000 1.000000
vn 0.000000 0.000000 1.000000
vn 0.000000 1.000000 0.000000
vn 0.000000 1.000000 0.000000
vn 0.000000 1.000000 0.000000
vn 0.000000 1.000000 0.000000
vn 0.000000 0.000000 -1.000000
vn 0.000000 0.000000 -1.000000
vn 0.000000 0.000000 -1.000000
vn 0.000000 0.000000 -1.000000
vn 0.000000 -1.000000 0.000000
vn 0.000000 -1.000000 0.000000
vn 0.000000 -1.000000 0.000000
vn 0.000000 -1.000000 0.000000
vn 0.000000 0.000000 1.000000
vn 0.000000 0.000000 1.000000
vn 0.000000 0.000000 1.000000
vn 0.000000 0.000000 1.000000
vn 0.000000 1.000000 0.000000
vn 0.000000 1.000000 0.000000
vn 0.000000 1.000000 0.000000
vn 0.000000 1.000000 0.000000
vn 0.000000 0.000000 -1.000000
vn 0.000000 0.000000 -1.000000
vn 0.000000 0.000000 -1.000000
vn 0.000000 0.000000 -1.000000
vn 0.000000 -1.000000 0.000000
vn 0.000000 -1.000000 0.000000
vn 0.000000 -1.000000 0.000000
vn 0.000000 -1.000000 0.000000
vn 0.000000 0.000000 1.000000
vn 0.000000 0.000000 1.000000
vn 0.000000 0.000000 1.000000
vn 0.000000 0.000000 1.000000
vn 0.000000 1.000000 0.000000
vn 0.000000 1.000000 0.000000
vn 0.000000 1.000000 0.000000
vn 0.000000 1.000000 0.000000
vn 0.000000 0.000000 -1.000000
vn 0.000000 0.000000 -1.000000
vn 0.000000 0.000000 -1.000000
vn 0.000000 0.000000 -1.000000
vn 0.000000 -1.000000 0.000000
vn 0.000000 -1.000000 0.000000
vn 0.000000 -1.000000 0.000000
vn 0.000000 -1.000000 0.000000
vn 1.000000 0.000000 0.000000
vn 1.000000 0.000000 0.000000
vn 1.000000 0.000000 0.000000
vn 1.000000 0.000000 0.000000
vn -1.000000 0.000000 0.000000
vn -1.000000 0.000000 0.000000
vn -1.000000 0.000000 0.000000
vn -1.000000 0.000000 0.000000
g billboard02
f 1/37/1 2/38/2 3/40/3
f 3/40/3 2/38/2 4/39/4
f 3/21/5 4/22/6 5/24/7
f 5/24/7 4/22/6 6/23/8
f 5/41/9 6/42/10 7/44/11
f 7/44/11 6/42/10 8/43/12
f 7/25/13 8/26/14 1/28/15
f 1/28/15 8/26/14 2/27/16
f 9/45/17 10/46/18 11/48/19
f 11/48/19 10/46/18 12/47/20
f 11/29/21 12/30/22 13/32/23
f 13/32/23 12/30/22 14/31/24
f 13/49/25 14/50/26 15/52/27
f 15/52/27 14/50/26 16/51/28
f 15/33/29 16/34/30 9/36/31
f 9/36/31 16/34/30 10/35/32
f 17/17/33 18/18/34 19/20/35
f 19/20/35 18/18/34 20/19/36
f 19/9/37 20/10/38 21/12/39
f 21/12/39 20/10/38 22/11/40
f 21/53/41 22/54/42 23/55/43
f 23/55/43 22/54/42 24/56/44
f 23/13/45 24/14/46 17/16/47
f 17/16/47 24/14/46 18/15/48
f 18/1/49 24/2/50 20/4/51
f 20/4/51 24/2/50 22/3/52
f 23/5/53 17/6/54 21/8/55
f 21/8/55 17/6/54 19/7/56
