# This file uses centimeters as units for non-parametric coordinates.

v -1.500000 -0.500000 -0.500000
v 1.500000 -0.500000 0.500000
v 1.500000 0.500000 0.500000
v -1.500000 -0.500000 0.500000
v -1.500000 0.500000 0.500000
v 1.500000 -0.500000 -0.500000
v 1.500000 0.500000 -0.500000
v -1.500000 0.500000 -0.500000
vt 0.103860 0.980250
vt 0.217839 0.982886
vt 0.197896 0.962943
vt 0.217838 0.982884
vt 0.197896 0.962942
vt 0.217839 0.962943
vt 0.197896 0.962943
vt 0.197900 0.943014
vt 0.217840 0.962945
vt 0.083935 0.940394
vt 0.083941 0.960331
vt 0.103868 0.960331
vt 0.083933 0.960331
vt 0.103869 0.980266
vt 0.103866 0.980264
vt 0.103868 0.980266
vt 0.083925 0.960323
vt 0.083925 0.960323
vt 0.103868 0.960323
vt 0.103868 0.980266
vt 0.083925 0.960323
vt 0.083925 0.960323
vt 0.103868 0.960323
vt 0.103866 0.960321
vt 0.103860 0.960323
vt 0.103860 0.980258
vt 0.123797 0.980262
vt 0.103868 0.980266
vt 0.103868 0.960323
vt 0.103868 0.980266
vt 0.103868 0.960323
vt 0.083927 0.960323
vt 0.217839 0.962943
vt 0.237768 0.982876
vt 0.197898 0.962945
vt 0.217839 0.982886
vn -1.000000 0.000000 0.000000
vn -1.000000 0.000000 0.000000
vn -1.000000 0.000000 0.000000
vn -1.000000 0.000000 0.000000
vn 0.000000 0.000000 1.000000
vn 0.000000 0.000000 1.000000
vn 0.000000 0.000000 1.000000
vn 0.000000 0.000000 1.000000
vn 1.000000 0.000000 0.000000
vn 1.000000 0.000000 0.000000
vn 1.000000 0.000000 0.000000
vn 1.000000 0.000000 0.000000
vn 0.000000 0.000000 -1.000000
vn 0.000000 0.000000 -1.000000
vn 0.000000 0.000000 -1.000000
vn 0.000000 0.000000 -1.000000
vn 0.000000 -1.000000 0.000000
vn 0.000000 -1.000000 0.000000
vn 0.000000 -1.000000 0.000000
vn 0.000000 -1.000000 0.000000
vn 0.000000 1.000000 0.000000
vn 0.000000 1.000000 0.000000
vn 0.000000 1.000000 0.000000
vn 0.000000 1.000000 0.000000
g dash
f 5/11/1 8/25/2 4/26/3
f 4/13/3 8/12/2 1/1/4
f 5/14/5 4/27/6 3/28/7
f 3/17/7 4/15/6 2/16/8
f 3/18/9 2/29/10 7/30/11
f 7/21/11 2/19/10 6/20/12
f 7/22/13 6/31/14 8/32/15
f 8/10/15 6/23/14 1/24/16
f 1/9/17 6/33/18 4/34/19
f 4/4/19 6/6/18 2/2/20
f 7/7/21 8/35/22 3/36/23
f 3/3/23 8/8/22 5/5/24
