# This file uses centimeters as units for non-parametric coordinates.

v -1.500000 -0.500000 2.000000
v 0.500000 -0.500000 3.000000
v 0.500000 0.500000 3.000000
v -1.500000 -0.500000 3.000000
v -1.500000 0.500000 3.000000
v 1.500000 -0.500000 2.000000
v 1.500000 0.500000 2.000000
v -0.500000 -0.500000 -1.000000
v -0.500000 0.500000 -1.000000
v 1.500000 -0.500000 -1.000000
v 1.500000 0.500000 -1.000000
v -0.500000 -0.500000 -2.000000
v -0.500000 0.500000 -2.000000
v 1.500000 -0.500000 -2.000000
v 1.500000 0.500000 -2.000000
v -1.500000 -0.500000 0.000000
v -1.500000 0.500000 0.000000
v -0.500000 -0.500000 -3.000000
v -0.500000 0.500000 -3.000000
v 1.500000 -0.500000 -3.000000
v 1.500000 0.500000 -3.000000
v -1.500000 -0.500000 -2.000000
v -1.500000 0.500000 -2.000000
v 0.500000 -0.500000 0.000000
v 0.500000 0.500000 0.000000
v 0.500000 -0.500000 2.000000
v 0.500000 0.500000 2.000000
v -1.500000 0.500000 2.000000
vt 0.105178 0.975026
vt 0.223079 0.984196
vt 0.203136 0.964253
vt 0.223079 0.984196
vt 0.203136 0.964253
vt 0.223079 0.964253
vt 0.203136 0.964253
vt 0.223079 0.964253
vt 0.203136 0.964253
vt 0.223079 0.984196
vt 0.203136 0.964253
vt 0.203136 0.964253
vt 0.203136 0.964253
vt 0.223079 0.984196
vt 0.203136 0.964253
vt 0.203136 0.964253
vt 0.203136 0.964253
vt 0.203136 0.964253
vt 0.223079 0.964253
vt 0.223079 0.964253
vt 0.203136 0.964253
vt 0.203136 0.964253
vt 0.223079 0.984196
vt 0.203136 0.964253
vt 0.223079 0.964253
vt 0.203136 0.964253
vt 0.223079 0.964253
vt 0.223079 0.984196
vt 0.203136 0.964253
vt 0.085235 0.955083
vt 0.085235 0.955083
vt 0.105178 0.955083
vt 0.105178 0.975026
vt 0.085235 0.955083
vt 0.085235 0.955083
vt 0.105178 0.955083
vt 0.085235 0.955083
vt 0.085235 0.955083
vt 0.105178 0.955083
vt 0.105178 0.975026
vt 0.085235 0.955083
vt 0.085235 0.955083
vt 0.105178 0.955083
vt 0.105178 0.975026
vt 0.085235 0.955083
vt 0.085235 0.955083
vt 0.105178 0.955083
vt 0.105178 0.975026
vt 0.085235 0.955083
vt 0.085235 0.955083
vt 0.105178 0.955083
vt 0.105178 0.975026
vt 0.085235 0.955083
vt 0.085235 0.955083
vt 0.105178 0.955083
vt 0.105178 0.975026
vt 0.085235 0.955083
vt 0.085235 0.955083
vt 0.105178 0.955083
vt 0.105178 0.975026
vt 0.085235 0.955083
vt 0.085235 0.955083
vt 0.105178 0.955083
vt 0.105178 0.975026
vt 0.085235 0.955083
vt 0.085235 0.955083
vt 0.105178 0.955083
vt 0.105178 0.975026
vt 0.085235 0.955083
vt 0.085235 0.955083
vt 0.105178 0.955083
vt 0.105178 0.975026
vt 0.085235 0.955083
vt 0.085235 0.955083
vt 0.105178 0.955083
vt 0.105178 0.975026
vt 0.085235 0.955083
vt 0.105178 0.955083
vt 0.105178 0.975026
vt 0.085235 0.955083
vt 0.085235 0.955083
vt 0.105178 0.955083
vt 0.105178 0.975026
vt 0.085235 0.955083
vt 0.203136 0.964253
vt 0.223079 0.964253
vt 0.223079 0.984196
vt 0.223079 0.964253
vt 0.223079 0.984196
vt 0.203136 0.964253
vt 0.223079 0.964253
vt 0.223079 0.984196
vt 0.203136 0.964253
vt 0.223079 0.964253
vt 0.223079 0.984196
vt 0.203136 0.964253
vt 0.223079 0.964253
vt 0.223079 0.984196
vt 0.223079 0.984196
vt 0.203136 0.964253
vt 0.223079 0.964253
vt 0.223079 0.984196
vt 0.203136 0.964253
vt 0.203136 0.964253
vt 0.223079 0.964253
vt 0.223079 0.984196
vt 0.203136 0.964253
vt 0.223079 0.964253
vt 0.105178 0.955083
vt 0.105178 0.975026
vt 0.105178 0.955083
vt 0.105178 0.975026
vt 0.105178 0.955083
vt 0.105178 0.975026
vt 0.105178 0.955083
vt 0.105178 0.975026
vt 0.105178 0.955083
vt 0.105178 0.975026
vt 0.105178 0.955083
vt 0.105178 0.975026
vt 0.105178 0.955083
vt 0.105178 0.975026
vt 0.105178 0.955083
vt 0.105178 0.975026
vt 0.105178 0.955083
vt 0.105178 0.975026
vt 0.105178 0.955083
vt 0.105178 0.975026
vt 0.105178 0.955083
vt 0.105178 0.975026
vt 0.105178 0.955083
vt 0.105178 0.975026
vt 0.105178 0.955083
vt 0.105178 0.975026
vt 0.105178 0.955083
vt 0.105178 0.975026
vt 0.223079 0.964253
vt 0.223079 0.984196
vt 0.223079 0.964253
vt 0.223079 0.984196
vt 0.223079 0.964253
vt 0.223079 0.984196
vt 0.223079 0.964253
vt 0.223079 0.984196
vt 0.223079 0.964253
vt 0.223079 0.984196
vt 0.223079 0.964253
vt 0.223079 0.984196
vt 0.223079 0.964253
vt 0.223079 0.984196
vt 0.223079 0.964253
vt 0.223079 0.984196
vt 0.223079 0.964253
vt 0.223079 0.984196
vt 0.223079 0.964253
vt 0.223079 0.984196
vn 1.000000 0.000000 0.000000
vn 1.000000 0.000000 0.000000
vn 1.000000 0.000000 0.000000
vn 1.000000 0.000000 0.000000
vn -1.000000 0.000000 0.000000
vn -1.000000 0.000000 0.000000
vn -1.000000 0.000000 0.000000
vn -1.000000 0.000000 0.000000
vn 0.000000 0.000000 1.000000
vn 0.000000 0.000000 1.000000
vn 0.000000 0.000000 1.000000
vn 0.000000 0.000000 1.000000
vn 0.707107 0.000000 0.707107
vn 0.707107 0.000000 0.707107
vn 0.707107 0.000000 0.707107
vn 0.707107 0.000000 0.707107
vn 1.000000 0.000000 0.000000
vn 1.000000 0.000000 0.000000
vn 1.000000 0.000000 0.000000
vn 1.000000 0.000000 0.000000
vn 0.000000 0.000000 -1.000000
vn 0.000000 0.000000 -1.000000
vn 0.000000 0.000000 -1.000000
vn 0.000000 0.000000 -1.000000
vn 1.000000 0.000000 0.000000
vn 1.000000 0.000000 0.000000
vn 1.000000 0.000000 0.000000
vn 1.000000 0.000000 0.000000
vn 0.000000 0.000000 1.000000
vn 0.000000 0.000000 1.000000
vn 0.000000 0.000000 1.000000
vn 0.000000 0.000000 1.000000
vn 0.000000 0.000000 -1.000000
vn 0.000000 0.000000 -1.000000
vn 0.000000 0.000000 -1.000000
vn 0.000000 0.000000 -1.000000
vn -0.707107 0.000000 -0.707107
vn -0.707107 0.000000 -0.707107
vn -0.707107 0.000000 -0.707107
vn -0.707107 0.000000 -0.707107
vn -1.000000 0.000000 0.000000
vn -1.000000 0.000000 0.000000
vn -1.000000 0.000000 0.000000
vn -1.000000 0.000000 0.000000
vn 0.000000 0.000000 1.000000
vn 0.000000 0.000000 1.000000
vn 0.000000 0.000000 1.000000
vn 0.000000 0.000000 1.000000
vn 0.000000 0.000000 -1.000000
vn 0.000000 0.000000 -1.000000
vn 0.000000 0.000000 -1.000000
vn 0.000000 0.000000 -1.000000
vn -1.000000 0.000000 0.000000
vn -1.000000 0.000000 0.000000
vn -1.000000 0.000000 0.000000
vn -1.000000 0.000000 0.000000
vn 0.000000 -1.000000 0.000000
vn 0.000000 -1.000000 0.000000
vn 0.000000 -1.000000 0.000000
vn 0.000000 1.000000 0.000000
vn 0.000000 1.000000 0.000000
vn 0.000000 1.000000 0.000000
vn 0.000000 1.000000 0.000000
vn 0.000000 1.000000 0.000000
vn 0.000000 1.000000 0.000000
vn 0.000000 1.000000 0.000000
vn 0.000000 1.000000 0.000000
vn 0.000000 1.000000 0.000000
vn 0.000000 1.000000 0.000000
vn 0.000000 1.000000 0.000000
vn 0.000000 1.000000 0.000000
vn 0.000000 1.000000 0.000000
vn 0.000000 1.000000 0.000000
vn 0.000000 -1.000000 0.000000
vn 0.000000 -1.000000 0.000000
vn 0.000000 -1.000000 0.000000
vn 0.000000 -1.000000 0.000000
vn 0.000000 -1.000000 0.000000
vn 0.000000 -1.000000 0.000000
vn 0.000000 -1.000000 0.000000
vn 0.000000 -1.000000 0.000000
vn 0.000000 -1.000000 0.000000
vn 0.000000 -1.000000 0.000000
vn 0.000000 -1.000000 0.000000
g five
f 21/31/1 15/109/2 20/110/3
f 20/34/3 15/32/2 14/33/4
f 5/35/5 28/111/6 4/112/7
f 4/37/7 28/36/6 1/1/8
f 5/38/9 4/113/10 3/114/11
f 3/41/11 4/39/10 2/40/12
f 3/42/13 2/115/14 7/116/15
f 7/45/15 2/43/14 6/44/16
f 11/46/17 7/117/18 10/118/19
f 10/49/19 7/47/18 6/48/20
f 11/50/21 10/119/22 9/120/23
f 9/53/23 10/51/22 8/52/24
f 9/54/25 8/121/26 13/122/27
f 13/57/27 8/55/26 12/56/28
f 13/58/29 12/123/30 15/124/31
f 15/61/31 12/59/30 14/60/32
f 21/62/33 20/125/34 19/126/35
f 19/65/35 20/63/34 18/64/36
f 19/66/37 18/127/38 23/128/39
f 23/69/39 18/67/38 22/68/40
f 23/70/41 22/129/42 17/130/43
f 17/73/43 22/71/42 16/72/44
f 16/74/45 24/131/46 17/132/47
f 17/77/47 24/75/46 25/76/48
f 28/30/49 27/133/50 1/134/51
f 1/80/51 27/78/50 26/79/52
f 24/81/53 26/135/54 25/136/55
f 25/84/55 26/82/54 27/83/56
f 18/85/57 12/86/58 22/87/59
f 21/21/60 19/137/61 15/138/62
f 15/15/62 19/88/61 13/89/63
f 13/90/63 23/139/64 9/140/65
f 9/93/65 23/91/64 17/92/66
f 13/13/63 19/19/61 23/23/64
f 17/17/66 25/141/67 9/142/65
f 9/9/65 25/94/67 11/95/68
f 7/96/69 27/97/70 3/98/71
f 11/11/68 25/143/67 7/144/69
f 7/7/69 25/25/67 27/99/70
f 3/3/71 27/145/70 5/146/72
f 5/5/72 27/27/70 28/28/73
f 18/18/57 20/147/74 12/148/58
f 12/100/58 20/20/74 14/14/75
f 12/12/58 8/149/76 22/150/59
f 22/22/59 8/101/76 16/102/77
f 10/104/78 6/151/79 24/152/80
f 24/103/80 6/105/79 26/106/81
f 16/16/77 8/153/76 24/154/80
f 24/24/80 8/8/76 10/10/78
f 26/107/81 2/155/82 1/156/83
f 1/29/83 2/108/82 4/4/84
f 26/26/81 6/6/79 2/2/82
