# This file uses centimeters as units for non-parametric coordinates.

v -1.500000 -0.500000 3.000000
v 1.500000 -0.500000 -3.000000
v 1.500000 0.500000 -3.000000
v 0.500000 -0.500000 -3.000000
v 0.500000 0.500000 -3.000000
v -0.500000 -0.500000 3.000000
v -0.500000 0.500000 3.000000
v -1.500000 0.500000 3.000000
vt 0.106450 0.985468
vt 0.208414 0.957741
vt 0.241381 0.990708
vt 0.208414 0.957741
vt 0.208414 0.957741
vt 0.241381 0.957741
vt 0.241381 0.957741
vt 0.208414 0.957741
vt 0.241381 0.990708
vt 0.106450 0.985468
vt 0.073483 0.952501
vt 0.106450 0.952501
vt 0.073483 0.952501
vt 0.073483 0.952501
vt 0.106450 0.952501
vt 0.106450 0.985468
vt 0.073483 0.952501
vt 0.073483 0.952501
vt 0.106450 0.952501
vt 0.106450 0.985468
vt 0.073483 0.952501
vt 0.073483 0.952501
vt 0.106450 0.952501
vt 0.073483 0.952501
vt 0.106450 0.952501
vt 0.106450 0.985468
vt 0.106450 0.952501
vt 0.106450 0.985468
vt 0.106450 0.952501
vt 0.106450 0.985468
vt 0.106450 0.952501
vt 0.106450 0.985468
vt 0.241381 0.957741
vt 0.241381 0.990708
vt 0.241381 0.957741
vt 0.241381 0.990708
vn -0.948683 0.000000 -0.316228
vn -0.948683 0.000000 -0.316228
vn -0.948683 0.000000 -0.316228
vn -0.948683 0.000000 -0.316228
vn 0.000000 0.000000 -1.000000
vn 0.000000 0.000000 -1.000000
vn 0.000000 0.000000 -1.000000
vn 0.000000 0.000000 -1.000000
vn 0.948683 0.000000 0.316228
vn 0.948683 0.000000 0.316228
vn 0.948683 0.000000 0.316228
vn 0.948683 0.000000 0.316228
vn 0.000000 0.000000 1.000000
vn 0.000000 0.000000 1.000000
vn 0.000000 0.000000 1.000000
vn 0.000000 0.000000 1.000000
vn 0.000000 -1.000000 0.000000
vn 0.000000 -1.000000 0.000000
vn 0.000000 -1.000000 0.000000
vn 0.000000 -1.000000 0.000000
vn 0.000000 1.000000 0.000000
vn 0.000000 1.000000 0.000000
vn 0.000000 1.000000 0.000000
vn 0.000000 1.000000 0.000000
g fslash
f 5/11/1 4/25/2 8/26/3
f 8/13/3 4/12/2 1/1/4
f 5/14/5 3/27/6 4/28/7
f 4/17/7 3/15/6 2/16/8
f 2/18/9 3/29/10 6/30/11
f 6/21/11 3/19/10 7/20/12
f 6/22/13 7/31/14 1/32/15
f 1/24/15 7/23/14 8/10/16
f 2/2/17 6/33/18 4/34/19
f 4/4/19 6/6/18 1/9/20
f 8/8/21 7/35/22 5/36/23
f 5/5/23 7/7/22 3/3/24
