# This file uses centimeters as units for non-parametric coordinates.

v -1.500000 -0.500000 -3.000000
v 1.500000 -0.500000 3.000000
v 1.500000 0.500000 3.000000
v -0.500000 -0.500000 3.000000
v -0.500000 0.500000 3.000000
v -1.500000 -0.500000 3.000000
v -1.500000 0.500000 3.000000
v 0.500000 -0.500000 1.000000
v 0.500000 0.500000 1.000000
v -0.500000 -0.500000 1.000000
v -0.500000 0.500000 1.000000
v 0.500000 -0.500000 3.000000
v 0.500000 0.500000 3.000000
v 0.500000 -0.500000 0.000000
v 0.500000 0.500000 0.000000
v 1.500000 -0.500000 -3.000000
v 1.500000 0.500000 -3.000000
v 0.500000 -0.500000 -3.000000
v 0.500000 0.500000 -3.000000
v -0.500000 -0.500000 0.000000
v -0.500000 0.500000 0.000000
v -0.500000 -0.500000 -3.000000
v -0.500000 0.500000 -3.000000
v -1.500000 0.500000 -3.000000
vt 0.091073 0.971605
vt 0.200726 0.970077
vt 0.200726 0.970077
vt 0.204107 0.973458
vt 0.204107 0.973458
vt 0.200726 0.970077
vt 0.204107 0.970077
vt 0.200726 0.970077
vt 0.204107 0.970077
vt 0.204107 0.970077
vt 0.204107 0.970077
vt 0.204107 0.973458
vt 0.204107 0.973458
vt 0.204107 0.973458
vt 0.200726 0.970077
vt 0.204107 0.973458
vt 0.204107 0.970077
vt 0.204107 0.973458
vt 0.204107 0.973458
vt 0.204107 0.970077
vt 0.200726 0.970077
vt 0.204107 0.973458
vt 0.204107 0.973458
vt 0.200726 0.970077
vt 0.204107 0.970077
vt 0.087692 0.968224
vt 0.087692 0.968224
vt 0.091073 0.968224
vt 0.091073 0.971605
vt 0.087692 0.968224
vt 0.091073 0.968224
vt 0.087692 0.968224
vt 0.091073 0.968224
vt 0.091073 0.971605
vt 0.087692 0.968224
vt 0.091073 0.968224
vt 0.091073 0.971605
vt 0.087692 0.968224
vt 0.091073 0.968224
vt 0.091073 0.971605
vt 0.087692 0.968224
vt 0.091073 0.968224
vt 0.091073 0.971605
vt 0.087692 0.968224
vt 0.091073 0.968224
vt 0.091073 0.971605
vt 0.087692 0.968224
vt 0.091073 0.968224
vt 0.091073 0.971605
vt 0.087692 0.968224
vt 0.091073 0.968224
vt 0.091073 0.971605
vt 0.087692 0.968224
vt 0.091073 0.968224
vt 0.091073 0.971605
vt 0.087692 0.968224
vt 0.091073 0.968224
vt 0.091073 0.971605
vt 0.087692 0.968224
vt 0.091073 0.968224
vt 0.091073 0.971605
vt 0.087692 0.968224
vt 0.091073 0.968224
vt 0.091073 0.971605
vt 0.087692 0.968224
vt 0.091073 0.968224
vt 0.091073 0.971605
vt 0.087692 0.968224
vt 0.091073 0.968224
vt 0.091073 0.971605
vt 0.087692 0.968224
vt 0.091073 0.968224
vt 0.091073 0.971605
vt 0.087692 0.968224
vt 0.091073 0.968224
vt 0.091073 0.971605
vt 0.087692 0.968224
vt 0.091073 0.968224
vt 0.091073 0.971605
vt 0.087692 0.968224
vt 0.091073 0.968224
vt 0.091073 0.971605
vt 0.087692 0.968224
vt 0.091073 0.968224
vt 0.091073 0.971605
vt 0.087692 0.968224
vt 0.091073 0.968224
vt 0.091073 0.971605
vt 0.087692 0.968224
vt 0.091073 0.968224
vt 0.091073 0.971605
vt 0.087692 0.968224
vt 0.091073 0.968224
vt 0.091073 0.971605
vt 0.091073 0.968224
vt 0.091073 0.971605
vt 0.200726 0.970077
vt 0.204107 0.970077
vt 0.200726 0.970077
vt 0.204107 0.970077
vt 0.200726 0.970077
vt 0.204107 0.970077
vt 0.204107 0.973458
vt 0.200726 0.970077
vt 0.204107 0.970077
vt 0.204107 0.973458
vt 0.200726 0.970077
vt 0.204107 0.970077
vt 0.204107 0.970077
vt 0.204107 0.973458
vt 0.200726 0.970077
vt 0.204107 0.973458
vt 0.200726 0.970077
vt 0.204107 0.970077
vt 0.204107 0.973458
vt 0.200726 0.970077
vt 0.204107 0.970077
vt 0.204107 0.973458
vt 0.200726 0.970077
vt 0.204107 0.970077
vt 0.200726 0.970077
vt 0.204107 0.970077
vt 0.204107 0.973458
vt 0.204107 0.970077
vt 0.200726 0.970077
vt 0.200726 0.970077
vt 0.204107 0.970077
vt 0.204107 0.973458
vt 0.200726 0.970077
vt 0.204107 0.970077
vt 0.204107 0.973458
vt 0.204107 0.973458
vn -1.000000 0.000000 0.000000
vn -1.000000 0.000000 0.000000
vn -1.000000 0.000000 0.000000
vn -1.000000 0.000000 0.000000
vn 0.000000 0.000000 1.000000
vn 0.000000 0.000000 1.000000
vn 0.000000 0.000000 1.000000
vn 0.000000 0.000000 1.000000
vn 1.000000 0.000000 0.000000
vn 1.000000 0.000000 0.000000
vn 1.000000 0.000000 0.000000
vn 1.000000 0.000000 0.000000
vn 0.000000 0.000000 1.000000
vn 0.000000 0.000000 1.000000
vn 0.000000 0.000000 1.000000
vn 0.000000 0.000000 1.000000
vn -1.000000 0.000000 0.000000
vn -1.000000 0.000000 0.000000
vn -1.000000 0.000000 0.000000
vn -1.000000 0.000000 0.000000
vn 0.000000 0.000000 1.000000
vn 0.000000 0.000000 1.000000
vn 0.000000 0.000000 1.000000
vn 0.000000 0.000000 1.000000
vn -1.000000 0.000000 0.000000
vn -1.000000 0.000000 0.000000
vn -1.000000 0.000000 0.000000
vn -1.000000 0.000000 0.000000
vn 1.000000 0.000000 0.000000
vn 1.000000 0.000000 0.000000
vn 1.000000 0.000000 0.000000
vn 1.000000 0.000000 0.000000
vn 0.000000 0.000000 -1.000000
vn 0.000000 0.000000 -1.000000
vn 0.000000 0.000000 -1.000000
vn 0.000000 0.000000 -1.000000
vn 1.000000 0.000000 0.000000
vn 1.000000 0.000000 0.000000
vn 1.000000 0.000000 0.000000
vn 1.000000 0.000000 0.000000
vn 0.000000 0.000000 -1.000000
vn 0.000000 0.000000 -1.000000
vn 0.000000 0.000000 -1.000000
vn 0.000000 0.000000 -1.000000
vn 0.000000 0.000000 -1.000000
vn 0.000000 0.000000 -1.000000
vn 0.000000 0.000000 -1.000000
vn 0.000000 0.000000 -1.000000
vn 0.000000 1.000000 0.000000
vn 0.000000 1.000000 0.000000
vn 0.000000 1.000000 0.000000
vn 0.000000 -1.000000 0.000000
vn 0.000000 -1.000000 0.000000
vn 0.000000 -1.000000 0.000000
vn 0.000000 1.000000 0.000000
vn 0.000000 1.000000 0.000000
vn 0.000000 1.000000 0.000000
vn 0.000000 1.000000 0.000000
vn 0.000000 1.000000 0.000000
vn 0.000000 1.000000 0.000000
vn 0.000000 1.000000 0.000000
vn 0.000000 1.000000 0.000000
vn 0.000000 1.000000 0.000000
vn 0.000000 1.000000 0.000000
vn 0.000000 1.000000 0.000000
vn 0.000000 -1.000000 0.000000
vn 0.000000 -1.000000 0.000000
vn 0.000000 -1.000000 0.000000
vn 0.000000 -1.000000 0.000000
vn 0.000000 -1.000000 0.000000
vn 0.000000 -1.000000 0.000000
vn 0.000000 -1.000000 0.000000
vn 0.000000 -1.000000 0.000000
vn 0.000000 -1.000000 0.000000
vn 0.000000 -1.000000 0.000000
vn 0.000000 -1.000000 0.000000
vn 0.000000 -1.000000 0.000000
vn 0.000000 -1.000000 0.000000
vn 0.000000 -1.000000 0.000000
vn 0.000000 -1.000000 0.000000
vn 0.000000 -1.000000 0.000000
vn 0.000000 -1.000000 0.000000
vn 0.000000 -1.000000 0.000000
vn 0.000000 -1.000000 0.000000
vn 0.000000 -1.000000 0.000000
vn 0.000000 -1.000000 0.000000
vn 0.000000 1.000000 0.000000
vn 0.000000 1.000000 0.000000
vn 0.000000 1.000000 0.000000
vn 0.000000 1.000000 0.000000
vn 0.000000 1.000000 0.000000
vn 0.000000 1.000000 0.000000
vn 0.000000 1.000000 0.000000
vn 0.000000 1.000000 0.000000
vn 0.000000 1.000000 0.000000
vn 0.000000 1.000000 0.000000
g h
f 7/27/1 24/28/2 6/29/3
f 6/30/3 24/31/2 1/1/4
f 7/32/5 6/33/6 5/34/7
f 5/35/7 6/36/6 4/37/8
f 11/38/9 5/39/10 10/40/11
f 10/41/11 5/42/10 4/43/12
f 11/44/13 10/45/14 9/46/15
f 9/47/15 10/48/14 8/49/16
f 13/50/17 9/51/18 12/52/19
f 12/53/19 9/54/18 8/55/20
f 13/56/21 12/57/22 3/58/23
f 3/59/23 12/60/22 2/61/24
f 15/62/25 19/63/26 14/64/27
f 14/65/27 19/66/26 18/67/28
f 16/68/29 17/69/30 2/70/31
f 2/71/31 17/72/30 3/73/32
f 16/74/33 18/75/34 17/76/35
f 17/77/35 18/78/34 19/79/36
f 23/80/37 21/81/38 22/82/39
f 22/83/39 21/84/38 20/85/40
f 15/86/41 14/87/42 21/88/43
f 21/89/43 14/90/42 20/91/44
f 23/92/45 22/93/46 24/94/47
f 24/26/47 22/95/46 1/96/48
f 24/97/49 21/98/50 23/23/51
f 16/99/52 14/100/53 18/18/54
f 9/101/55 3/102/56 15/103/57
f 15/104/57 3/105/56 17/106/58
f 11/107/59 7/108/60 5/5/61
f 24/24/62 7/109/63 21/110/64
f 21/111/64 7/7/63 11/112/65
f 1/113/66 20/114/67 6/115/68
f 6/116/68 20/117/67 10/118/69
f 8/119/70 2/120/71 12/12/72
f 8/121/73 14/122/74 2/123/75
f 2/2/75 14/124/74 16/16/76
f 20/125/77 1/25/78 22/22/79
f 10/126/80 20/127/81 8/128/82
f 8/8/82 20/20/81 14/14/83
f 6/6/84 10/10/85 4/4/86
f 15/129/87 17/17/88 19/19/89
f 21/21/90 11/130/91 15/131/92
f 15/15/92 11/11/91 9/132/93
f 3/3/94 9/9/95 13/13/96
