# This file uses centimeters as units for non-parametric coordinates.

v -1.500000 -0.500000 3.000000
v -1.500000 0.500000 3.000000
v 1.500000 -0.500000 -3.000000
v 1.500000 0.500000 -3.000000
v -0.500000 -0.500000 -2.000000
v -0.500000 0.500000 -2.000000
v -0.500000 -0.500000 2.000000
v -0.500000 0.500000 2.000000
v -1.500000 -0.500000 2.000000
v -1.500000 0.500000 2.000000
v -1.500000 -0.500000 -2.000000
v -1.500000 0.500000 -2.000000
v -1.500000 -0.500000 -3.000000
v -1.500000 0.500000 -3.000000
v 0.500000 -0.500000 2.000000
v 0.500000 0.500000 2.000000
v 0.500000 -0.500000 -2.000000
v 0.500000 0.500000 -2.000000
v 1.500000 -0.500000 -2.000000
v 1.500000 0.500000 -2.000000
v 1.500000 -0.500000 2.000000
v 1.500000 0.500000 2.000000
v 1.500000 -0.500000 3.000000
v 1.500000 0.500000 3.000000
vt 0.215550 0.968224
vt 0.087692 0.968224
vt 0.215550 0.968224
vt 0.087692 0.968224
vt 0.215550 0.968224
vt 0.215550 0.968224
vt 0.218931 0.968224
vt 0.215550 0.968224
vt 0.218931 0.968224
vt 0.218931 0.968224
vt 0.215550 0.968224
vt 0.218931 0.971605
vt 0.218931 0.971605
vt 0.218931 0.971605
vt 0.218931 0.971605
vt 0.218931 0.968224
vt 0.215550 0.968224
vt 0.218931 0.968224
vt 0.215550 0.968224
vt 0.218931 0.971605
vt 0.218931 0.971605
vt 0.218931 0.971605
vt 0.218931 0.971605
vt 0.218931 0.971605
vt 0.215550 0.968224
vt 0.218931 0.968224
vt 0.087692 0.968224
vt 0.091073 0.968224
vt 0.091073 0.971605
vt 0.091073 0.968224
vt 0.091073 0.971605
vt 0.087692 0.968224
vt 0.091073 0.968224
vt 0.091073 0.971605
vt 0.087692 0.968224
vt 0.091073 0.968224
vt 0.091073 0.971605
vt 0.087692 0.968224
vt 0.091073 0.968224
vt 0.091073 0.971605
vt 0.087692 0.968224
vt 0.091073 0.968224
vt 0.091073 0.971605
vt 0.087692 0.968224
vt 0.091073 0.968224
vt 0.091073 0.971605
vt 0.087692 0.968224
vt 0.091073 0.968224
vt 0.091073 0.971605
vt 0.087692 0.968224
vt 0.091073 0.968224
vt 0.091073 0.971605
vt 0.087692 0.968224
vt 0.091073 0.968224
vt 0.091073 0.971605
vt 0.087692 0.968224
vt 0.091073 0.968224
vt 0.091073 0.971605
vt 0.087692 0.968224
vt 0.091073 0.968224
vt 0.091073 0.971605
vt 0.087692 0.968224
vt 0.091073 0.968224
vt 0.091073 0.971605
vt 0.087692 0.968224
vt 0.091073 0.968224
vt 0.091073 0.971605
vt 0.087692 0.968224
vt 0.091073 0.968224
vt 0.091073 0.971605
vt 0.087692 0.968224
vt 0.091073 0.968224
vt 0.091073 0.971605
vt 0.087692 0.968224
vt 0.091073 0.968224
vt 0.091073 0.971605
vt 0.087692 0.968224
vt 0.091073 0.968224
vt 0.091073 0.971605
vt 0.087692 0.968224
vt 0.091073 0.968224
vt 0.091073 0.971605
vt 0.087692 0.968224
vt 0.091073 0.968224
vt 0.091073 0.971605
vt 0.091073 0.968224
vt 0.091073 0.971605
vt 0.087692 0.968224
vt 0.091073 0.968224
vt 0.091073 0.971605
vt 0.087692 0.968224
vt 0.091073 0.968224
vt 0.091073 0.971605
vt 0.087692 0.968224
vt 0.091073 0.968224
vt 0.091073 0.971605
vt 0.215550 0.968224
vt 0.218931 0.968224
vt 0.218931 0.971605
vt 0.215550 0.968224
vt 0.218931 0.968224
vt 0.218931 0.971605
vt 0.215550 0.968224
vt 0.218931 0.968224
vt 0.215550 0.968224
vt 0.215550 0.968224
vt 0.218931 0.968224
vt 0.218931 0.971605
vt 0.215550 0.968224
vt 0.218931 0.968224
vt 0.218931 0.971605
vt 0.218931 0.968224
vt 0.215550 0.968224
vt 0.215550 0.968224
vt 0.218931 0.968224
vt 0.218931 0.971605
vt 0.215550 0.968224
vt 0.218931 0.968224
vt 0.218931 0.968224
vt 0.218931 0.971605
vt 0.218931 0.968224
vt 0.218931 0.971605
vt 0.218931 0.968224
vt 0.218931 0.971605
vt 0.218931 0.968224
vt 0.218931 0.971605
vt 0.215550 0.968224
vt 0.218931 0.971605
vt 0.215550 0.968224
vt 0.218931 0.968224
vt 0.218931 0.968224
vt 0.218931 0.971605
vn -1.000000 0.000000 0.000000
vn -1.000000 0.000000 0.000000
vn -1.000000 0.000000 0.000000
vn -1.000000 0.000000 0.000000
vn 0.000000 0.000000 -1.000000
vn 0.000000 0.000000 -1.000000
vn 0.000000 0.000000 -1.000000
vn 0.000000 0.000000 -1.000000
vn -1.000000 0.000000 0.000000
vn -1.000000 0.000000 0.000000
vn -1.000000 0.000000 0.000000
vn -1.000000 0.000000 0.000000
vn 0.000000 0.000000 1.000000
vn 0.000000 0.000000 1.000000
vn 0.000000 0.000000 1.000000
vn 0.000000 0.000000 1.000000
vn 0.000000 0.000000 -1.000000
vn 0.000000 0.000000 -1.000000
vn 0.000000 0.000000 -1.000000
vn 0.000000 0.000000 -1.000000
vn -1.000000 0.000000 0.000000
vn -1.000000 0.000000 0.000000
vn -1.000000 0.000000 0.000000
vn -1.000000 0.000000 0.000000
vn 1.000000 0.000000 0.000000
vn 1.000000 0.000000 0.000000
vn 1.000000 0.000000 0.000000
vn 1.000000 0.000000 0.000000
vn 0.000000 0.000000 1.000000
vn 0.000000 0.000000 1.000000
vn 0.000000 0.000000 1.000000
vn 0.000000 0.000000 1.000000
vn 1.000000 0.000000 0.000000
vn 1.000000 0.000000 0.000000
vn 1.000000 0.000000 0.000000
vn 1.000000 0.000000 0.000000
vn 0.000000 0.000000 -1.000000
vn 0.000000 0.000000 -1.000000
vn 0.000000 0.000000 -1.000000
vn 0.000000 0.000000 -1.000000
vn 0.000000 0.000000 1.000000
vn 0.000000 0.000000 1.000000
vn 0.000000 0.000000 1.000000
vn 0.000000 0.000000 1.000000
vn 1.000000 0.000000 0.000000
vn 1.000000 0.000000 0.000000
vn 1.000000 0.000000 0.000000
vn 1.000000 0.000000 0.000000
vn 0.000000 1.000000 0.000000
vn 0.000000 1.000000 0.000000
vn 0.000000 1.000000 0.000000
vn 0.000000 1.000000 0.000000
vn 0.000000 -1.000000 0.000000
vn 0.000000 -1.000000 0.000000
vn 0.000000 -1.000000 0.000000
vn 0.000000 1.000000 0.000000
vn 0.000000 1.000000 0.000000
vn 0.000000 1.000000 0.000000
vn 0.000000 1.000000 0.000000
vn 0.000000 1.000000 0.000000
vn 0.000000 1.000000 0.000000
vn 0.000000 1.000000 0.000000
vn 0.000000 1.000000 0.000000
vn 0.000000 1.000000 0.000000
vn 0.000000 1.000000 0.000000
vn 0.000000 1.000000 0.000000
vn 0.000000 1.000000 0.000000
vn 0.000000 1.000000 0.000000
vn 0.000000 1.000000 0.000000
vn 0.000000 1.000000 0.000000
vn 0.000000 1.000000 0.000000
vn 0.000000 1.000000 0.000000
vn 0.000000 1.000000 0.000000
vn 0.000000 1.000000 0.000000
vn 0.000000 1.000000 0.000000
vn 0.000000 -1.000000 0.000000
vn 0.000000 -1.000000 0.000000
vn 0.000000 -1.000000 0.000000
vn 0.000000 -1.000000 0.000000
vn 0.000000 -1.000000 0.000000
vn 0.000000 -1.000000 0.000000
vn 0.000000 -1.000000 0.000000
vn 0.000000 -1.000000 0.000000
vn 0.000000 -1.000000 0.000000
vn 0.000000 -1.000000 0.000000
vn 0.000000 -1.000000 0.000000
vn 0.000000 -1.000000 0.000000
vn 0.000000 -1.000000 0.000000
vn 0.000000 -1.000000 0.000000
vn 0.000000 -1.000000 0.000000
vn 0.000000 -1.000000 0.000000
vn 0.000000 -1.000000 0.000000
vn 0.000000 -1.000000 0.000000
vn 0.000000 -1.000000 0.000000
vn 0.000000 -1.000000 0.000000
vn 0.000000 -1.000000 0.000000
g i
f 10/27/1 9/28/2 2/29/3
f 2/4/3 9/30/2 1/31/4
f 10/32/5 8/33/6 9/34/7
f 9/35/7 8/36/6 7/37/8
f 8/38/9 6/39/10 7/40/11
f 7/41/11 6/42/10 5/43/12
f 5/44/13 6/45/14 11/46/15
f 11/47/15 6/48/14 12/49/16
f 13/50/17 14/51/18 3/52/19
f 3/53/19 14/54/18 4/55/20
f 11/56/21 12/57/22 13/58/23
f 13/59/23 12/60/22 14/61/24
f 20/62/25 19/63/26 4/64/27
f 4/65/27 19/66/26 3/67/28
f 20/68/29 18/69/30 19/70/31
f 19/71/31 18/72/30 17/73/32
f 18/74/33 16/75/34 17/76/35
f 17/77/35 16/78/34 15/79/36
f 15/80/37 16/81/38 21/82/39
f 21/83/39 16/84/38 22/85/40
f 1/2/41 23/86/42 2/87/43
f 2/88/43 23/89/42 24/90/44
f 21/91/45 22/92/46 23/93/47
f 23/94/47 22/95/46 24/96/48
f 6/97/49 18/98/50 14/99/51
f 14/100/51 18/101/50 4/102/52
f 23/103/53 15/104/54 21/23/55
f 6/105/56 14/16/57 12/14/58
f 2/106/59 24/107/60 8/108/61
f 8/109/61 24/110/60 16/111/62
f 4/6/63 18/112/64 20/22/65
f 16/113/66 24/26/67 22/24/68
f 8/114/69 16/115/70 6/116/71
f 6/8/71 16/18/70 18/20/72
f 2/3/73 8/10/74 10/12/75
f 13/117/76 5/118/77 11/13/78
f 9/11/79 7/119/80 1/120/81
f 1/1/82 7/121/83 23/122/84
f 23/25/84 7/123/83 15/124/85
f 15/17/86 7/125/87 17/126/88
f 17/127/88 7/9/87 5/128/89
f 17/129/90 3/130/91 19/21/92
f 17/19/93 5/131/94 3/132/95
f 3/5/95 5/7/94 13/15/96
