# This file uses centimeters as units for non-parametric coordinates.

v -1.500000 -0.500000 3.000000
v -0.500000 -0.500000 -3.000000
v -0.500000 0.500000 -3.000000
v -1.500000 -0.500000 -3.000000
v -1.500000 0.500000 -3.000000
v -0.500000 -0.500000 0.000000
v -0.500000 0.500000 0.000000
v 0.500000 -0.500000 -2.000000
v 0.500000 0.500000 -2.000000
v 1.500000 -0.500000 -2.000000
v 1.500000 0.500000 -2.000000
v 0.500000 -0.500000 1.000000
v 0.500000 0.500000 1.000000
v 1.500000 -0.500000 3.000000
v 1.500000 0.500000 3.000000
v -0.500000 -0.500000 2.000000
v -0.500000 0.500000 2.000000
v 0.500000 -0.500000 3.000000
v 0.500000 0.500000 3.000000
v -0.500000 -0.500000 3.000000
v -0.500000 0.500000 3.000000
v -1.500000 0.500000 3.000000
vt 0.201317 0.968224
vt 0.204697 0.968224
vt 0.204697 0.971605
vt 0.201317 0.968224
vt 0.201317 0.968224
vt 0.204697 0.968224
vt 0.204697 0.968224
vt 0.204697 0.971605
vt 0.201317 0.968224
vt 0.201317 0.968224
vt 0.201317 0.968224
vt 0.204697 0.968224
vt 0.201317 0.968224
vt 0.204697 0.971605
vt 0.204697 0.971605
vt 0.204697 0.971605
vt 0.204697 0.971605
vt 0.201317 0.968224
vt 0.204697 0.968224
vt 0.204697 0.971605
vt 0.204697 0.971605
vt 0.098586 0.966914
vt 0.098586 0.970295
vt 0.204697 0.968224
vt 0.095206 0.966914
vt 0.098586 0.966914
vt 0.098586 0.970295
vt 0.095206 0.966914
vt 0.098586 0.970295
vt 0.095206 0.966914
vt 0.098586 0.966914
vt 0.098586 0.970295
vt 0.095206 0.966914
vt 0.098586 0.966914
vt 0.098586 0.970295
vt 0.095206 0.966914
vt 0.098586 0.966914
vt 0.098586 0.970295
vt 0.095206 0.966914
vt 0.098586 0.966914
vt 0.098586 0.970295
vt 0.095206 0.966914
vt 0.098586 0.966914
vt 0.098586 0.970295
vt 0.095206 0.966914
vt 0.098586 0.966914
vt 0.098586 0.970295
vt 0.095206 0.966914
vt 0.098586 0.966914
vt 0.098586 0.970295
vt 0.095206 0.966914
vt 0.098586 0.966914
vt 0.098586 0.970295
vt 0.095206 0.966914
vt 0.098586 0.966914
vt 0.098586 0.970295
vt 0.095206 0.966914
vt 0.098586 0.966914
vt 0.098586 0.970295
vt 0.095206 0.966914
vt 0.098586 0.966914
vt 0.098586 0.970295
vt 0.095206 0.966914
vt 0.098586 0.966914
vt 0.098586 0.970295
vt 0.095206 0.966914
vt 0.098586 0.966914
vt 0.098586 0.970295
vt 0.095206 0.966914
vt 0.098586 0.966914
vt 0.098586 0.970295
vt 0.095206 0.966914
vt 0.098586 0.966914
vt 0.098586 0.970295
vt 0.095206 0.966914
vt 0.098586 0.966914
vt 0.098586 0.970295
vt 0.095206 0.966914
vt 0.098586 0.966914
vt 0.098586 0.970295
vt 0.095206 0.966914
vt 0.098586 0.966914
vt 0.098586 0.970295
vt 0.095206 0.966914
vt 0.098586 0.966914
vt 0.098586 0.970295
vt 0.095206 0.966914
vt 0.098586 0.966914
vt 0.201317 0.968224
vt 0.204697 0.968224
vt 0.204697 0.971605
vt 0.201317 0.968224
vt 0.204697 0.968224
vt 0.204697 0.971605
vt 0.201317 0.968224
vt 0.204697 0.968224
vt 0.204697 0.971605
vt 0.201317 0.968224
vt 0.201317 0.968224
vt 0.204697 0.968224
vt 0.204697 0.971605
vt 0.201317 0.968224
vt 0.204697 0.968224
vt 0.204697 0.971605
vt 0.204697 0.968224
vt 0.204697 0.971605
vt 0.204697 0.968224
vt 0.201317 0.968224
vt 0.204697 0.971605
vt 0.201317 0.968224
vt 0.204697 0.968224
vt 0.204697 0.971605
vt 0.204697 0.968224
vt 0.201317 0.968224
vt 0.204697 0.968224
vt 0.204697 0.971605
vt 0.201317 0.968224
vt 0.204697 0.968224
vt 0.204697 0.968224
vt 0.204697 0.971605
vn -1.000000 0.000000 0.000000
vn -1.000000 0.000000 0.000000
vn -1.000000 0.000000 0.000000
vn -1.000000 0.000000 0.000000
vn 0.000000 0.000000 -1.000000
vn 0.000000 0.000000 -1.000000
vn 0.000000 0.000000 -1.000000
vn 0.000000 0.000000 -1.000000
vn 1.000000 0.000000 0.000000
vn 1.000000 0.000000 0.000000
vn 1.000000 0.000000 0.000000
vn 1.000000 0.000000 0.000000
vn -0.894427 0.000000 -0.447214
vn -0.894427 0.000000 -0.447214
vn -0.894427 0.000000 -0.447214
vn -0.894427 0.000000 -0.447214
vn 0.000000 0.000000 -1.000000
vn 0.000000 0.000000 -1.000000
vn 0.000000 0.000000 -1.000000
vn 0.000000 0.000000 -1.000000
vn 0.948683 0.000000 0.316228
vn 0.948683 0.000000 0.316228
vn 0.948683 0.000000 0.316228
vn 0.948683 0.000000 0.316228
vn 0.894427 0.000000 -0.447214
vn 0.894427 0.000000 -0.447214
vn 0.894427 0.000000 -0.447214
vn 0.894427 0.000000 -0.447214
vn -0.707107 0.000000 0.707107
vn -0.707107 0.000000 0.707107
vn -0.707107 0.000000 0.707107
vn -0.707107 0.000000 0.707107
vn 0.000000 0.000000 1.000000
vn 0.000000 0.000000 1.000000
vn 0.000000 0.000000 1.000000
vn 0.000000 0.000000 1.000000
vn 1.000000 0.000000 0.000000
vn 1.000000 0.000000 0.000000
vn 1.000000 0.000000 0.000000
vn 1.000000 0.000000 0.000000
vn 0.000000 0.000000 1.000000
vn 0.000000 0.000000 1.000000
vn 0.000000 0.000000 1.000000
vn 0.000000 0.000000 1.000000
vn 0.000000 1.000000 0.000000
vn 0.000000 1.000000 0.000000
vn 0.000000 1.000000 0.000000
vn 0.000000 1.000000 0.000000
vn 0.000000 -1.000000 0.000000
vn 0.000000 -1.000000 0.000000
vn 0.000000 -1.000000 0.000000
vn 0.000000 1.000000 0.000000
vn 0.000000 1.000000 0.000000
vn 0.000000 1.000000 0.000000
vn 0.000000 1.000000 0.000000
vn 0.000000 1.000000 0.000000
vn 0.000000 1.000000 0.000000
vn 0.000000 1.000000 0.000000
vn 0.000000 1.000000 0.000000
vn 0.000000 1.000000 0.000000
vn 0.000000 1.000000 0.000000
vn 0.000000 1.000000 0.000000
vn 0.000000 1.000000 0.000000
vn 0.000000 1.000000 0.000000
vn 0.000000 1.000000 0.000000
vn 0.000000 1.000000 0.000000
vn 0.000000 1.000000 0.000000
vn 0.000000 1.000000 0.000000
vn 0.000000 -1.000000 0.000000
vn 0.000000 -1.000000 0.000000
vn 0.000000 -1.000000 0.000000
vn 0.000000 -1.000000 0.000000
vn 0.000000 -1.000000 0.000000
vn 0.000000 -1.000000 0.000000
vn 0.000000 -1.000000 0.000000
vn 0.000000 -1.000000 0.000000
vn 0.000000 -1.000000 0.000000
vn 0.000000 -1.000000 0.000000
vn 0.000000 -1.000000 0.000000
vn 0.000000 -1.000000 0.000000
vn 0.000000 -1.000000 0.000000
vn 0.000000 -1.000000 0.000000
vn 0.000000 -1.000000 0.000000
vn 0.000000 -1.000000 0.000000
vn 0.000000 -1.000000 0.000000
vn 0.000000 -1.000000 0.000000
g k
f 1/25/1 22/26/2 4/27/3
f 4/28/3 22/22/2 5/29/4
f 5/30/5 3/31/6 4/32/7
f 4/33/7 3/34/6 2/35/8
f 3/36/9 7/37/10 2/38/11
f 2/39/11 7/40/10 6/41/12
f 9/42/13 8/43/14 7/44/15
f 7/45/15 8/46/14 6/47/16
f 9/48/17 11/49/18 8/50/19
f 8/51/19 11/52/18 10/53/20
f 10/54/21 11/55/22 12/56/23
f 12/57/23 11/58/22 13/59/24
f 12/60/25 13/61/26 14/62/27
f 14/63/27 13/64/26 15/65/28
f 17/66/29 16/67/30 19/68/31
f 19/69/31 16/70/30 18/71/32
f 14/72/33 15/73/34 18/74/35
f 18/75/35 15/76/34 19/77/36
f 21/78/37 20/79/38 17/80/39
f 17/81/39 20/82/38 16/83/40
f 21/84/41 22/85/42 20/86/43
f 20/87/43 22/88/42 1/23/44
f 17/89/45 7/90/46 22/91/47
f 22/92/47 7/93/46 5/94/48
f 16/95/49 6/96/50 12/97/51
f 17/98/52 22/24/53 21/21/54
f 17/99/55 19/100/56 13/101/57
f 13/102/57 19/19/56 15/15/58
f 9/9/59 7/103/60 11/104/61
f 11/11/61 7/105/60 13/106/62
f 5/5/63 7/107/64 3/3/65
f 13/13/66 7/7/67 17/17/68
f 4/108/69 2/2/70 6/109/71
f 12/110/72 6/111/73 10/112/74
f 10/10/74 6/113/73 8/8/75
f 16/114/76 12/115/77 18/116/78
f 18/18/78 12/12/77 14/14/79
f 1/117/80 16/118/81 20/20/82
f 4/4/83 6/119/84 1/120/85
f 1/1/85 6/6/84 16/16/86
