# This file uses centimeters as units for non-parametric coordinates.

v -1.500000 -0.500000 -3.000000
v 1.500000 -0.500000 2.000000
v 1.500000 0.500000 2.000000
v -1.500000 -0.500000 3.000000
v -1.500000 0.500000 3.000000
v 1.500000 -0.500000 3.000000
v 1.500000 0.500000 3.000000
v -0.500000 -0.500000 2.000000
v -0.500000 0.500000 2.000000
v -0.500000 -0.500000 -3.000000
v -0.500000 0.500000 -3.000000
v -1.500000 0.500000 -3.000000
vt 0.091276 0.965604
vt 0.213868 0.970295
vt 0.210487 0.966914
vt 0.210487 0.966914
vt 0.210487 0.966914
vt 0.210487 0.966914
vt 0.210487 0.966914
vt 0.210487 0.966914
vt 0.213868 0.966914
vt 0.213868 0.970295
vt 0.213868 0.970295
vt 0.210487 0.966914
vt 0.213868 0.966914
vt 0.091276 0.965604
vt 0.091276 0.965604
vt 0.094656 0.965604
vt 0.094656 0.968985
vt 0.091276 0.965604
vt 0.094656 0.965604
vt 0.094656 0.968985
vt 0.094656 0.965604
vt 0.094656 0.968985
vt 0.091276 0.965604
vt 0.094656 0.965604
vt 0.094656 0.968985
vt 0.091276 0.965604
vt 0.094656 0.965604
vt 0.094656 0.968985
vt 0.091276 0.965604
vt 0.094656 0.965604
vt 0.094656 0.968985
vt 0.091276 0.965604
vt 0.094656 0.965604
vt 0.094656 0.968985
vt 0.091276 0.965604
vt 0.094656 0.965604
vt 0.094656 0.968985
vt 0.091276 0.965604
vt 0.094656 0.965604
vt 0.094656 0.968985
vt 0.091276 0.965604
vt 0.094656 0.965604
vt 0.094656 0.968985
vt 0.091276 0.965604
vt 0.094656 0.965604
vt 0.094656 0.968985
vt 0.094656 0.965604
vt 0.094656 0.968985
vt 0.213868 0.966914
vt 0.213868 0.970295
vt 0.213868 0.966914
vt 0.213868 0.970295
vt 0.210487 0.966914
vt 0.213868 0.966914
vt 0.213868 0.970295
vt 0.213868 0.966914
vt 0.213868 0.966914
vt 0.213868 0.970295
vt 0.213868 0.966914
vt 0.213868 0.970295
vn 1.000000 0.000000 0.000000
vn 1.000000 0.000000 0.000000
vn 1.000000 0.000000 0.000000
vn 1.000000 0.000000 0.000000
vn -1.000000 0.000000 0.000000
vn -1.000000 0.000000 0.000000
vn -1.000000 0.000000 0.000000
vn -1.000000 0.000000 0.000000
vn 0.000000 0.000000 1.000000
vn 0.000000 0.000000 1.000000
vn 0.000000 0.000000 1.000000
vn 0.000000 0.000000 1.000000
vn 0.000000 0.000000 -1.000000
vn 0.000000 0.000000 -1.000000
vn 0.000000 0.000000 -1.000000
vn 0.000000 0.000000 -1.000000
vn 1.000000 0.000000 0.000000
vn 1.000000 0.000000 0.000000
vn 1.000000 0.000000 0.000000
vn 1.000000 0.000000 0.000000
vn 0.000000 0.000000 -1.000000
vn 0.000000 0.000000 -1.000000
vn 0.000000 0.000000 -1.000000
vn 0.000000 0.000000 -1.000000
vn 0.000000 1.000000 0.000000
vn 0.000000 1.000000 0.000000
vn 0.000000 1.000000 0.000000
vn 0.000000 1.000000 0.000000
vn 0.000000 -1.000000 0.000000
vn 0.000000 -1.000000 0.000000
vn 0.000000 -1.000000 0.000000
vn 0.000000 -1.000000 0.000000
vn 0.000000 1.000000 0.000000
vn 0.000000 1.000000 0.000000
vn 0.000000 1.000000 0.000000
vn 0.000000 1.000000 0.000000
vn 0.000000 -1.000000 0.000000
vn 0.000000 -1.000000 0.000000
vn 0.000000 -1.000000 0.000000
vn 0.000000 -1.000000 0.000000
g l
f 3/15/1 7/16/2 2/17/3
f 2/18/3 7/19/2 6/20/4
f 1/1/5 4/21/6 12/22/7
f 12/23/7 4/24/6 5/25/8
f 4/26/9 6/27/10 5/28/11
f 5/29/11 6/30/10 7/31/12
f 9/32/13 3/33/14 8/34/15
f 8/35/15 3/36/14 2/37/16
f 11/38/17 9/39/18 10/40/19
f 10/41/19 9/42/18 8/43/20
f 11/44/21 10/45/22 12/46/23
f 12/14/23 10/47/22 1/48/24
f 3/3/25 9/49/26 7/50/27
f 7/7/27 9/51/26 5/52/28
f 4/53/29 8/54/30 6/55/31
f 6/6/31 8/56/30 2/2/32
f 5/5/33 9/57/34 12/58/35
f 12/12/35 9/9/34 11/11/36
f 4/4/37 1/59/38 8/60/39
f 8/8/39 1/13/38 10/10/40
