# This file uses centimeters as units for non-parametric coordinates.

v -1.500000 -0.500000 3.000000
v -1.500000 -0.500000 -3.000000
v -1.500000 0.500000 -3.000000
v -0.500000 -0.500000 -3.000000
v -0.500000 0.500000 -3.000000
v 0.500000 -0.500000 -3.000000
v 0.500000 0.500000 -3.000000
v 0.009441 -0.500000 -1.000000
v 0.009441 0.500000 -1.000000
v 1.500000 -0.500000 -3.000000
v 1.500000 0.500000 -3.000000
v 0.500000 -0.500000 1.000000
v 0.500000 0.500000 1.000000
v 0.500000 -0.500000 3.000000
v 0.500000 0.500000 3.000000
v 1.500000 -0.500000 3.000000
v 1.500000 0.500000 3.000000
v -0.500000 -0.500000 1.000000
v -0.500000 0.500000 1.000000
v 0.009441 -0.500000 2.063130
v 0.009441 0.500000 2.063130
v -0.500000 -0.500000 3.000000
v -0.500000 0.500000 3.000000
v -1.500000 0.500000 3.000000
vt 0.083416 0.968224
vt 0.209177 0.972154
vt 0.209177 0.972154
vt 0.209177 0.972154
vt 0.212557 0.975535
vt 0.212557 0.975535
vt 0.209177 0.972154
vt 0.209177 0.972154
vt 0.209177 0.972154
vt 0.209177 0.972154
vt 0.209177 0.972154
vt 0.212557 0.972154
vt 0.212557 0.972154
vt 0.212557 0.975535
vt 0.212557 0.975535
vt 0.212557 0.972154
vt 0.209177 0.972154
vt 0.212557 0.972154
vt 0.212557 0.972154
vt 0.212557 0.975535
vt 0.212557 0.975535
vt 0.212557 0.975535
vt 0.212557 0.975535
vt 0.212557 0.972154
vt 0.209177 0.972154
vt 0.086796 0.968224
vt 0.086796 0.968224
vt 0.086796 0.971605
vt 0.083416 0.968224
vt 0.086796 0.968224
vt 0.086796 0.971605
vt 0.083416 0.968224
vt 0.086796 0.968224
vt 0.086796 0.971605
vt 0.083416 0.968224
vt 0.086796 0.968224
vt 0.086796 0.971605
vt 0.083416 0.968224
vt 0.086796 0.968224
vt 0.086796 0.971605
vt 0.083416 0.968224
vt 0.086796 0.968224
vt 0.086796 0.971605
vt 0.083416 0.968224
vt 0.086796 0.968224
vt 0.086796 0.971605
vt 0.083416 0.968224
vt 0.086796 0.968224
vt 0.086796 0.971605
vt 0.083416 0.968224
vt 0.086796 0.968224
vt 0.086796 0.971605
vt 0.083416 0.968224
vt 0.086796 0.968224
vt 0.086796 0.971605
vt 0.083416 0.968224
vt 0.086796 0.968224
vt 0.086796 0.971605
vt 0.083416 0.968224
vt 0.086796 0.968224
vt 0.086796 0.971605
vt 0.083416 0.968224
vt 0.086796 0.968224
vt 0.086796 0.971605
vt 0.083416 0.968224
vt 0.086796 0.968224
vt 0.086796 0.971605
vt 0.083416 0.968224
vt 0.086796 0.968224
vt 0.086796 0.971605
vt 0.083416 0.968224
vt 0.086796 0.968224
vt 0.086796 0.971605
vt 0.083416 0.968224
vt 0.086796 0.968224
vt 0.086796 0.971605
vt 0.083416 0.968224
vt 0.086796 0.968224
vt 0.086796 0.971605
vt 0.083416 0.968224
vt 0.086796 0.968224
vt 0.086796 0.971605
vt 0.083416 0.968224
vt 0.086796 0.968224
vt 0.086796 0.971605
vt 0.083416 0.968224
vt 0.086796 0.968224
vt 0.086796 0.971605
vt 0.083416 0.968224
vt 0.086796 0.968224
vt 0.086796 0.971605
vt 0.083416 0.968224
vt 0.086796 0.968224
vt 0.086796 0.971605
vt 0.083416 0.968224
vt 0.086796 0.971605
vt 0.212557 0.972154
vt 0.212557 0.975535
vt 0.209177 0.972154
vt 0.212557 0.972154
vt 0.212557 0.975535
vt 0.212557 0.972154
vt 0.212557 0.975535
vt 0.209177 0.972154
vt 0.212557 0.972154
vt 0.212557 0.975535
vt 0.209177 0.972154
vt 0.212557 0.972154
vt 0.212557 0.975535
vt 0.209177 0.972154
vt 0.209177 0.972154
vt 0.212557 0.972154
vt 0.212557 0.975535
vt 0.212557 0.972154
vt 0.212557 0.972154
vt 0.212557 0.975535
vt 0.209177 0.972154
vt 0.212557 0.972154
vt 0.212557 0.975535
vt 0.209177 0.972154
vt 0.212557 0.972154
vt 0.212557 0.975535
vt 0.209177 0.972154
vt 0.209177 0.972154
vt 0.212557 0.972154
vt 0.212557 0.975535
vt 0.212557 0.972154
vt 0.212557 0.972154
vt 0.212557 0.975535
vt 0.209177 0.972154
vt 0.212557 0.972154
vt 0.212557 0.975535
vn -1.000000 0.000000 0.000000
vn -1.000000 0.000000 0.000000
vn -1.000000 0.000000 0.000000
vn -1.000000 0.000000 0.000000
vn 0.000000 0.000000 -1.000000
vn 0.000000 0.000000 -1.000000
vn 0.000000 0.000000 -1.000000
vn 0.000000 0.000000 -1.000000
vn -0.971212 0.000000 -0.238218
vn -0.971212 0.000000 -0.238218
vn -0.971212 0.000000 -0.238218
vn -0.971212 0.000000 -0.238218
vn 0.969057 0.000000 -0.246839
vn 0.969057 0.000000 -0.246839
vn 0.969057 0.000000 -0.246839
vn 0.969057 0.000000 -0.246839
vn 0.000000 0.000000 -1.000000
vn 0.000000 0.000000 -1.000000
vn 0.000000 0.000000 -1.000000
vn 0.000000 0.000000 -1.000000
vn 0.000000 0.000000 1.000000
vn 0.000000 0.000000 1.000000
vn 0.000000 0.000000 1.000000
vn 0.000000 0.000000 1.000000
vn 1.000000 0.000000 0.000000
vn 1.000000 0.000000 0.000000
vn 1.000000 0.000000 0.000000
vn 1.000000 0.000000 0.000000
vn -1.000000 0.000000 0.000000
vn -1.000000 0.000000 0.000000
vn -1.000000 0.000000 0.000000
vn -1.000000 0.000000 0.000000
vn -0.901808 0.000000 0.432137
vn -0.901808 0.000000 0.432137
vn -0.901808 0.000000 0.432137
vn -0.901808 0.000000 0.432137
vn 0.907997 0.000000 0.418976
vn 0.907997 0.000000 0.418976
vn 0.907997 0.000000 0.418976
vn 0.907997 0.000000 0.418976
vn 1.000000 0.000000 0.000000
vn 1.000000 0.000000 0.000000
vn 1.000000 0.000000 0.000000
vn 1.000000 0.000000 0.000000
vn 0.000000 0.000000 1.000000
vn 0.000000 0.000000 1.000000
vn 0.000000 0.000000 1.000000
vn 0.000000 0.000000 1.000000
vn 0.000000 1.000000 0.000000
vn 0.000000 1.000000 0.000000
vn 0.000000 1.000000 0.000000
vn 0.000000 1.000000 0.000000
vn 0.000000 -1.000000 0.000000
vn 0.000000 -1.000000 0.000000
vn 0.000000 -1.000000 0.000000
vn 0.000000 -1.000000 0.000000
vn 0.000000 1.000000 0.000000
vn 0.000000 1.000000 0.000000
vn 0.000000 1.000000 0.000000
vn 0.000000 1.000000 0.000000
vn 0.000000 1.000000 0.000000
vn 0.000000 1.000000 0.000000
vn 0.000000 1.000000 0.000000
vn 0.000000 1.000000 0.000000
vn 0.000000 1.000000 0.000000
vn 0.000000 1.000000 0.000000
vn 0.000000 1.000000 0.000000
vn 0.000000 1.000000 0.000000
vn 0.000000 1.000000 0.000000
vn 0.000000 1.000000 0.000000
vn 0.000000 1.000000 0.000000
vn 0.000000 1.000000 0.000000
vn 0.000000 -1.000000 0.000000
vn 0.000000 -1.000000 0.000000
vn 0.000000 -1.000000 0.000000
vn 0.000000 -1.000000 0.000000
vn 0.000000 -1.000000 0.000000
vn 0.000000 -1.000000 0.000000
vn 0.000000 -1.000000 0.000000
vn 0.000000 -1.000000 0.000000
vn 0.000000 -1.000000 0.000000
vn 0.000000 -1.000000 0.000000
vn 0.000000 -1.000000 0.000000
vn 0.000000 -1.000000 0.000000
vn 0.000000 -1.000000 0.000000
vn 0.000000 -1.000000 0.000000
vn 0.000000 -1.000000 0.000000
vn 0.000000 -1.000000 0.000000
g m
f 1/1/1 24/27/2 2/28/3
f 2/29/3 24/30/2 3/31/4
f 2/32/5 3/33/6 4/34/7
f 4/35/7 3/36/6 5/37/8
f 7/38/9 6/39/10 9/40/11
f 9/41/11 6/42/10 8/43/12
f 4/44/13 5/45/14 8/46/15
f 8/47/15 5/48/14 9/49/16
f 6/50/17 7/51/18 10/52/19
f 10/53/19 7/54/18 11/55/20
f 15/56/21 14/57/22 17/58/23
f 17/59/23 14/60/22 16/61/24
f 10/62/25 11/63/26 16/64/27
f 16/65/27 11/66/26 17/67/28
f 15/68/29 13/69/30 14/70/31
f 14/71/31 13/72/30 12/73/32
f 19/74/33 18/75/34 21/76/35
f 21/77/35 18/78/34 20/79/36
f 13/80/37 21/81/38 12/82/39
f 12/83/39 21/84/38 20/85/40
f 23/86/41 22/87/42 19/88/43
f 19/89/43 22/90/42 18/91/44
f 23/92/45 24/93/46 22/94/47
f 22/95/47 24/26/46 1/96/48
f 7/7/49 9/97/50 11/98/51
f 11/99/51 9/100/50 13/101/52
f 4/4/53 8/102/54 2/103/55
f 2/104/55 8/105/54 18/106/56
f 3/107/57 24/108/58 19/109/59
f 19/110/59 24/24/58 23/23/60
f 19/111/61 9/112/62 3/113/63
f 3/3/63 9/114/62 5/5/64
f 9/9/65 19/115/66 13/116/67
f 13/117/67 19/19/66 21/21/68
f 11/11/69 13/118/70 17/119/71
f 17/17/71 13/13/70 15/15/72
f 10/120/73 16/121/74 12/122/75
f 12/123/75 16/16/74 14/14/76
f 12/124/77 8/125/78 10/126/79
f 10/10/79 8/127/78 6/6/80
f 8/8/81 12/128/82 18/129/83
f 18/130/83 12/12/82 20/20/84
f 2/2/85 18/131/86 1/132/87
f 1/25/87 18/18/86 22/22/88
