# This file uses centimeters as units for non-parametric coordinates.

v 1.000000 -0.500000 -3.000000
v 0.000000 -0.500000 -3.000000
v 0.000000 0.500000 -3.000000
v -1.000000 -0.500000 -2.000000
v -1.000000 0.500000 -2.000000
v -1.000000 -0.500000 2.000000
v -1.000000 0.500000 2.000000
v -0.004307 -0.500000 2.995694
v -0.004307 0.500000 2.995694
v 1.000000 -0.500000 2.000000
v 1.000000 0.500000 2.000000
v 1.000000 -0.500000 3.000000
v 1.000000 0.500000 3.000000
v 0.000000 -0.500000 1.000000
v 0.000000 0.500000 1.000000
v 0.000000 -0.500000 -1.000000
v 0.000000 0.500000 -1.000000
v 1.000000 -0.500000 -2.000000
v 1.000000 0.500000 -2.000000
v 1.000000 0.500000 -3.000000
vt 0.082297 0.957385
vt 0.202818 0.957385
vt 0.226017 0.980584
vt 0.202818 0.957385
vt 0.202818 0.957385
vt 0.202818 0.957385
vt 0.202818 0.957385
vt 0.226017 0.980584
vt 0.202818 0.957385
vt 0.202818 0.957385
vt 0.202818 0.957385
vt 0.226017 0.957385
vt 0.202818 0.957385
vt 0.202818 0.957385
vt 0.202818 0.957385
vt 0.202818 0.957385
vt 0.202818 0.957385
vt 0.202818 0.957385
vt 0.202818 0.957385
vt 0.226017 0.957385
vt 0.202818 0.957385
vt 0.105496 0.980584
vt 0.082297 0.957385
vt 0.105496 0.957385
vt 0.105496 0.980584
vt 0.082297 0.957385
vt 0.105496 0.957385
vt 0.105496 0.980584
vt 0.082297 0.957385
vt 0.082297 0.957385
vt 0.105496 0.957385
vt 0.105496 0.980584
vt 0.082297 0.957385
vt 0.082297 0.957385
vt 0.105496 0.957385
vt 0.105496 0.980584
vt 0.082297 0.957385
vt 0.082297 0.957385
vt 0.105496 0.957385
vt 0.105496 0.980584
vt 0.082297 0.957385
vt 0.082297 0.957385
vt 0.105496 0.957385
vt 0.105496 0.980584
vt 0.082297 0.957385
vt 0.082297 0.957385
vt 0.105496 0.957385
vt 0.105496 0.980584
vt 0.082297 0.957385
vt 0.082297 0.957385
vt 0.105496 0.957385
vt 0.105496 0.980584
vt 0.082297 0.957385
vt 0.082297 0.957385
vt 0.105496 0.957385
vt 0.105496 0.980584
vt 0.082297 0.957385
vt 0.082297 0.957385
vt 0.105496 0.957385
vt 0.082297 0.957385
vt 0.105496 0.957385
vt 0.105496 0.980584
vt 0.105496 0.957385
vt 0.105496 0.980584
vt 0.105496 0.957385
vt 0.105496 0.980584
vt 0.105496 0.957385
vt 0.105496 0.980584
vt 0.105496 0.957385
vt 0.105496 0.980584
vt 0.105496 0.957385
vt 0.105496 0.980584
vt 0.105496 0.957385
vt 0.105496 0.980584
vt 0.105496 0.957385
vt 0.105496 0.980584
vt 0.105496 0.957385
vt 0.105496 0.980584
vt 0.105496 0.957385
vt 0.105496 0.980584
vt 0.226017 0.957385
vt 0.226017 0.980584
vt 0.226017 0.957385
vt 0.226017 0.980584
vt 0.226017 0.957385
vt 0.226017 0.980584
vt 0.226017 0.957385
vt 0.226017 0.980584
vt 0.226017 0.957385
vt 0.226017 0.980584
vt 0.226017 0.957385
vt 0.226017 0.980584
vt 0.226017 0.957385
vt 0.226017 0.980584
vt 0.226017 0.957385
vt 0.226017 0.980584
vt 0.226017 0.957385
vt 0.226017 0.980584
vt 0.226017 0.957385
vt 0.226017 0.980584
vt 0.226017 0.957385
vt 0.226017 0.980584
vt 0.226017 0.957385
vt 0.226017 0.980584
vt 0.226017 0.957385
vt 0.226017 0.980584
vt 0.226017 0.957385
vt 0.226017 0.980584
vn -0.707107 0.000000 -0.707107
vn -0.707107 0.000000 -0.707107
vn -0.707107 0.000000 -0.707107
vn -0.707107 0.000000 -0.707107
vn 0.000000 0.000000 -1.000000
vn 0.000000 0.000000 -1.000000
vn 0.000000 0.000000 -1.000000
vn 0.000000 0.000000 -1.000000
vn -1.000000 0.000000 0.000000
vn -1.000000 0.000000 0.000000
vn -1.000000 0.000000 0.000000
vn -1.000000 0.000000 0.000000
vn -0.707107 0.000000 0.707106
vn -0.707107 0.000000 0.707106
vn -0.707107 0.000000 0.707106
vn -0.707107 0.000000 0.707106
vn -0.004287 0.000000 0.999991
vn -0.004287 0.000000 0.999991
vn -0.004287 0.000000 0.999991
vn -0.004287 0.000000 0.999991
vn 1.000000 0.000000 0.000000
vn 1.000000 0.000000 0.000000
vn 1.000000 0.000000 0.000000
vn 1.000000 0.000000 0.000000
vn 0.707107 0.000000 -0.707107
vn 0.707107 0.000000 -0.707107
vn 0.707107 0.000000 -0.707107
vn 0.707107 0.000000 -0.707107
vn 1.000000 0.000000 0.000000
vn 1.000000 0.000000 0.000000
vn 1.000000 0.000000 0.000000
vn 1.000000 0.000000 0.000000
vn 0.707107 0.000000 0.707107
vn 0.707107 0.000000 0.707107
vn 0.707107 0.000000 0.707107
vn 0.707107 0.000000 0.707107
vn 1.000000 0.000000 0.000000
vn 1.000000 0.000000 0.000000
vn 1.000000 0.000000 0.000000
vn 1.000000 0.000000 0.000000
vn 0.000000 1.000000 0.000000
vn 0.000000 1.000000 0.000000
vn 0.000000 1.000000 0.000000
vn 0.000000 1.000000 0.000000
vn 0.000000 1.000000 0.000000
vn 0.000000 1.000000 0.000000
vn 0.000000 1.000000 0.000000
vn 0.000000 1.000000 0.000000
vn 0.000000 1.000000 0.000000
vn 0.000000 1.000000 0.000000
vn 0.000000 -1.000000 0.000000
vn 0.000000 -1.000000 0.000000
vn 0.000000 -1.000000 0.000000
vn 0.000000 -1.000000 0.000000
vn 0.000000 -1.000000 0.000000
vn 0.000000 -1.000000 0.000000
vn 0.000000 -1.000000 0.000000
vn 0.000000 -1.000000 0.000000
vn 0.000000 -1.000000 0.000000
vn 0.000000 -1.000000 0.000000
g oparentisis
f 5/23/1 3/61/2 4/62/3
f 4/26/3 3/24/2 2/25/4
f 1/1/5 2/63/6 20/64/7
f 20/29/7 2/27/6 3/28/8
f 4/30/9 6/65/10 5/66/11
f 5/33/11 6/31/10 7/32/12
f 7/34/13 6/67/14 9/68/15
f 9/37/15 6/35/14 8/36/16
f 13/38/17 9/69/18 12/70/19
f 12/41/19 9/39/18 8/40/20
f 13/42/21 12/71/22 11/72/23
f 11/45/23 12/43/22 10/44/24
f 10/46/25 14/73/26 11/74/27
f 11/49/27 14/47/26 15/48/28
f 14/50/29 16/75/30 15/76/31
f 15/53/31 16/51/30 17/52/32
f 16/54/33 18/77/34 17/78/35
f 17/57/35 18/55/34 19/56/36
f 18/58/37 1/79/38 19/80/39
f 19/60/39 1/59/38 20/22/40
f 13/13/41 11/81/42 9/82/43
f 11/11/42 15/83/44 9/84/43
f 9/9/43 15/85/44 7/86/45
f 7/7/45 15/87/44 5/88/46
f 15/15/44 17/89/47 5/90/46
f 5/5/46 17/91/47 3/92/48
f 17/17/47 19/93/49 3/94/48
f 19/19/49 20/20/50 3/3/48
f 1/21/51 18/95/52 2/96/53
f 2/2/53 18/97/52 4/98/54
f 18/18/52 16/99/55 4/100/54
f 4/4/54 16/101/55 6/102/56
f 16/16/55 14/103/57 6/104/56
f 6/6/56 14/105/57 8/106/58
f 14/14/57 10/107/59 8/108/58
f 10/10/59 12/12/60 8/8/58
