# This file uses centimeters as units for non-parametric coordinates.

v 10.552341 -0.130454 3.845404
v 10.664084 -0.323920 3.845404
v 8.831567 -1.182242 3.845404
v 9.329371 -2.870989 3.845404
v 7.585225 -3.496809 3.845404
v 7.229224 0.123369 3.845404
v 6.220191 -0.292052 3.845404
v 6.368670 -4.654097 3.845404
v 3.846351 -4.654097 3.845404
v 4.261773 -1.953742 3.845404
v 2.303355 -1.567954 3.845404
v 2.125241 -5.840941 3.845404
v -0.397001 -5.692614 3.845404
v -0.011214 -0.321688 3.845404
v -1.168498 0.182718 3.845404
v -1.984525 -0.633311 3.845404
v -2.533456 -5.336615 3.845404
v -3.957835 -5.010096 3.845404
v -3.394010 -2.903277 3.845404
v -5.263523 -2.903277 3.845404
v -5.263523 -4.535330 3.845404
v -6.836230 -3.526522 3.845404
v -6.242694 -1.033843 3.845404
v -8.052783 -0.232634 3.845404
v -8.052783 -2.428431 3.845404
v -9.963646 -1.241919 3.845404
v -10.066298 -1.052268 3.845404
v -8.170054 -2.207716 3.845404
v -8.172345 -0.016730 3.845404
v -5.994072 -0.937804 3.845404
v -6.614003 -3.452410 3.845404
v -5.407143 -4.297583 3.845404
v -5.383008 -2.687296 3.845404
v -3.114536 -2.687979 3.845404
v -3.774140 -4.885111 3.845404
v -2.707722 -5.108752 3.845404
v -2.092905 -0.424208 3.845404
v -1.287448 0.403657 3.845404
v 0.256643 -0.185933 3.845404
v -0.290671 -5.543898 3.845404
v 2.003313 -5.619845 3.845404
v 2.183795 -1.351973 3.845404
v 4.436399 -1.825284 3.845404
v 4.086321 -4.482777 3.845404
v 6.249032 -4.436362 3.845404
v 6.100707 -0.076079 3.845404
v 7.352056 0.323261 3.845404
v 7.753371 -3.307179 3.845404
v 9.088055 -2.738359 3.845404
v 8.500067 -1.011292 3.845404
vt 0.009444 0.990556
vt 0.090556 0.990556
vt 0.090556 0.909444
vt 0.009444 0.909444
vt 0.009444 0.909444
vt 0.090556 0.909444
vt 0.090556 0.909444
vt 0.009444 0.909444
vt 0.090556 0.909444
vt 0.009444 0.909444
vt 0.090556 0.909444
vt 0.009444 0.909444
vt 0.090556 0.909444
vt 0.009444 0.909444
vt 0.090556 0.909444
vt 0.009444 0.909444
vt 0.090556 0.909444
vt 0.009444 0.909444
vt 0.090556 0.909444
vt 0.009444 0.909444
vt 0.090556 0.909444
vt 0.009444 0.909444
vt 0.090556 0.909444
vt 0.009444 0.909444
vt 0.090556 0.909444
vt 0.009444 0.909444
vt 0.009444 0.990556
vt 0.090556 0.990556
vt 0.090556 0.909444
vt 0.009444 0.909444
vt 0.090556 0.909444
vt 0.009444 0.909444
vt 0.090556 0.909444
vt 0.009444 0.909444
vt 0.090556 0.909444
vt 0.009444 0.909444
vt 0.009444 0.990556
vt 0.090556 0.990556
vt 0.090556 0.909444
vt 0.009444 0.909444
vt 0.090556 0.909444
vt 0.009444 0.909444
vt 0.090556 0.909444
vt 0.009444 0.909444
vt 0.009444 0.990556
vt 0.090556 0.990556
vt 0.090556 0.990556
vt 0.009444 0.990556
vt 0.090556 0.909444
vt 0.009444 0.909444
vt 0.009444 0.909444
vt 0.090556 0.909444
vt 0.090556 0.990556
vt 0.009444 0.990556
vt 0.090556 0.990556
vt 0.009444 0.990556
vt 0.090556 0.990556
vt 0.009444 0.990556
vt 0.090556 0.990556
vt 0.009444 0.990556
vt 0.090556 0.990556
vt 0.009444 0.990556
vt 0.090556 0.990556
vt 0.009444 0.990556
vt 0.090556 0.990556
vt 0.009444 0.990556
vt 0.090556 0.990556
vt 0.009444 0.990556
vt 0.090556 0.990556
vt 0.009444 0.990556
vt 0.090556 0.990556
vt 0.009444 0.990556
vt 0.090556 0.990556
vt 0.009444 0.990556
vt 0.009444 0.909444
vt 0.090556 0.909444
vt 0.090556 0.990556
vt 0.009444 0.990556
vt 0.090556 0.990556
vt 0.009444 0.990556
vt 0.090556 0.990556
vt 0.009444 0.990556
vt 0.090556 0.990556
vt 0.009444 0.990556
vt 0.009444 0.909444
vt 0.090556 0.909444
vt 0.090556 0.990556
vt 0.009444 0.990556
vt 0.090556 0.990556
vt 0.009444 0.990556
vt 0.090556 0.990556
vt 0.009444 0.990556
vt 0.009444 0.909444
vt 0.090556 0.909444
vt 0.090556 0.990556
vt 0.009444 0.990556
vn 0.000000 0.000000 1.000000
vn 0.000000 0.000000 1.000000
vn 0.000003 0.000000 1.000000
vn 0.000003 0.000000 1.000000
vn 0.000001 0.000000 1.000000
vn 0.000001 0.000000 1.000000
vn 0.000000 0.000000 1.000000
vn 0.000000 0.000000 1.000000
vn -0.000001 0.000000 1.000000
vn -0.000000 0.000000 1.000000
vn -0.000000 0.000000 1.000000
vn 0.000000 0.000000 1.000000
vn 0.000001 0.000000 1.000000
vn 0.000001 0.000000 1.000000
vn 0.000001 0.000000 1.000000
vn 0.000001 0.000000 1.000000
vn 0.000000 0.000000 1.000000
vn -0.000000 0.000000 1.000000
vn -0.000004 0.000000 1.000000
vn -0.000004 0.000000 1.000000
vn 0.000001 0.000000 1.000000
vn 0.000000 0.000000 1.000000
vn 0.000001 0.000000 1.000000
vn 0.000000 0.000000 1.000000
vn -0.000002 0.000000 1.000000
vn 0.000004 0.000000 1.000000
vn -0.000002 0.000000 1.000000
vn 0.000004 0.000000 1.000000
vn -0.000000 0.000000 1.000000
vn -0.000000 0.000000 1.000000
vn -0.000000 0.000000 1.000000
vn 0.000000 0.000000 1.000000
vn 0.000003 0.000000 1.000000
vn 0.000003 0.000000 1.000000
vn -0.000004 0.000000 1.000000
vn -0.000005 0.000000 1.000000
vn 0.000000 0.000000 1.000000
vn 0.000000 0.000000 1.000000
vn 0.000000 0.000000 1.000000
vn 0.000000 0.000000 1.000000
vn -0.000001 0.000000 1.000000
vn -0.000003 0.000000 1.000000
vn -0.000001 0.000000 1.000000
vn -0.000003 0.000000 1.000000
vn 0.000000 0.000000 1.000000
vn 0.000000 0.000000 1.000000
vn 0.000000 0.000000 1.000000
vn 0.000000 0.000000 1.000000
vn 0.000000 0.000000 1.000000
vn -0.000000 0.000000 1.000000
vn -0.000002 0.000000 1.000000
vn -0.000002 0.000000 1.000000
vn 0.000000 0.000000 1.000000
vn 0.000000 0.000000 1.000000
vn 0.000000 0.000000 1.000000
vn 0.000000 0.000000 1.000000
vn 0.000000 0.000000 1.000000
vn 0.000000 0.000000 1.000000
vn 0.000000 0.000000 1.000000
vn 0.000000 0.000000 1.000000
vn 0.000002 0.000000 1.000000
vn 0.000000 0.000000 1.000000
vn 0.000002 0.000000 1.000000
vn 0.000000 0.000000 1.000000
vn 0.000000 0.000000 1.000000
vn 0.000000 0.000000 1.000000
vn 0.000000 0.000000 1.000000
vn 0.000000 0.000000 1.000000
vn 0.000000 0.000000 1.000000
vn 0.000000 0.000000 1.000000
vn 0.000003 0.000000 1.000000
vn 0.000003 0.000000 1.000000
vn 0.000000 0.000000 1.000000
vn 0.000000 0.000000 1.000000
vn 0.000000 0.000000 1.000000
vn 0.000000 0.000000 1.000000
vn -0.000004 0.000000 1.000000
vn 0.000004 0.000000 1.000000
vn -0.000003 0.000000 1.000000
vn 0.000004 0.000000 1.000000
vn 0.000002 0.000000 1.000000
vn 0.000002 0.000000 1.000000
vn 0.000000 0.000000 1.000000
vn 0.000000 0.000000 1.000000
vn 0.000000 0.000000 1.000000
vn 0.000000 0.000000 1.000000
vn 0.000000 0.000000 1.000000
vn 0.000000 0.000000 1.000000
vn 0.000001 0.000000 1.000000
vn 0.000001 0.000000 1.000000
vn 0.000000 0.000000 1.000000
vn 0.000000 0.000000 1.000000
vn -0.000002 0.000000 1.000000
vn 0.000004 0.000000 1.000000
vn -0.000002 0.000000 1.000000
vn 0.000004 0.000000 1.000000
g outline
f 13/52/1 40/51/2 14/53/3
f 40/51/2 39/54/4 14/53/3
f 2/6/5 1/5/6 3/55/7
f 1/5/6 50/56/8 3/55/7
f 50/8/9 49/58/10 3/7/11
f 49/58/10 4/57/12 3/7/11
f 49/10/13 48/60/14 4/9/15
f 48/60/14 5/59/16 4/9/15
f 5/11/17 48/12/18 6/61/19
f 48/12/18 47/62/20 6/61/19
f 47/14/21 46/64/22 6/13/23
f 46/64/22 7/63/24 6/13/23
f 46/16/25 45/66/26 7/15/27
f 45/66/26 8/65/28 7/15/27
f 45/18/29 44/68/30 8/17/31
f 44/68/30 9/67/32 8/17/31
f 9/19/33 44/20/34 10/69/35
f 44/20/34 43/70/36 10/69/35
f 10/21/37 43/22/38 11/71/39
f 43/22/38 42/72/40 11/71/39
f 42/24/41 41/74/42 11/23/43
f 41/74/42 12/73/44 11/23/43
f 12/25/45 41/26/46 13/2/47
f 41/26/46 40/1/48 13/2/47
f 18/76/49 35/75/50 19/77/51
f 35/75/50 34/78/52 19/77/51
f 39/4/53 38/80/54 14/3/55
f 38/80/54 15/79/56 14/3/55
f 38/32/57 37/82/58 15/31/59
f 37/82/58 16/81/60 15/31/59
f 37/34/61 36/84/62 16/33/63
f 36/84/62 17/83/64 16/33/63
f 17/35/65 36/36/66 18/28/67
f 36/36/66 35/27/68 18/28/67
f 22/86/69 31/85/70 23/87/71
f 31/85/70 30/88/72 23/87/71
f 34/30/73 33/90/74 19/29/75
f 33/90/74 20/89/76 19/29/75
f 33/42/77 32/92/78 20/41/79
f 32/92/78 21/91/80 20/41/79
f 21/43/81 32/44/82 22/38/83
f 32/44/82 31/37/84 22/38/83
f 25/94/85 28/93/86 26/47/87
f 28/93/86 27/48/88 26/47/87
f 23/39/89 30/40/90 24/95/91
f 30/40/90 29/96/92 24/95/91
f 29/50/93 28/45/94 24/49/95
f 28/45/94 25/46/96 24/49/95
