# This file uses centimeters as units for non-parametric coordinates.

v -1.818644 9.142941 -1.963046
v -3.567399 8.612462 -1.963046
v -5.179060 7.751011 -1.963046
v -6.591693 6.591693 -1.963046
v -7.751012 5.179060 -1.963046
v -8.612462 3.567399 -1.963046
v -9.142941 1.818644 -1.963046
v -9.322062 0.000000 -1.963046
v -9.142941 -1.818644 -1.963046
v -8.612462 -3.567399 -1.963046
v -7.751012 -5.179060 -1.963046
v -6.591693 -6.591693 -1.963046
v -5.179060 -7.751011 -1.963046
v -3.567399 -8.612462 -1.963046
v -1.818644 -9.142941 -1.963046
v 0.000000 9.322062 -1.963046
v 0.000000 -9.322062 -1.963046
v -1.890810 9.505938 -1.963046
v -3.708556 8.953424 -1.963046
v -5.339233 7.990862 -1.963046
v -6.738766 6.738858 -1.963046
v -7.836203 5.236033 -1.963046
v -8.667677 3.590288 -1.963046
v -9.276143 1.845160 -1.963046
v -9.586848 0.000000 -1.963046
v -9.497145 -1.889136 -1.963046
v -8.947045 -3.706059 -1.963046
v -8.053391 -5.381207 -1.963046
v -6.850121 -6.850256 -1.963046
v -5.383121 -8.056569 -1.963046
v -3.708556 -8.953424 -1.963046
v -1.890810 -9.505938 -1.963046
v 0.000000 9.692542 -1.963046
v 0.000000 -9.692542 -1.963046
v 1.818644 -9.142941 -1.963046
v 3.567399 -8.612462 -1.963046
v 5.179060 -7.751011 -1.963046
v 6.591693 -6.591693 -1.963046
v 7.751012 -5.179060 -1.963046
v 8.612462 -3.567399 -1.963046
v 9.142941 -1.818644 -1.963046
v 9.322062 0.000000 -1.963046
v 9.142941 1.818644 -1.963046
v 8.612462 3.567399 -1.963046
v 7.751012 5.179060 -1.963046
v 6.591693 6.591693 -1.963046
v 5.179060 7.751011 -1.963046
v 3.567399 8.612462 -1.963046
v 1.818644 9.142941 -1.963046
v 1.890810 -9.505938 -1.963046
v 3.708556 -8.953424 -1.963046
v 5.339233 -7.990862 -1.963046
v 6.738766 -6.738858 -1.963046
v 7.836203 -5.236033 -1.963046
v 8.667677 -3.590288 -1.963046
v 9.276143 -1.845160 -1.963046
v 9.586848 0.000000 -1.963046
v 9.497145 1.889136 -1.963046
v 8.947045 3.706059 -1.963046
v 8.053391 5.381207 -1.963046
v 6.850121 6.850256 -1.963046
v 5.383121 8.056569 -1.963046
v 3.708556 8.953424 -1.963046
v 1.890810 9.505938 -1.963046
vt 0.071697 0.923991
vt 0.071697 0.923991
vt 0.035766 0.923991
vt 0.071697 0.959923
vt 0.071697 0.923991
vt 0.071697 0.959923
vt 0.071697 0.923991
vt 0.071697 0.959923
vt 0.071697 0.923991
vt 0.071697 0.959923
vt 0.071697 0.923991
vt 0.071697 0.959923
vt 0.071697 0.923991
vt 0.071697 0.959923
vt 0.071697 0.923991
vt 0.071697 0.959923
vt 0.071697 0.923991
vt 0.071697 0.959923
vt 0.071697 0.923991
vt 0.071697 0.959923
vt 0.071697 0.923991
vt 0.071697 0.959923
vt 0.071697 0.923991
vt 0.071697 0.959923
vt 0.071697 0.923991
vt 0.071697 0.959923
vt 0.071697 0.923991
vt 0.071697 0.959923
vt 0.071697 0.959923
vt 0.035766 0.959923
vt 0.071697 0.923991
vt 0.035766 0.923991
vt 0.035766 0.959923
vt 0.071697 0.959923
vt 0.071697 0.923991
vt 0.071697 0.923991
vt 0.035766 0.923991
vt 0.071697 0.959923
vt 0.071697 0.923991
vt 0.071697 0.959923
vt 0.071697 0.923991
vt 0.071697 0.959923
vt 0.071697 0.923991
vt 0.071697 0.959923
vt 0.071697 0.923991
vt 0.071697 0.959923
vt 0.071697 0.923991
vt 0.071697 0.959923
vt 0.071697 0.923991
vt 0.071697 0.959923
vt 0.071697 0.923991
vt 0.071697 0.959923
vt 0.071697 0.923991
vt 0.071697 0.959923
vt 0.071697 0.923991
vt 0.071697 0.959923
vt 0.071697 0.923991
vt 0.071697 0.959923
vt 0.071697 0.923991
vt 0.071697 0.959923
vt 0.071697 0.923991
vt 0.071697 0.959923
vt 0.071697 0.959923
vt 0.035766 0.959923
vt 0.035766 0.923991
vt 0.071697 0.923991
vt 0.071697 0.959923
vt 0.035766 0.959923
vt 0.035766 0.923991
vt 0.035766 0.959923
vt 0.035766 0.923991
vt 0.035766 0.959923
vt 0.035766 0.923991
vt 0.035766 0.959923
vt 0.035766 0.923991
vt 0.035766 0.959923
vt 0.035766 0.923991
vt 0.035766 0.959923
vt 0.035766 0.923991
vt 0.035766 0.959923
vt 0.035766 0.923991
vt 0.035766 0.959923
vt 0.035766 0.923991
vt 0.035766 0.959923
vt 0.035766 0.923991
vt 0.035766 0.959923
vt 0.035766 0.923991
vt 0.035766 0.959923
vt 0.035766 0.923991
vt 0.035766 0.959923
vt 0.035766 0.923991
vt 0.035766 0.959923
vt 0.035766 0.923991
vt 0.035766 0.959923
vt 0.071697 0.959923
vt 0.035766 0.959923
vt 0.035766 0.923991
vt 0.071697 0.923991
vt 0.035766 0.923991
vt 0.071697 0.923991
vt 0.071697 0.959923
vt 0.035766 0.959923
vt 0.035766 0.923991
vt 0.035766 0.959923
vt 0.035766 0.923991
vt 0.035766 0.959923
vt 0.035766 0.923991
vt 0.035766 0.959923
vt 0.035766 0.923991
vt 0.035766 0.959923
vt 0.035766 0.923991
vt 0.035766 0.959923
vt 0.035766 0.923991
vt 0.035766 0.959923
vt 0.035766 0.923991
vt 0.035766 0.959923
vt 0.035766 0.923991
vt 0.035766 0.959923
vt 0.035766 0.923991
vt 0.035766 0.959923
vt 0.035766 0.923991
vt 0.035766 0.959923
vt 0.035766 0.923991
vt 0.035766 0.959923
vt 0.035766 0.923991
vt 0.035766 0.959923
vt 0.035766 0.923991
vt 0.035766 0.959923
vn -0.000000 0.000000 -1.000000
vn -0.000000 0.000000 -1.000000
vn 0.000000 0.000000 -1.000000
vn 0.000000 0.000000 -1.000000
vn 0.000000 0.000000 -1.000000
vn -0.000000 0.000000 -1.000000
vn 0.000000 0.000000 -1.000000
vn -0.000000 0.000000 -1.000000
vn 0.000000 0.000000 -1.000000
vn 0.000000 0.000000 -1.000000
vn 0.000002 0.000000 -1.000000
vn 0.000001 0.000000 -1.000000
vn -0.000001 0.000000 -1.000000
vn -0.000001 0.000000 -1.000000
vn -0.000000 0.000000 -1.000000
vn 0.000000 0.000000 -1.000000
vn 0.000000 0.000000 -1.000000
vn 0.000000 0.000000 -1.000000
vn 0.000000 0.000000 -1.000000
vn 0.000000 0.000000 -1.000000
vn 0.000000 0.000000 -1.000000
vn 0.000000 0.000000 -1.000000
vn -0.000000 0.000000 -1.000000
vn -0.000000 0.000000 -1.000000
vn 0.000000 0.000000 -1.000000
vn 0.000000 0.000000 -1.000000
vn 0.000000 0.000000 -1.000000
vn 0.000000 0.000000 -1.000000
vn -0.000000 0.000000 -1.000000
vn -0.000000 0.000000 -1.000000
vn 0.000000 0.000000 -1.000000
vn -0.000000 0.000000 -1.000000
vn -0.000000 0.000000 -1.000000
vn 0.000000 0.000000 -1.000000
vn 0.000000 0.000000 -1.000000
vn 0.000000 0.000000 -1.000000
vn -0.000000 0.000000 -1.000000
vn -0.000000 0.000000 -1.000000
vn -0.000000 0.000000 -1.000000
vn 0.000000 0.000000 -1.000000
vn 0.000000 0.000000 -1.000000
vn 0.000000 0.000000 -1.000000
vn 0.000000 0.000000 -1.000000
vn 0.000000 0.000000 -1.000000
vn -0.000002 0.000000 -1.000000
vn -0.000001 0.000000 -1.000000
vn 0.000001 0.000000 -1.000000
vn 0.000001 0.000000 -1.000000
vn 0.000000 0.000000 -1.000000
vn 0.000000 0.000000 -1.000000
vn 0.000000 0.000000 -1.000000
vn 0.000000 0.000000 -1.000000
vn 0.000000 0.000000 -1.000000
vn 0.000000 0.000000 -1.000000
vn 0.000000 0.000000 -1.000000
vn 0.000000 0.000000 -1.000000
vn 0.000000 0.000000 -1.000000
vn 0.000000 0.000000 -1.000000
vn -0.000000 0.000000 -1.000000
vn -0.000000 0.000000 -1.000000
vn -0.000000 0.000000 -1.000000
vn -0.000000 0.000000 -1.000000
vn 0.000000 0.000000 -1.000000
vn 0.000000 0.000000 -1.000000
g outline2
f 2/65/1 19/68/2 1/66/3
f 19/68/2 18/67/4 1/66/3
f 3/69/5 20/70/6 2/1/1
f 20/70/6 19/4/2 2/1/1
f 4/71/7 21/72/8 3/5/5
f 21/72/8 20/6/6 3/5/5
f 5/73/9 22/74/10 4/7/7
f 22/74/10 21/8/8 4/7/7
f 6/75/11 23/76/12 5/9/9
f 23/76/12 22/10/10 5/9/9
f 6/11/11 7/77/13 23/12/12
f 7/77/13 24/78/14 23/12/12
f 7/13/13 8/79/15 24/14/14
f 8/79/15 25/80/16 24/14/14
f 8/15/15 9/81/17 25/16/16
f 9/81/17 26/82/18 25/16/16
f 10/83/19 27/84/20 9/17/17
f 27/84/20 26/18/18 9/17/17
f 11/85/21 28/86/22 10/19/19
f 28/86/22 27/20/20 10/19/19
f 12/87/23 29/88/24 11/21/21
f 29/88/24 28/22/22 11/21/21
f 13/89/25 30/90/26 12/23/23
f 30/90/26 29/24/24 12/23/23
f 14/91/27 31/92/28 13/25/25
f 31/92/28 30/26/26 13/25/25
f 15/93/29 32/94/30 14/27/27
f 32/94/30 31/28/28 14/27/27
f 18/3/4 33/96/31 1/2/3
f 33/96/31 16/95/32 1/2/3
f 34/97/33 32/30/30 17/98/34
f 32/30/30 15/29/29 17/98/34
f 36/99/35 51/102/36 35/100/37
f 51/102/36 50/101/38 35/100/37
f 37/103/39 52/104/40 36/35/35
f 52/104/40 51/38/36 36/35/35
f 38/105/41 53/106/42 37/39/39
f 53/106/42 52/40/40 37/39/39
f 39/107/43 54/108/44 38/41/41
f 54/108/44 53/42/42 38/41/41
f 40/109/45 55/110/46 39/43/43
f 55/110/46 54/44/44 39/43/43
f 40/45/45 41/111/47 55/46/46
f 41/111/47 56/112/48 55/46/46
f 41/47/47 42/113/49 56/48/48
f 42/113/49 57/114/50 56/48/48
f 42/49/49 43/115/51 57/50/50
f 43/115/51 58/116/52 57/50/50
f 44/117/53 59/118/54 43/51/51
f 59/118/54 58/52/52 43/51/51
f 45/119/55 60/120/56 44/53/53
f 60/120/56 59/54/54 44/53/53
f 46/121/57 61/122/58 45/55/55
f 61/122/58 60/56/56 45/55/55
f 47/123/59 62/124/60 46/57/57
f 62/124/60 61/58/58 46/57/57
f 48/125/61 63/126/62 47/59/59
f 63/126/62 62/60/60 47/59/59
f 49/127/63 64/128/64 48/61/61
f 64/128/64 63/62/62 48/61/61
f 50/37/38 34/33/33 35/36/37
f 34/33/33 17/34/34 35/36/37
f 33/32/31 64/64/64 16/31/32
f 64/64/64 49/63/63 16/31/32
