# This file uses centimeters as units for non-parametric coordinates.

v -1.500000 0.500000 -3.000000
v 0.500000 0.500000 -3.000000
v 0.500000 -0.500000 -3.000000
v -1.500000 -0.500000 -3.000000
v -0.500000 -0.500000 -2.000000
v 0.500000 -0.500000 -2.000000
v 0.500000 0.500000 -2.000000
v -0.500000 0.500000 -2.000000
v 1.500000 0.500000 -2.000000
v 1.500000 -0.500000 -2.000000
v -1.500000 -0.500000 3.000000
v -1.500000 0.500000 3.000000
v -0.500000 0.500000 0.000000
v -0.500000 -0.500000 0.000000
v 0.500000 0.500000 0.000000
v 0.500000 -0.500000 0.000000
v 1.500000 0.500000 0.000000
v 1.500000 -0.500000 0.000000
v 0.500000 0.500000 1.000000
v -0.500000 0.500000 1.000000
v -0.500000 -0.500000 1.000000
v 0.500000 -0.500000 1.000000
v -0.500000 0.500000 3.000000
v -0.500000 -0.500000 3.000000
vt 0.209937 0.968985
vt 0.209937 0.968985
vt 0.209937 0.965604
vt 0.206557 0.965604
vt 0.084726 0.969534
vt 0.088106 0.972915
vt 0.088106 0.969534
vt 0.084726 0.969534
vt 0.209937 0.968985
vt 0.206557 0.965604
vt 0.206557 0.965604
vt 0.088106 0.969534
vt 0.084726 0.969534
vt 0.084726 0.969534
vt 0.084726 0.969534
vt 0.084726 0.969534
vt 0.088106 0.969534
vt 0.088106 0.972915
vt 0.209937 0.965604
vt 0.209937 0.965604
vt 0.206557 0.965604
vt 0.206557 0.965604
vt 0.209937 0.968985
vt 0.206557 0.965604
vt 0.209937 0.965604
vt 0.209937 0.968985
vt 0.206557 0.965604
vt 0.088106 0.972915
vt 0.206557 0.965604
vt 0.209937 0.965604
vt 0.209937 0.968985
vt 0.209937 0.968985
vt 0.206557 0.965604
vt 0.209937 0.965604
vt 0.209937 0.968985
vt 0.206557 0.965604
vt 0.084726 0.969534
vt 0.088106 0.969534
vt 0.088106 0.972915
vt 0.084726 0.969534
vt 0.088106 0.969534
vt 0.088106 0.972915
vt 0.088106 0.969534
vt 0.088106 0.972915
vt 0.088106 0.969534
vt 0.088106 0.972915
vt 0.084726 0.969534
vt 0.088106 0.969534
vt 0.088106 0.972915
vt 0.084726 0.969534
vt 0.088106 0.969534
vt 0.088106 0.972915
vt 0.084726 0.969534
vt 0.088106 0.969534
vt 0.088106 0.972915
vt 0.084726 0.969534
vt 0.088106 0.972915
vt 0.088106 0.969534
vt 0.088106 0.972915
vt 0.088106 0.969534
vt 0.088106 0.972915
vt 0.084726 0.969534
vt 0.088106 0.969534
vt 0.088106 0.972915
vt 0.084726 0.969534
vt 0.088106 0.969534
vt 0.088106 0.972915
vt 0.084726 0.969534
vt 0.088106 0.969534
vt 0.088106 0.972915
vt 0.084726 0.969534
vt 0.088106 0.969534
vt 0.088106 0.972915
vt 0.084726 0.969534
vt 0.088106 0.969534
vt 0.088106 0.972915
vt 0.084726 0.969534
vt 0.088106 0.969534
vt 0.088106 0.972915
vt 0.084726 0.969534
vt 0.088106 0.969534
vt 0.088106 0.972915
vt 0.084726 0.969534
vt 0.088106 0.969534
vt 0.088106 0.972915
vt 0.084726 0.969534
vt 0.088106 0.969534
vt 0.088106 0.972915
vt 0.084726 0.969534
vt 0.088106 0.969534
vt 0.088106 0.972915
vt 0.084726 0.969534
vt 0.088106 0.969534
vt 0.088106 0.972915
vt 0.084726 0.969534
vt 0.088106 0.969534
vt 0.206557 0.965604
vt 0.209937 0.965604
vt 0.209937 0.968985
vt 0.206557 0.965604
vt 0.209937 0.965604
vt 0.209937 0.968985
vt 0.206557 0.965604
vt 0.209937 0.965604
vt 0.209937 0.968985
vt 0.206557 0.965604
vt 0.209937 0.965604
vt 0.209937 0.968985
vt 0.206557 0.965604
vt 0.209937 0.965604
vt 0.206557 0.965604
vt 0.209937 0.965604
vt 0.209937 0.968985
vt 0.206557 0.965604
vt 0.209937 0.968985
vt 0.209937 0.965604
vt 0.209937 0.968985
vt 0.209937 0.965604
vt 0.209937 0.968985
vt 0.206557 0.965604
vt 0.209937 0.965604
vt 0.209937 0.965604
vt 0.209937 0.968985
vt 0.206557 0.965604
vt 0.209937 0.965604
vt 0.209937 0.968985
vt 0.206557 0.965604
vt 0.209937 0.965604
vt 0.209937 0.968985
vt 0.209937 0.965604
vt 0.209937 0.968985
vt 0.206557 0.965604
vt 0.209937 0.968985
vt 0.206557 0.965604
vt 0.209937 0.965604
vt 0.209937 0.968985
vt 0.206557 0.965604
vt 0.209937 0.965604
vt 0.209937 0.968985
vt 0.209937 0.965604
vt 0.206557 0.965604
vt 0.209937 0.965604
vt 0.209937 0.965604
vt 0.209937 0.968985
vn 0.000000 0.000000 -1.000000
vn 0.000000 0.000000 -1.000000
vn 0.000000 0.000000 -1.000000
vn 0.000000 0.000000 -1.000000
vn 0.000000 0.000000 1.000000
vn 0.000000 0.000000 1.000000
vn 0.000000 0.000000 1.000000
vn 0.000000 0.000000 1.000000
vn 0.707107 0.000000 -0.707107
vn 0.707107 0.000000 -0.707107
vn 0.707107 0.000000 -0.707107
vn 0.707107 0.000000 -0.707107
vn -1.000000 0.000000 0.000000
vn -1.000000 0.000000 0.000000
vn -1.000000 0.000000 0.000000
vn -1.000000 0.000000 0.000000
vn 1.000000 0.000000 0.000000
vn 1.000000 0.000000 0.000000
vn 1.000000 0.000000 0.000000
vn 1.000000 0.000000 0.000000
vn -1.000000 0.000000 0.000000
vn -1.000000 0.000000 0.000000
vn -1.000000 0.000000 0.000000
vn -1.000000 0.000000 0.000000
vn 0.000000 0.000000 -1.000000
vn 0.000000 0.000000 -1.000000
vn 0.000000 0.000000 -1.000000
vn 0.000000 0.000000 -1.000000
vn 1.000000 0.000000 0.000000
vn 1.000000 0.000000 0.000000
vn 1.000000 0.000000 0.000000
vn 1.000000 0.000000 0.000000
vn 0.000000 0.000000 1.000000
vn 0.000000 0.000000 1.000000
vn 0.000000 0.000000 1.000000
vn 0.000000 0.000000 1.000000
vn 0.707107 0.000000 0.707107
vn 0.707107 0.000000 0.707107
vn 0.707107 0.000000 0.707107
vn 0.707107 0.000000 0.707107
vn 1.000000 0.000000 0.000000
vn 1.000000 0.000000 0.000000
vn 1.000000 0.000000 0.000000
vn 1.000000 0.000000 0.000000
vn 0.000000 0.000000 1.000000
vn 0.000000 0.000000 1.000000
vn 0.000000 0.000000 1.000000
vn 0.000000 0.000000 1.000000
vn 0.000000 -1.000000 0.000000
vn 0.000000 -1.000000 0.000000
vn 0.000000 -1.000000 0.000000
vn 0.000000 1.000000 0.000000
vn 0.000000 1.000000 0.000000
vn 0.000000 1.000000 0.000000
vn 0.000000 1.000000 0.000000
vn 0.000000 1.000000 0.000000
vn 0.000000 1.000000 0.000000
vn 0.000000 1.000000 0.000000
vn 0.000000 1.000000 0.000000
vn 0.000000 1.000000 0.000000
vn 0.000000 1.000000 0.000000
vn 0.000000 1.000000 0.000000
vn 0.000000 1.000000 0.000000
vn 0.000000 1.000000 0.000000
vn 0.000000 1.000000 0.000000
vn 0.000000 1.000000 0.000000
vn 0.000000 1.000000 0.000000
vn 0.000000 1.000000 0.000000
vn 0.000000 1.000000 0.000000
vn 0.000000 1.000000 0.000000
vn 0.000000 1.000000 0.000000
vn 0.000000 1.000000 0.000000
vn 0.000000 1.000000 0.000000
vn 0.000000 1.000000 0.000000
vn 0.000000 1.000000 0.000000
vn 0.000000 1.000000 0.000000
vn 0.000000 1.000000 0.000000
vn 0.000000 1.000000 0.000000
vn 0.000000 1.000000 0.000000
vn 0.000000 -1.000000 0.000000
vn 0.000000 -1.000000 0.000000
vn 0.000000 -1.000000 0.000000
vn 0.000000 -1.000000 0.000000
vn 0.000000 -1.000000 0.000000
vn 0.000000 -1.000000 0.000000
vn 0.000000 -1.000000 0.000000
vn 0.000000 -1.000000 0.000000
vn 0.000000 -1.000000 0.000000
vn 0.000000 -1.000000 0.000000
vn 0.000000 -1.000000 0.000000
vn 0.000000 -1.000000 0.000000
vn 0.000000 -1.000000 0.000000
vn 0.000000 -1.000000 0.000000
vn 0.000000 -1.000000 0.000000
vn 0.000000 -1.000000 0.000000
vn 0.000000 -1.000000 0.000000
vn 0.000000 -1.000000 0.000000
vn 0.000000 -1.000000 0.000000
vn 0.000000 -1.000000 0.000000
vn 0.000000 -1.000000 0.000000
vn 0.000000 -1.000000 0.000000
vn 0.000000 -1.000000 0.000000
vn 0.000000 -1.000000 0.000000
vn 0.000000 -1.000000 0.000000
g p
f 1/37/1 2/38/2 4/39/3
f 4/40/3 2/41/2 3/42/4
f 5/5/5 6/43/6 8/44/7
f 8/8/7 6/45/6 7/46/8
f 2/47/9 9/48/10 3/49/11
f 3/50/11 9/51/10 10/52/12
f 11/53/13 12/54/14 4/55/15
f 4/56/15 12/12/14 1/57/16
f 8/13/17 13/58/18 5/59/19
f 5/16/19 13/60/18 14/61/20
f 15/62/21 7/63/22 16/64/23
f 16/65/23 7/7/22 6/6/24
f 13/14/25 15/66/26 14/67/27
f 14/15/27 15/17/26 16/18/28
f 9/68/29 17/69/30 10/70/31
f 10/71/31 17/72/30 18/73/32
f 19/74/33 20/75/34 22/76/35
f 22/77/35 20/78/34 21/79/36
f 17/80/37 19/81/38 18/82/39
f 18/83/39 19/84/38 22/85/40
f 23/86/41 24/87/42 20/88/43
f 20/89/43 24/90/42 21/91/44
f 23/92/45 12/93/46 24/94/47
f 24/95/47 12/96/46 11/28/48
f 4/97/49 5/98/50 14/99/51
f 1/100/52 8/101/53 2/102/54
f 2/103/54 8/104/53 7/105/55
f 15/106/56 19/107/57 17/108/58
f 7/109/59 9/110/60 2/2/61
f 15/111/62 17/112/63 7/113/64
f 7/36/64 17/19/63 9/9/65
f 12/114/66 23/25/67 20/115/68
f 15/33/69 13/116/70 19/117/71
f 19/21/71 13/118/70 20/119/72
f 1/120/73 13/121/74 8/35/75
f 20/22/76 13/122/77 12/123/78
f 12/27/78 13/34/77 1/1/79
f 16/124/80 6/125/81 18/126/82
f 18/127/82 6/128/81 10/129/83
f 10/10/84 6/130/85 3/131/86
f 16/132/87 18/20/88 22/133/89
f 4/134/90 3/135/91 5/136/92
f 5/29/92 3/3/91 6/32/93
f 21/137/94 14/138/95 22/139/96
f 22/24/96 14/140/95 16/31/97
f 11/141/98 21/142/99 24/26/100
f 4/4/101 14/143/102 11/144/103
f 11/11/103 14/30/102 21/23/104
