# This file uses centimeters as units for non-parametric coordinates.

v -1.500000 -0.500000 -2.000000
v -1.500000 0.500000 -2.000000
v -0.500000 0.500000 -3.000000
v -0.500000 -0.500000 -3.000000
v 0.500000 0.500000 -3.000000
v 0.500000 -0.500000 -3.000000
v -0.500000 -0.500000 -2.000000
v 0.500000 -0.500000 -2.000000
v 0.500000 0.500000 -2.000000
v -0.500000 0.500000 -2.000000
v 1.500000 0.500000 -2.000000
v 1.500000 -0.500000 -2.000000
v -1.500000 -0.500000 2.000000
v -1.500000 0.500000 2.000000
v -0.500000 0.500000 2.000000
v -0.500000 -0.500000 2.000000
v 0.500000 0.500000 2.000000
v 0.500000 -0.500000 2.000000
v -0.500000 -0.500000 3.000000
v -0.500000 0.500000 3.000000
v 1.500000 0.500000 3.000000
v 1.500000 -0.500000 3.000000
vt 0.207317 0.972915
vt 0.085486 0.969534
vt 0.207317 0.969534
vt 0.203937 0.969534
vt 0.203937 0.969534
vt 0.207317 0.969534
vt 0.082106 0.969534
vt 0.085486 0.972915
vt 0.085486 0.969534
vt 0.082106 0.969534
vt 0.207317 0.969534
vt 0.207317 0.972915
vt 0.207317 0.969534
vt 0.203937 0.969534
vt 0.203937 0.969534
vt 0.082106 0.969534
vt 0.082106 0.969534
vt 0.082106 0.969534
vt 0.082106 0.969534
vt 0.082106 0.969534
vt 0.085486 0.969534
vt 0.085486 0.972915
vt 0.207317 0.969534
vt 0.203937 0.969534
vt 0.203937 0.969534
vt 0.203937 0.969534
vt 0.207317 0.972915
vt 0.207317 0.972915
vt 0.203937 0.969534
vt 0.207317 0.972915
vt 0.203937 0.969534
vt 0.207317 0.972915
vt 0.207317 0.969534
vt 0.207317 0.972915
vt 0.082106 0.969534
vt 0.085486 0.969534
vt 0.085486 0.972915
vt 0.082106 0.969534
vt 0.085486 0.972915
vt 0.082106 0.969534
vt 0.085486 0.969534
vt 0.085486 0.972915
vt 0.082106 0.969534
vt 0.085486 0.969534
vt 0.085486 0.972915
vt 0.085486 0.969534
vt 0.085486 0.972915
vt 0.085486 0.969534
vt 0.085486 0.972915
vt 0.082106 0.969534
vt 0.085486 0.969534
vt 0.085486 0.972915
vt 0.082106 0.969534
vt 0.085486 0.969534
vt 0.085486 0.972915
vt 0.082106 0.969534
vt 0.085486 0.969534
vt 0.085486 0.972915
vt 0.085486 0.969534
vt 0.085486 0.972915
vt 0.085486 0.969534
vt 0.085486 0.972915
vt 0.085486 0.969534
vt 0.085486 0.972915
vt 0.082106 0.969534
vt 0.085486 0.969534
vt 0.085486 0.972915
vt 0.082106 0.969534
vt 0.082106 0.969534
vt 0.085486 0.969534
vt 0.085486 0.972915
vt 0.082106 0.969534
vt 0.085486 0.969534
vt 0.085486 0.972915
vt 0.082106 0.969534
vt 0.085486 0.969534
vt 0.085486 0.972915
vt 0.082106 0.969534
vt 0.085486 0.969534
vt 0.085486 0.972915
vt 0.085486 0.969534
vt 0.085486 0.972915
vt 0.082106 0.969534
vt 0.085486 0.969534
vt 0.085486 0.972915
vt 0.082106 0.969534
vt 0.085486 0.969534
vt 0.085486 0.972915
vt 0.203937 0.969534
vt 0.207317 0.969534
vt 0.207317 0.972915
vt 0.203937 0.969534
vt 0.207317 0.969534
vt 0.207317 0.972915
vt 0.203937 0.969534
vt 0.207317 0.969534
vt 0.207317 0.972915
vt 0.203937 0.969534
vt 0.207317 0.969534
vt 0.207317 0.972915
vt 0.203937 0.969534
vt 0.207317 0.969534
vt 0.207317 0.972915
vt 0.207317 0.969534
vt 0.207317 0.972915
vt 0.203937 0.969534
vt 0.207317 0.972915
vt 0.203937 0.969534
vt 0.207317 0.969534
vt 0.207317 0.972915
vt 0.203937 0.969534
vt 0.207317 0.969534
vt 0.207317 0.972915
vt 0.207317 0.969534
vt 0.207317 0.969534
vt 0.207317 0.972915
vt 0.203937 0.969534
vt 0.207317 0.969534
vt 0.207317 0.972915
vt 0.203937 0.969534
vt 0.207317 0.969534
vt 0.207317 0.972915
vt 0.203937 0.969534
vt 0.207317 0.969534
vt 0.207317 0.969534
vt 0.207317 0.972915
vt 0.203937 0.969534
vt 0.203937 0.969534
vt 0.207317 0.969534
vt 0.207317 0.972915
vt 0.207317 0.969534
vt 0.207317 0.972915
vn -0.707107 0.000000 -0.707107
vn -0.707107 0.000000 -0.707107
vn -0.707107 0.000000 -0.707107
vn -0.707107 0.000000 -0.707107
vn 0.000000 0.000000 -1.000000
vn 0.000000 0.000000 -1.000000
vn 0.000000 0.000000 -1.000000
vn 0.000000 0.000000 -1.000000
vn 0.000000 0.000000 1.000000
vn 0.000000 0.000000 1.000000
vn 0.000000 0.000000 1.000000
vn 0.000000 0.000000 1.000000
vn 0.707107 0.000000 -0.707107
vn 0.707107 0.000000 -0.707107
vn 0.707107 0.000000 -0.707107
vn 0.707107 0.000000 -0.707107
vn -1.000000 0.000000 0.000000
vn -1.000000 0.000000 0.000000
vn -1.000000 0.000000 0.000000
vn -1.000000 0.000000 0.000000
vn 1.000000 0.000000 0.000000
vn 1.000000 0.000000 0.000000
vn 1.000000 0.000000 0.000000
vn 1.000000 0.000000 0.000000
vn -1.000000 0.000000 0.000000
vn -1.000000 0.000000 0.000000
vn -1.000000 0.000000 0.000000
vn -1.000000 0.000000 0.000000
vn -0.707107 0.000000 0.707107
vn -0.707107 0.000000 0.707107
vn -0.707107 0.000000 0.707107
vn -0.707107 0.000000 0.707107
vn 1.000000 0.000000 0.000000
vn 1.000000 0.000000 0.000000
vn 1.000000 0.000000 0.000000
vn 1.000000 0.000000 0.000000
vn 0.000000 0.000000 -1.000000
vn 0.000000 0.000000 -1.000000
vn 0.000000 0.000000 -1.000000
vn 0.000000 0.000000 -1.000000
vn 0.000000 0.000000 1.000000
vn 0.000000 0.000000 1.000000
vn 0.000000 0.000000 1.000000
vn 0.000000 0.000000 1.000000
vn 0.000000 1.000000 0.000000
vn 0.000000 1.000000 0.000000
vn 0.000000 1.000000 0.000000
vn 0.000000 -1.000000 0.000000
vn 0.000000 -1.000000 0.000000
vn 0.000000 -1.000000 0.000000
vn 0.000000 -1.000000 0.000000
vn 0.000000 -1.000000 0.000000
vn 0.000000 -1.000000 0.000000
vn 0.000000 1.000000 0.000000
vn 0.000000 1.000000 0.000000
vn 0.000000 1.000000 0.000000
vn 0.000000 1.000000 0.000000
vn 0.000000 1.000000 0.000000
vn 0.000000 1.000000 0.000000
vn 0.000000 1.000000 0.000000
vn 0.000000 1.000000 0.000000
vn 0.000000 1.000000 0.000000
vn 0.000000 1.000000 0.000000
vn 0.000000 1.000000 0.000000
vn 0.000000 1.000000 0.000000
vn 0.000000 1.000000 0.000000
vn 0.000000 1.000000 0.000000
vn 0.000000 1.000000 0.000000
vn 0.000000 1.000000 0.000000
vn 0.000000 1.000000 0.000000
vn 0.000000 1.000000 0.000000
vn 0.000000 1.000000 0.000000
vn 0.000000 1.000000 0.000000
vn 0.000000 1.000000 0.000000
vn 0.000000 1.000000 0.000000
vn 0.000000 -1.000000 0.000000
vn 0.000000 -1.000000 0.000000
vn 0.000000 -1.000000 0.000000
vn 0.000000 -1.000000 0.000000
vn 0.000000 -1.000000 0.000000
vn 0.000000 -1.000000 0.000000
vn 0.000000 -1.000000 0.000000
vn 0.000000 -1.000000 0.000000
vn 0.000000 -1.000000 0.000000
vn 0.000000 -1.000000 0.000000
vn 0.000000 -1.000000 0.000000
vn 0.000000 -1.000000 0.000000
vn 0.000000 -1.000000 0.000000
vn 0.000000 -1.000000 0.000000
vn 0.000000 -1.000000 0.000000
vn 0.000000 -1.000000 0.000000
vn 0.000000 -1.000000 0.000000
vn 0.000000 -1.000000 0.000000
vn 0.000000 -1.000000 0.000000
g q
f 1/35/1 2/36/2 4/37/3
f 4/38/3 2/2/2 3/39/4
f 4/40/5 3/41/6 6/42/7
f 6/43/7 3/44/6 5/45/8
f 7/7/9 8/46/10 10/47/11
f 10/10/11 8/48/10 9/49/12
f 6/50/13 5/51/14 12/52/15
f 12/53/15 5/54/14 11/55/16
f 13/56/17 14/57/18 1/58/19
f 1/16/19 14/59/18 2/60/20
f 10/17/21 15/61/22 7/62/23
f 7/20/23 15/63/22 16/64/24
f 17/65/25 9/66/26 18/67/27
f 18/68/27 9/9/26 8/8/28
f 14/69/29 13/70/30 20/71/31
f 20/72/31 13/73/30 19/74/32
f 12/75/33 11/76/34 22/77/35
f 22/78/35 11/79/34 21/80/36
f 15/18/37 17/81/38 16/82/39
f 16/19/39 17/21/38 18/22/40
f 22/83/41 21/84/42 19/85/43
f 19/86/43 21/87/42 20/88/44
f 5/89/45 9/90/46 11/91/47
f 16/92/48 19/93/49 13/94/50
f 4/95/51 7/96/52 1/97/53
f 20/98/54 15/99/55 14/100/56
f 10/101/57 3/102/58 2/103/59
f 5/5/60 3/104/61 9/105/62
f 9/106/62 3/3/61 10/107/63
f 21/108/64 11/109/65 17/110/66
f 17/111/66 11/11/65 9/28/67
f 14/14/68 15/112/69 2/113/70
f 2/15/70 15/114/69 10/27/71
f 21/25/72 17/115/73 20/116/74
f 20/24/74 17/33/73 15/34/75
f 8/117/76 12/118/77 18/119/78
f 18/120/78 12/121/77 22/122/79
f 8/123/80 6/124/81 12/12/82
f 4/4/83 6/125/84 7/126/85
f 7/127/85 6/6/84 8/32/86
f 16/128/87 13/129/88 7/130/89
f 7/29/89 13/13/88 1/1/90
f 22/26/91 19/131/92 18/132/93
f 18/31/93 19/23/92 16/30/94
