# This file uses centimeters as units for non-parametric coordinates.

v -1.500000 -0.500000 2.000000
v -1.500000 -0.500000 3.000000
v -1.500000 0.500000 3.000000
v 1.500000 -0.500000 3.000000
v 1.500000 0.500000 3.000000
v -0.500000 -0.500000 -0.500000
v -0.500000 0.500000 -0.500000
v 1.500000 -0.500000 -0.500000
v 1.500000 0.500000 -0.500000
v -0.500000 -0.500000 -2.000000
v -0.500000 0.500000 -2.000000
v 1.500000 -0.500000 -2.000000
v 1.500000 0.500000 -2.000000
v -1.500000 -0.500000 0.500000
v -1.500000 0.500000 0.500000
v 1.500000 -0.500000 -3.000000
v 1.500000 0.500000 -3.000000
v -1.500000 -0.500000 -3.000000
v -1.500000 0.500000 -3.000000
v 0.500000 -0.500000 0.500000
v 0.500000 0.500000 0.500000
v 0.500000 -0.500000 2.000000
v 0.500000 0.500000 2.000000
v -1.500000 0.500000 2.000000
vt 0.090726 0.970295
vt 0.209177 0.970844
vt 0.209177 0.970844
vt 0.209177 0.970844
vt 0.209177 0.970844
vt 0.207487 0.969999
vt 0.209177 0.970422
vt 0.209177 0.972534
vt 0.208614 0.970281
vt 0.209177 0.970844
vt 0.209177 0.970844
vt 0.212557 0.974225
vt 0.209177 0.970844
vt 0.210867 0.973380
vt 0.212557 0.973802
vt 0.212557 0.970844
vt 0.212557 0.970844
vt 0.209177 0.970844
vt 0.212557 0.970844
vt 0.212556 0.975912
vt 0.212558 0.969156
vt 0.212557 0.970844
vt 0.212557 0.970844
vt 0.212557 0.974225
vt 0.209177 0.970844
vt 0.090726 0.970295
vt 0.087346 0.966914
vt 0.090726 0.966914
vt 0.090726 0.970295
vt 0.087346 0.966914
vt 0.090726 0.966914
vt 0.090726 0.970295
vt 0.087346 0.966914
vt 0.090726 0.966914
vt 0.090726 0.970295
vt 0.087346 0.966914
vt 0.090726 0.966914
vt 0.087346 0.966914
vt 0.090726 0.966914
vt 0.090726 0.970295
vt 0.087346 0.966914
vt 0.090726 0.966914
vt 0.090726 0.970295
vt 0.086783 0.966915
vt 0.090726 0.966914
vt 0.090163 0.970295
vt 0.086782 0.966351
vt 0.090726 0.966914
vt 0.090726 0.970295
vt 0.087346 0.966914
vt 0.090726 0.966914
vt 0.090726 0.970295
vt 0.087346 0.966915
vt 0.090726 0.966914
vt 0.090726 0.970295
vt 0.088191 0.967759
vt 0.091571 0.967759
vt 0.090726 0.970295
vt 0.087346 0.966914
vt 0.090726 0.967759
vt 0.090726 0.970295
vt 0.087346 0.966914
vt 0.090726 0.966914
vt 0.090726 0.970295
vt 0.087346 0.966914
vt 0.090726 0.966914
vt 0.090726 0.970295
vt 0.087346 0.966914
vt 0.090726 0.966914
vt 0.090726 0.970295
vt 0.087346 0.966914
vt 0.090726 0.966914
vt 0.090726 0.970295
vt 0.087346 0.966914
vt 0.090726 0.966914
vt 0.090304 0.969872
vt 0.087346 0.966492
vt 0.090726 0.966914
vt 0.090726 0.969872
vt 0.087346 0.966915
vt 0.090726 0.966914
vt 0.090726 0.970295
vt 0.087346 0.966914
vt 0.090726 0.966915
vt 0.090726 0.970295
vt 0.085656 0.965225
vt 0.089036 0.965224
vt 0.090726 0.970295
vt 0.087346 0.966914
vt 0.090727 0.965225
vt 0.090726 0.970295
vt 0.087346 0.966914
vt 0.090726 0.966914
vt 0.090726 0.970295
vt 0.087346 0.966914
vt 0.090726 0.966914
vt 0.210022 0.972535
vt 0.213403 0.972535
vt 0.213402 0.975915
vt 0.208332 0.971689
vt 0.211712 0.971689
vt 0.211712 0.975070
vt 0.210023 0.971690
vt 0.213402 0.971689
vt 0.212557 0.974225
vt 0.209177 0.970844
vt 0.212557 0.971267
vt 0.212557 0.974225
vt 0.212557 0.970844
vt 0.212557 0.974225
vt 0.209177 0.970844
vt 0.212557 0.974225
vt 0.212557 0.970844
vt 0.211712 0.973380
vt 0.211994 0.970281
vt 0.212557 0.974225
vt 0.209177 0.970844
vt 0.212557 0.974225
vt 0.212557 0.970844
vt 0.212557 0.974225
vt 0.212557 0.970844
vt 0.212557 0.974225
vt 0.212557 0.970844
vt 0.212557 0.974225
vt 0.212557 0.970844
vt 0.212557 0.974225
vt 0.208332 0.971689
vt 0.211712 0.971689
vt 0.211712 0.975070
vt 0.210867 0.969999
vt 0.212557 0.970844
vt 0.213121 0.974788
vn 1.000000 0.000000 0.000000
vn 1.000000 0.000000 0.000000
vn 1.000000 0.000000 0.000000
vn 1.000000 0.000000 0.000000
vn -1.000000 0.000000 0.000000
vn -1.000000 0.000000 0.000000
vn -1.000000 0.000000 0.000000
vn -1.000000 0.000000 0.000000
vn 0.000000 0.000000 1.000000
vn 0.000000 0.000000 1.000000
vn 0.000000 0.000000 1.000000
vn 0.000000 0.000000 1.000000
vn 1.000000 0.000000 0.000000
vn 1.000000 0.000000 0.000000
vn 1.000000 0.000000 0.000000
vn 1.000000 0.000000 0.000000
vn 0.000000 0.000000 -1.000000
vn 0.000000 0.000000 -1.000000
vn 0.000000 0.000000 -1.000000
vn 0.000000 0.000000 -1.000000
vn 1.000000 0.000000 0.000000
vn 1.000000 0.000000 0.000000
vn 1.000000 0.000000 0.000000
vn 1.000000 0.000000 0.000000
vn 0.000000 0.000000 1.000000
vn 0.000000 0.000000 1.000000
vn 0.000000 0.000000 1.000000
vn 0.000000 0.000000 1.000000
vn 0.000000 0.000000 -1.000000
vn 0.000000 0.000000 -1.000000
vn 0.000000 0.000000 -1.000000
vn 0.000000 0.000000 -1.000000
vn -1.000000 0.000000 0.000000
vn -1.000000 0.000000 0.000000
vn -1.000000 0.000000 0.000000
vn -1.000000 0.000000 0.000000
vn 0.000000 0.000000 1.000000
vn 0.000000 0.000000 1.000000
vn 0.000000 0.000000 1.000000
vn 0.000000 0.000000 1.000000
vn -1.000000 0.000000 0.000000
vn -1.000000 0.000000 0.000000
vn -1.000000 0.000000 0.000000
vn -1.000000 0.000000 0.000000
vn 0.000000 0.000000 -1.000000
vn 0.000000 0.000000 -1.000000
vn 0.000000 0.000000 -1.000000
vn 0.000000 0.000000 -1.000000
vn 0.000000 1.000000 0.000000
vn 0.000000 1.000000 0.000000
vn 0.000000 1.000000 0.000000
vn 0.000000 1.000000 0.000000
vn 0.000000 -1.000000 0.000000
vn 0.000000 -1.000000 0.000000
vn 0.000000 -1.000000 0.000000
vn 0.000000 -1.000000 0.000000
vn 0.000000 1.000000 0.000000
vn 0.000000 1.000000 0.000000
vn 0.000000 1.000000 0.000000
vn 0.000000 1.000000 0.000000
vn 0.000000 1.000000 0.000000
vn 0.000000 1.000000 0.000000
vn 0.000000 1.000000 0.000000
vn 0.000000 1.000000 0.000000
vn 0.000000 1.000000 0.000000
vn 0.000000 1.000000 0.000000
vn 0.000000 1.000000 0.000000
vn 0.000000 1.000000 0.000000
vn 0.000000 1.000000 0.000000
vn 0.000000 1.000000 0.000000
vn 0.000000 1.000000 0.000000
vn 0.000000 1.000000 0.000000
vn 0.000000 -1.000000 0.000000
vn 0.000000 -1.000000 0.000000
vn 0.000000 -1.000000 0.000000
vn 0.000000 -1.000000 0.000000
vn 0.000000 -1.000000 0.000000
vn 0.000000 -1.000000 0.000000
vn 0.000000 -1.000000 0.000000
vn 0.000000 -1.000000 0.000000
vn 0.000000 -1.000000 0.000000
vn 0.000000 -1.000000 0.000000
vn 0.000000 -1.000000 0.000000
vn 0.000000 -1.000000 0.000000
vn 0.000000 -1.000000 0.000000
vn 0.000000 -1.000000 0.000000
vn 0.000000 -1.000000 0.000000
vn 0.000000 -1.000000 0.000000
g s
f 17/27/1 13/28/2 16/29/3
f 16/30/3 13/31/2 12/32/4
f 3/33/5 24/34/6 2/35/7
f 2/36/7 24/37/6 1/1/8
f 5/38/9 3/39/10 4/40/11
f 4/41/11 3/42/10 2/43/12
f 9/44/13 5/45/14 8/46/15
f 8/47/15 5/48/14 4/49/16
f 9/50/17 8/51/18 7/52/19
f 7/53/19 8/54/18 6/55/20
f 7/56/21 6/57/22 11/58/23
f 11/59/23 6/60/22 10/61/24
f 11/62/25 10/63/26 13/64/27
f 13/65/27 10/66/26 12/67/28
f 19/68/29 17/69/30 18/70/31
f 18/71/31 17/72/30 16/73/32
f 19/74/33 18/75/34 15/76/35
f 15/77/35 18/78/34 14/79/36
f 14/80/37 20/81/38 15/82/39
f 15/83/39 20/84/38 21/85/40
f 21/86/41 20/87/42 23/88/43
f 23/89/43 20/90/42 22/91/44
f 22/92/45 1/93/46 23/94/47
f 23/95/47 1/96/46 24/26/48
f 15/97/49 21/98/50 7/99/51
f 7/100/51 21/101/50 9/102/52
f 6/103/53 14/104/54 10/105/55
f 10/106/55 14/107/54 18/108/56
f 13/13/57 17/109/58 11/110/59
f 11/111/59 17/17/58 19/112/60
f 11/11/61 19/113/62 7/114/63
f 7/7/63 19/19/62 15/15/64
f 9/9/65 21/115/66 5/116/67
f 5/117/67 21/21/66 23/118/68
f 5/5/69 23/119/70 3/120/71
f 3/3/71 23/23/70 24/24/72
f 18/18/73 16/121/74 10/122/75
f 10/10/75 16/16/74 12/12/76
f 1/25/77 22/123/78 2/124/79
f 2/2/79 22/125/78 4/126/80
f 8/127/81 20/128/82 6/129/83
f 6/6/83 20/130/82 14/14/84
f 4/4/85 22/131/86 8/132/87
f 8/8/87 22/22/86 20/20/88
