# This file uses centimeters as units for non-parametric coordinates.

v -1.500000 -0.500000 -3.000000
v -0.500000 -0.500000 3.000000
v -0.500000 0.500000 3.000000
v -1.500000 -0.500000 -2.000000
v -1.500000 0.500000 -2.000000
v 0.500000 -0.500000 -2.000000
v 0.500000 0.500000 -2.000000
v -1.500000 -0.500000 3.000000
v -1.500000 0.500000 3.000000
v 1.500000 -0.500000 -2.000000
v 1.500000 0.500000 -2.000000
v 1.500000 -0.500000 -3.000000
v 1.500000 0.500000 -3.000000
v -1.500000 0.500000 -3.000000
vt 0.080987 0.952145
vt 0.229947 0.953455
vt 0.206748 0.953455
vt 0.229947 0.976654
vt 0.229947 0.976654
vt 0.206748 0.953455
vt 0.229947 0.953455
vt 0.229947 0.976654
vt 0.229947 0.976654
vt 0.229947 0.976654
vt 0.206748 0.953455
vt 0.229947 0.953455
vt 0.206748 0.953455
vt 0.229947 0.953455
vt 0.206748 0.953455
vt 0.104186 0.975344
vt 0.080987 0.952145
vt 0.104186 0.952145
vt 0.104186 0.975344
vt 0.080987 0.952145
vt 0.104186 0.952145
vt 0.104186 0.975344
vt 0.080987 0.952145
vt 0.080987 0.952145
vt 0.104186 0.952145
vt 0.104186 0.975344
vt 0.080987 0.952145
vt 0.080987 0.952145
vt 0.104186 0.952145
vt 0.104186 0.975344
vt 0.080987 0.952145
vt 0.080987 0.952145
vt 0.104186 0.952145
vt 0.104186 0.975344
vt 0.080987 0.952145
vt 0.080987 0.952145
vt 0.104186 0.952145
vt 0.104186 0.975344
vt 0.080987 0.952145
vt 0.080987 0.952145
vt 0.104186 0.952145
vt 0.080987 0.952145
vt 0.206748 0.953455
vt 0.229947 0.953455
vt 0.229947 0.976654
vt 0.206748 0.953455
vt 0.229947 0.953455
vt 0.206748 0.953455
vt 0.206748 0.953455
vt 0.206748 0.953455
vt 0.104186 0.952145
vt 0.104186 0.975344
vt 0.104186 0.952145
vt 0.104186 0.975344
vt 0.104186 0.952145
vt 0.104186 0.975344
vt 0.104186 0.952145
vt 0.104186 0.975344
vt 0.104186 0.952145
vt 0.104186 0.975344
vt 0.104186 0.952145
vt 0.104186 0.975344
vt 0.104186 0.952145
vt 0.104186 0.975344
vt 0.229947 0.953455
vt 0.229947 0.976654
vt 0.229947 0.953455
vt 0.229947 0.976654
vt 0.229947 0.953455
vt 0.229947 0.976654
vt 0.229947 0.953455
vt 0.229947 0.976654
vn 0.000000 0.000000 1.000000
vn 0.000000 0.000000 1.000000
vn 0.000000 0.000000 1.000000
vn 0.000000 0.000000 1.000000
vn -1.000000 0.000000 0.000000
vn -1.000000 0.000000 0.000000
vn -1.000000 0.000000 0.000000
vn -1.000000 0.000000 0.000000
vn 0.000000 0.000000 1.000000
vn 0.000000 0.000000 1.000000
vn 0.000000 0.000000 1.000000
vn 0.000000 0.000000 1.000000
vn -0.928477 0.000000 -0.371391
vn -0.928477 0.000000 -0.371391
vn -0.928477 0.000000 -0.371391
vn -0.928477 0.000000 -0.371391
vn 0.928477 0.000000 0.371391
vn 0.928477 0.000000 0.371391
vn 0.928477 0.000000 0.371391
vn 0.928477 0.000000 0.371391
vn 1.000000 0.000000 0.000000
vn 1.000000 0.000000 0.000000
vn 1.000000 0.000000 0.000000
vn 1.000000 0.000000 0.000000
vn 0.000000 0.000000 -1.000000
vn 0.000000 0.000000 -1.000000
vn 0.000000 0.000000 -1.000000
vn 0.000000 0.000000 -1.000000
vn 0.000000 1.000000 0.000000
vn 0.000000 1.000000 0.000000
vn 0.000000 1.000000 0.000000
vn 0.000000 -1.000000 0.000000
vn 0.000000 -1.000000 0.000000
vn 0.000000 -1.000000 0.000000
vn 0.000000 -1.000000 0.000000
vn 0.000000 1.000000 0.000000
vn 0.000000 1.000000 0.000000
vn 0.000000 1.000000 0.000000
vn 0.000000 1.000000 0.000000
vn 0.000000 -1.000000 0.000000
vn 0.000000 -1.000000 0.000000
vn 0.000000 -1.000000 0.000000
g seven
f 3/17/1 9/51/2 2/52/3
f 2/20/3 9/18/2 8/19/4
f 1/1/5 4/53/6 14/54/7
f 14/23/7 4/21/6 5/22/8
f 4/24/9 6/55/10 5/56/11
f 5/27/11 6/25/10 7/26/12
f 6/28/13 8/57/14 7/58/15
f 7/31/15 8/29/14 9/30/16
f 2/32/17 10/59/18 3/60/19
f 3/35/19 10/33/18 11/34/20
f 10/36/21 12/61/22 11/62/23
f 11/39/23 12/37/22 13/38/24
f 12/40/25 1/63/26 13/64/27
f 13/42/27 1/41/26 14/16/28
f 13/43/29 7/44/30 11/45/31
f 12/46/32 6/65/33 1/66/34
f 1/15/34 6/47/33 4/4/35
f 13/13/29 14/67/36 7/68/30
f 7/48/30 14/14/36 5/5/37
f 11/11/31 7/69/30 3/70/38
f 3/3/38 7/7/30 9/9/39
f 10/50/40 2/71/41 6/72/33
f 6/49/33 2/2/41 8/8/42
f 6/6/33 12/12/32 10/10/40
