# This file uses centimeters as units for non-parametric coordinates.

v 6.277660 1.223908 5.353483
v 8.363367 1.232973 5.353483
v 8.370865 1.054893 5.353483
v 6.634550 1.035760 5.353483
v 7.009542 -0.274852 5.353483
v 7.407980 -0.424908 5.353483
v 4.210154 -0.451899 5.353483
v 4.479943 -0.247862 5.353483
v 4.105612 2.449011 5.353483
v 4.352295 2.609569 5.353483
v 2.345471 2.389576 5.353483
v 2.706934 2.268105 5.353483
v 2.945916 -0.621752 5.353483
v 3.190059 -0.806913 5.353483
v 0.573102 -0.718815 5.353483
v 0.377229 -0.928520 5.353483
v 0.462960 0.560967 5.353483
v 0.796959 0.743758 5.353483
v -0.974366 0.805247 5.353483
v -0.784223 0.499478 5.353483
v -1.443751 -1.178594 5.353483
v -1.166213 -1.379871 5.353483
v -3.007511 -1.117418 5.495377
v -3.312548 -1.250106 5.522536
v -3.408526 1.395270 5.353483
v -3.071320 1.513043 5.353483
v -4.805284 1.730832 5.353483
v -4.847867 1.578335 5.353483
v -6.219987 1.408704 5.353483
v -5.987288 1.317384 5.353483
v -5.797851 -1.045444 5.353483
v -6.177426 -0.853086 5.353483
v -7.417706 -0.827013 5.353483
v -7.111499 -0.710987 5.353483
v -7.539048 0.091056 5.353483
v -7.144952 0.156759 5.353483
v -8.681461 0.205097 5.353483
v -9.021046 0.370724 5.353483
v -8.621952 -0.451452 5.353483
v -8.383982 -0.612760 5.353483
v -10.718978 -0.143595 5.353483
v -10.572279 0.017823 5.353483
v 8.418222 -0.328365 5.353483
v 10.162026 1.257347 5.353483
v 10.169526 1.079268 5.353483
v 7.407980 -10.859948 5.353483
v 4.210154 -10.859948 5.353483
v -1.166213 -10.859948 5.353483
v -3.312548 -10.859948 5.522536
v -5.797851 -10.859948 5.353483
v -7.417706 -10.859948 5.353483
v 3.190059 -10.859948 5.353483
v 0.377229 -10.859948 5.353483
v 8.418222 -10.859948 5.353483
v -8.383982 -10.859948 5.353483
vt 0.196300 0.866667
vt 0.196300 0.866667
vt 0.279513 0.339116
vt 0.126452 0.339116
vt 0.090858 0.866667
vt 0.126452 0.339116
vt 0.279513 0.339116
vt 0.090858 0.866667
vt 0.279513 0.339116
vt 0.196300 0.866667
vt 0.196300 0.866667
vt 0.126452 0.339116
vt 0.196300 0.866667
vt 0.126452 0.339116
vt 0.090858 0.866667
vt 0.279513 0.339116
vt 0.279513 0.339116
vt 0.196300 0.866667
vt 0.196300 0.866667
vt 0.126452 0.339116
vt 0.196300 0.866667
vt 0.126452 0.339116
vt 0.090858 0.866667
vt 0.279513 0.339116
vt 0.279513 0.339116
vt 0.196300 0.866667
vt 0.196300 0.866667
vt 0.279513 0.339116
vt 0.090858 0.972110
vt 0.126452 0.339116
vt 0.126452 0.339116
vt 0.090858 0.866667
vt 0.279513 0.339116
vt 0.090858 0.866667
vt 0.279513 0.339116
vt 0.090858 0.866667
vt 0.126452 0.339116
vt 0.196300 0.866667
vt 0.090858 0.866667
vt 0.126452 0.339116
vt 0.196300 0.972110
vt 0.090858 0.972110
vt 0.279513 0.339116
vt 0.196300 0.972110
vt 0.090858 0.972110
vt 0.126452 0.492178
vt 0.279513 0.492178
vt 0.126452 0.492178
vt 0.279513 0.492178
vt 0.126452 0.492178
vt 0.279513 0.492178
vt 0.126452 0.492178
vt 0.279513 0.492178
vt 0.279513 0.492178
vt 0.126452 0.492178
vt 0.090858 0.866667
vt 0.196300 0.866667
vt 0.196300 0.972110
vt 0.090858 0.972110
vt 0.090858 0.866667
vt 0.196300 0.972110
vt 0.090858 0.972110
vt 0.196300 0.866667
vt 0.196300 0.972110
vt 0.090858 0.972110
vt 0.196300 0.866667
vt 0.196300 0.972110
vt 0.090858 0.972110
vt 0.090858 0.866667
vt 0.196300 0.972110
vt 0.090858 0.972110
vt 0.090858 0.866667
vt 0.196300 0.972110
vt 0.090858 0.972110
vt 0.090858 0.866667
vt 0.196300 0.972110
vt 0.090858 0.972110
vt 0.196300 0.866667
vt 0.196300 0.972110
vt 0.090858 0.972110
vt 0.090858 0.866667
vt 0.196300 0.972110
vt 0.090858 0.972110
vt 0.090858 0.866667
vt 0.196300 0.972110
vt 0.090858 0.972110
vt 0.090858 0.866667
vt 0.196300 0.972110
vt 0.090858 0.972110
vt 0.196300 0.866667
vt 0.196300 0.972110
vt 0.090858 0.972110
vt 0.090858 0.866667
vt 0.196300 0.972110
vt 0.090858 0.972110
vt 0.090858 0.866667
vt 0.196300 0.972110
vt 0.090858 0.972110
vt 0.090858 0.866667
vt 0.196300 0.866667
vt 0.196300 0.972110
vt 0.196300 0.866667
vt 0.196300 0.972110
vt 0.090858 0.972110
vt 0.196300 0.866667
vt 0.196300 0.972110
vt 0.090858 0.972110
vt 0.196300 0.866667
vt 0.196300 0.972110
vt 0.090858 0.972110
vt 0.090858 0.866667
vt 0.196300 0.972110
vt 0.090858 0.972110
vt 0.196300 0.866667
vt 0.090858 0.866667
vt 0.279513 0.492178
vt 0.126452 0.492178
vt 0.279513 0.492178
vt 0.126452 0.492178
vt 0.279513 0.492178
vt 0.126452 0.492178
vt 0.126452 0.339116
vt 0.279513 0.492178
vt 0.279513 0.492178
vt 0.126452 0.492178
vt 0.279513 0.492178
vt 0.126452 0.492178
vt 0.126452 0.339116
vt 0.279513 0.339116
vt 0.279513 0.492178
vt 0.126452 0.492178
vt 0.126452 0.339116
vt 0.279513 0.339116
vt 0.279513 0.492178
vt 0.126452 0.492178
vt 0.126452 0.339116
vt 0.279513 0.339116
vt 0.279513 0.492178
vt 0.126452 0.492178
vt 0.126452 0.339116
vt 0.279513 0.339116
vt 0.279513 0.492178
vt 0.126452 0.492178
vn -0.000000 0.000000 1.000000
vn -0.000000 0.000000 1.000000
vn -0.000000 0.000000 1.000000
vn 0.000000 0.000000 1.000000
vn 0.000001 0.000000 1.000000
vn 0.000002 0.000000 1.000000
vn 0.000001 0.000000 1.000000
vn 0.000002 0.000000 1.000000
vn 0.000000 0.000000 1.000000
vn 0.000000 0.000000 1.000000
vn 0.000000 0.000000 1.000000
vn 0.000000 0.000000 1.000000
vn 0.000000 0.000000 1.000000
vn -0.000000 0.000000 1.000000
vn -0.000002 0.000000 1.000000
vn -0.000003 0.000000 1.000000
vn -0.000000 0.000000 1.000000
vn -0.000000 0.000000 1.000000
vn -0.000000 0.000000 1.000000
vn 0.000000 0.000000 1.000000
vn 0.000002 0.000000 1.000000
vn 0.000003 0.000000 1.000000
vn 0.000002 0.000000 1.000000
vn 0.000003 0.000000 1.000000
vn 0.000000 0.000000 1.000000
vn -0.000000 0.000000 1.000000
vn 0.000000 0.000000 1.000000
vn -0.000000 0.000000 1.000000
vn 0.000003 0.000000 1.000000
vn 0.000003 0.000000 1.000000
vn 0.000000 0.000000 1.000000
vn 0.000000 0.000000 1.000000
vn 0.000000 0.000000 1.000000
vn 0.000000 0.000000 1.000000
vn 0.000000 0.000000 1.000000
vn 0.000000 0.000000 1.000000
vn 0.000000 0.000000 1.000000
vn 0.000000 0.000000 1.000000
vn 0.000000 0.000000 1.000000
vn 0.000000 0.000000 1.000000
vn 0.090228 -0.003581 0.995915
vn 0.088704 0.035129 0.995438
vn 0.085122 0.115149 0.989694
vn 0.085021 0.117235 0.989458
vn 0.060047 0.065829 0.996023
vn 0.054244 0.064926 0.996415
vn -0.013913 0.054162 0.998435
vn -0.018653 0.053404 0.998399
vn 0.000000 0.000000 1.000000
vn 0.000000 0.000000 1.000000
vn 0.000000 0.000000 1.000000
vn 0.000000 0.000000 1.000000
vn 0.000000 0.000000 1.000000
vn 0.000001 0.000000 1.000000
vn 0.000000 0.000000 1.000000
vn 0.000001 0.000000 1.000000
vn 0.000000 0.000000 1.000000
vn 0.000000 0.000000 1.000000
vn 0.000000 0.000000 1.000000
vn 0.000000 0.000000 1.000000
vn 0.000001 0.000000 1.000000
vn 0.000001 0.000000 1.000000
vn 0.000001 0.000000 1.000000
vn 0.000001 0.000000 1.000000
vn 0.000000 0.000000 1.000000
vn 0.000000 0.000000 1.000000
vn 0.000000 0.000000 1.000000
vn 0.000000 0.000000 1.000000
vn 0.000000 0.000000 1.000000
vn 0.000000 0.000000 1.000000
vn 0.000000 0.000000 1.000000
vn 0.000000 0.000000 1.000000
vn 0.000002 0.000000 1.000000
vn 0.000000 0.000000 1.000000
vn 0.000002 0.000000 1.000000
vn 0.000000 0.000000 1.000000
vn 0.000000 0.000000 1.000000
vn 0.000000 0.000000 1.000000
vn 0.000001 0.000000 1.000000
vn 0.000001 0.000000 1.000000
vn -0.000000 0.000000 1.000000
vn -0.000000 0.000000 1.000000
vn -0.000000 0.000000 1.000000
vn 0.000000 0.000000 1.000000
vn 0.000000 0.000000 1.000000
vn -0.000000 0.000000 1.000000
vn -0.000000 0.000000 1.000000
vn -0.000001 0.000000 1.000000
vn -0.000001 0.000000 1.000000
vn -0.000000 0.000000 1.000000
vn 0.000000 0.000000 1.000000
vn 0.000000 0.000000 1.000000
vn 0.008149 0.064067 0.997912
vn 0.008149 0.064067 0.997912
vn 0.008149 0.064067 0.997912
vn -0.000000 0.000000 1.000000
vn -0.058156 0.021056 0.998085
vn -0.044525 0.016121 0.998878
vn -0.065889 0.023856 0.997542
vn -0.000000 0.000000 1.000000
vn -0.000000 0.000000 1.000000
vn -0.000000 0.000000 1.000000
vn -0.000001 0.000000 1.000000
vn 0.000000 0.000000 1.000000
vn 0.000000 0.000000 1.000000
vn 0.000000 0.000000 1.000000
vn 0.000000 0.000000 1.000000
vn -0.000000 0.000000 1.000000
vn -0.000000 0.000000 1.000000
vn -0.000000 0.000000 1.000000
vn 0.000000 0.000000 1.000000
vn 0.078520 0.000000 0.996913
vn 0.078520 0.000000 0.996913
vn 0.078520 0.000000 0.996913
vn 0.078521 0.000000 0.996913
vn -0.000001 0.000000 1.000000
vn -0.000000 0.000000 1.000000
vn -0.000001 0.000000 1.000000
vn 0.000000 0.000000 1.000000
vn 0.000000 0.000000 1.000000
vn 0.000000 0.000000 1.000000
vn 0.000000 0.000000 1.000000
vn 0.000000 0.000000 1.000000
vn -0.000001 0.000000 1.000000
vn -0.000001 0.000000 1.000000
vn -0.000000 0.000000 1.000000
vn 0.000000 0.000000 1.000000
vn 0.000001 0.000000 1.000000
vn 0.000001 0.000000 1.000000
vn 0.000000 0.000000 1.000000
vn 0.000000 0.000000 1.000000
vn 0.000000 0.000000 1.000000
vn 0.000000 0.000000 1.000000
vn 0.000000 0.000000 1.000000
vn 0.000000 0.000000 1.000000
vn -0.067864 0.000000 0.997695
vn -0.067864 0.000000 0.997695
vn -0.067864 0.000000 0.997695
vn -0.067864 0.000000 0.997695
vn 0.000000 0.000000 1.000000
vn 0.000000 0.000000 1.000000
vn 0.000000 0.000000 1.000000
vn 0.000000 0.000000 1.000000
g silhouete1
f 1/56/1 4/59/2 2/57/3
f 4/59/2 3/58/4 2/57/3
f 1/1/5 5/60/6 4/61/7
f 5/60/6 6/62/8 4/61/7
f 6/63/9 5/5/10 7/64/11
f 5/5/10 8/65/12 7/64/11
f 7/66/13 8/8/14 9/67/15
f 8/8/14 10/68/16 9/67/15
f 10/10/17 11/69/18 9/70/19
f 11/69/18 12/71/20 9/70/19
f 11/11/21 13/72/22 12/73/23
f 13/72/22 14/74/24 12/73/23
f 13/13/25 15/75/26 14/76/27
f 15/75/26 16/77/28 14/76/27
f 16/78/29 15/15/30 17/79/31
f 15/15/30 18/80/32 17/79/31
f 18/18/33 19/81/34 17/82/35
f 19/81/34 20/83/36 17/82/35
f 19/19/37 21/84/38 20/85/39
f 21/84/38 22/86/40 20/85/39
f 23/87/41 24/89/42 21/21/43
f 24/89/42 22/88/44 21/21/43
f 24/90/45 23/23/46 25/91/47
f 23/23/46 26/92/48 25/91/47
f 26/26/49 27/93/50 25/94/51
f 27/93/50 28/95/52 25/94/51
f 27/27/53 29/96/54 28/97/55
f 29/96/54 30/98/56 28/97/55
f 31/100/57 30/99/58 32/101/59
f 30/99/58 29/29/60 32/101/59
f 31/102/61 32/32/62 33/103/63
f 32/32/62 34/104/64 33/103/63
f 33/105/65 34/34/66 35/106/67
f 34/34/66 36/107/68 35/106/67
f 35/108/69 36/36/70 37/109/71
f 36/36/70 38/110/72 37/109/71
f 38/38/73 39/111/74 37/112/75
f 39/111/74 40/113/76 37/112/75
f 40/114/77 39/39/78 41/41/79
f 39/39/78 42/42/80 41/41/79
f 4/4/81 6/117/82 3/3/83
f 6/117/82 43/116/84 3/3/83
f 9/9/85 12/12/86 7/118/87
f 12/12/86 14/119/88 7/118/87
f 17/17/89 20/20/90 16/120/91
f 20/20/90 22/121/92 16/120/91
f 28/122/93 24/123/94 25/25/95
f 30/30/96 31/125/97 28/28/98
f 31/125/97 24/124/99 28/28/98
f 37/37/100 40/127/101 35/35/102
f 40/127/101 33/126/103 35/35/102
f 3/115/104 45/45/105 2/2/106
f 45/45/105 44/44/107 2/2/106
f 6/129/108 7/128/109 46/130/110
f 7/128/109 47/131/111 46/130/110
f 24/132/112 49/135/113 22/133/114
f 49/135/113 48/134/115 22/133/114
f 33/136/116 51/139/117 31/137/118
f 51/139/117 50/138/119 31/137/118
f 14/141/120 16/140/121 52/142/122
f 16/140/121 53/143/123 52/142/122
f 43/43/124 6/6/125 54/54/126
f 6/6/125 46/46/127 54/54/126
f 7/7/128 14/14/129 47/47/130
f 14/14/129 52/52/131 47/47/130
f 16/16/132 22/22/133 53/53/134
f 22/22/133 48/48/135 53/53/134
f 31/31/136 50/50/137 24/24/138
f 50/50/137 49/49/139 24/24/138
f 40/40/140 55/55/141 33/33/142
f 55/55/141 51/51/143 33/33/142
