# This file uses centimeters as units for non-parametric coordinates.

v 1.575591 0.500000 -3.000000
v 1.575591 -0.500000 -3.000000
v -1.424409 -0.500000 -3.000000
v -1.424409 0.500000 -3.000000
v -0.424409 0.500000 -1.000000
v -0.424409 -0.500000 -1.000000
v -0.424409 -0.500000 -2.000000
v -0.424409 0.500000 -2.000000
v 1.575591 0.500000 -2.000000
v 1.575591 -0.500000 -2.000000
v -1.424409 -0.500000 3.000000
v -1.424409 0.500000 3.000000
v 1.575591 0.500000 -1.000000
v 1.575591 -0.500000 -1.000000
v -0.424409 0.500000 0.000000
v 0.575591 0.500000 0.000000
v 0.575591 -0.500000 0.000000
v -0.424409 -0.500000 0.000000
v 0.575591 -0.500000 2.000000
v -0.424409 -0.500000 2.000000
v -0.424409 0.500000 2.000000
v 0.575591 0.500000 2.000000
v 1.575591 0.500000 3.000000
v 1.575591 -0.500000 3.000000
v -0.424409 -0.500000 0.055615
vt 0.204446 0.961633
vt 0.204446 0.961633
vt 0.204446 0.961633
vt 0.204446 0.961633
vt 0.224389 0.981576
vt 0.204446 0.961633
vt 0.224389 0.961633
vt 0.224389 0.981576
vt 0.224389 0.981576
vt 0.204446 0.961633
vt 0.224389 0.981576
vt 0.224389 0.961633
vt 0.224389 0.961633
vt 0.101248 0.975026
vt 0.081305 0.955083
vt 0.081305 0.955083
vt 0.101248 0.955083
vt 0.101248 0.955083
vt 0.224389 0.981576
vt 0.224389 0.961633
vt 0.224389 0.981576
vt 0.224389 0.981576
vt 0.081305 0.955083
vt 0.101248 0.975026
vt 0.081305 0.955083
vt 0.081305 0.955083
vt 0.204446 0.961633
vt 0.204446 0.961633
vt 0.224389 0.981576
vt 0.224389 0.961633
vt 0.081305 0.955083
vt 0.101248 0.955083
vt 0.204446 0.961633
vt 0.101248 0.955083
vt 0.204446 0.961633
vt 0.204446 0.961633
vt 0.101248 0.975026
vt 0.081305 0.955083
vt 0.101248 0.955083
vt 0.101248 0.975026
vt 0.081305 0.955083
vt 0.081305 0.955083
vt 0.101248 0.955083
vt 0.101248 0.975026
vt 0.081305 0.955083
vt 0.081305 0.955083
vt 0.101248 0.955083
vt 0.101248 0.975026
vt 0.081305 0.955083
vt 0.081305 0.955083
vt 0.101248 0.955083
vt 0.101248 0.975026
vt 0.081305 0.955083
vt 0.081305 0.955083
vt 0.101248 0.955083
vt 0.101248 0.975026
vt 0.081305 0.955083
vt 0.081305 0.955083
vt 0.101248 0.955083
vt 0.081305 0.955083
vt 0.101248 0.975026
vt 0.081305 0.955083
vt 0.081305 0.955083
vt 0.101248 0.955083
vt 0.101248 0.975026
vt 0.081305 0.955083
vt 0.081305 0.955083
vt 0.101248 0.975026
vt 0.081305 0.955083
vt 0.081305 0.955083
vt 0.101248 0.955083
vt 0.101248 0.975026
vt 0.081305 0.955083
vt 0.204446 0.961633
vt 0.224389 0.961633
vt 0.224389 0.981576
vt 0.204446 0.961633
vt 0.204446 0.961633
vt 0.204446 0.961633
vt 0.224389 0.961633
vt 0.224389 0.981576
vt 0.224389 0.961633
vt 0.224389 0.981576
vt 0.204446 0.961633
vt 0.224389 0.961633
vt 0.224389 0.981576
vt 0.204446 0.961633
vt 0.224389 0.961633
vt 0.204446 0.961633
vt 0.224389 0.961633
vt 0.204446 0.961633
vt 0.224389 0.981576
vt 0.204446 0.961633
vt 0.204446 0.961633
vt 0.224389 0.961633
vt 0.204446 0.961633
vt 0.224389 0.961633
vt 0.204446 0.961633
vt 0.204446 0.961633
vt 0.224389 0.961633
vt 0.224389 0.981576
vt 0.101248 0.955083
vt 0.101248 0.975026
vt 0.101248 0.955083
vt 0.101248 0.975026
vt 0.101248 0.955083
vt 0.101248 0.975026
vt 0.101248 0.955083
vt 0.101248 0.975026
vt 0.101248 0.955083
vt 0.101248 0.975026
vt 0.101248 0.955083
vt 0.101248 0.975026
vt 0.101248 0.955083
vt 0.101248 0.975026
vt 0.101248 0.955083
vt 0.101248 0.975026
vt 0.101248 0.955083
vt 0.101248 0.975026
vt 0.101248 0.955083
vt 0.101248 0.975026
vt 0.101248 0.955083
vt 0.101248 0.975026
vt 0.101248 0.955083
vt 0.101248 0.975026
vt 0.101248 0.955083
vt 0.101248 0.975026
vt 0.224389 0.961633
vt 0.224389 0.981576
vt 0.224389 0.961633
vt 0.224389 0.981576
vt 0.224389 0.961633
vt 0.224389 0.981576
vt 0.224389 0.961633
vt 0.224389 0.981576
vt 0.224389 0.961633
vt 0.224389 0.981576
vt 0.224389 0.961633
vt 0.224389 0.981576
vt 0.224389 0.961633
vt 0.224389 0.981576
vt 0.224389 0.961633
vt 0.224389 0.981576
vt 0.224389 0.961633
vt 0.224389 0.981576
vt 0.224389 0.961633
vt 0.224389 0.981576
vn 0.000000 0.000000 -1.000000
vn 0.000000 0.000000 -1.000000
vn 0.000000 0.000000 -1.000000
vn 0.000000 0.000000 -1.000000
vn 1.000000 0.000000 0.000000
vn 1.000000 0.000000 0.000000
vn 1.000000 0.000000 0.000000
vn 1.000000 0.000000 0.000000
vn 0.000000 0.000000 1.000000
vn 0.000000 0.000000 1.000000
vn 0.000000 0.000000 1.000000
vn 0.000000 0.000000 1.000000
vn -1.000000 0.000000 0.000000
vn -1.000000 0.000000 0.000000
vn -1.000000 0.000000 0.000000
vn -1.000000 0.000000 0.000000
vn 1.000000 0.000000 0.000000
vn 1.000000 0.000000 0.000000
vn 1.000000 0.000000 0.000000
vn 1.000000 0.000000 0.000000
vn 0.000000 0.000000 -1.000000
vn 0.000000 0.000000 -1.000000
vn 0.000000 0.000000 -1.000000
vn 0.000000 0.000000 -1.000000
vn 0.000000 0.000000 1.000000
vn 0.000000 0.000000 1.000000
vn 0.000000 0.000000 1.000000
vn 0.000000 0.000000 1.000000
vn 1.000000 0.000000 0.000000
vn 1.000000 -0.000000 0.000000
vn 1.000000 -0.000000 0.000000
vn 1.000000 -0.000000 0.000000
vn 1.000000 0.000000 0.000000
vn -1.000000 0.000000 0.000000
vn -1.000000 0.000000 0.000000
vn -1.000000 0.000000 0.000000
vn -1.000000 0.000000 0.000000
vn 0.000000 0.000000 -1.000000
vn 0.000000 0.000000 -1.000000
vn 0.000000 0.000000 -1.000000
vn 0.000000 0.000000 -1.000000
vn 1.000000 0.000000 0.000000
vn 1.000000 0.000000 0.000000
vn 1.000000 0.000000 0.000000
vn 1.000000 0.000000 0.000000
vn 0.000000 0.000000 1.000000
vn 0.000000 0.000000 1.000000
vn 0.000000 0.000000 1.000000
vn 0.000000 0.000000 1.000000
vn 0.000000 -1.000000 0.000000
vn 0.000000 -1.000000 0.000000
vn 0.000000 -1.000000 0.000000
vn 0.000000 -1.000000 0.000000
vn 0.000000 1.000000 0.000000
vn 0.000000 1.000000 0.000000
vn 0.000000 1.000000 0.000000
vn 0.000000 1.000000 0.000000
vn 0.000000 -1.000000 0.000000
vn 0.000000 -1.000000 0.000000
vn 0.000000 -1.000000 0.000000
vn 0.000000 -1.000000 0.000000
vn 0.000000 1.000000 0.000000
vn 0.000000 1.000000 0.000000
vn 0.000000 1.000000 0.000000
vn 0.000000 1.000000 0.000000
vn 0.000000 1.000000 0.000000
vn 0.000000 1.000000 0.000000
vn 0.000000 1.000000 0.000000
vn 0.000000 1.000000 0.000000
vn 0.000000 -1.000000 0.000000
vn 0.000000 -1.000000 0.000000
vn 0.000000 -1.000000 0.000000
vn 0.000000 -1.000000 0.000000
g six
f 1/38/1 2/102/2 4/103/3
f 4/41/3 2/39/2 3/40/4
f 5/42/5 6/104/6 8/105/7
f 8/45/7 6/43/6 7/44/8
f 9/46/9 8/106/10 10/107/11
f 10/49/11 8/47/10 7/48/12
f 11/50/13 12/108/14 3/109/15
f 3/53/15 12/51/14 4/52/16
f 9/54/17 10/110/18 1/111/19
f 1/57/19 10/55/18 2/56/20
f 5/58/21 13/112/22 6/113/23
f 6/60/23 13/59/22 14/14/24
f 15/15/25 18/114/26 16/115/27
f 16/62/27 18/18/26 17/61/28
f 18/23/29 15/116/30 25/117/31
f 15/26/30 21/118/32 25/119/31
f 21/63/32 20/64/33 25/37/31
f 16/16/34 17/120/35 22/121/36
f 22/66/36 17/17/35 19/65/37
f 22/31/38 19/122/39 21/123/40
f 21/25/40 19/32/39 20/24/41
f 14/67/42 13/124/43 24/125/44
f 24/69/44 13/34/43 23/68/45
f 12/70/46 11/126/47 23/127/48
f 23/73/48 11/71/47 24/72/49
f 19/74/50 17/128/51 24/129/52
f 24/77/52 17/75/51 14/76/53
f 13/79/54 5/130/55 16/131/56
f 16/78/56 5/80/55 15/81/57
f 10/10/58 7/132/59 2/133/60
f 2/2/60 7/82/59 3/83/61
f 15/84/57 12/85/62 21/86/63
f 4/87/64 8/134/65 1/135/66
f 1/1/66 8/88/65 9/9/67
f 4/89/64 5/90/55 8/8/65
f 12/91/62 15/136/57 4/137/64
f 4/4/64 15/30/57 5/5/55
f 21/27/63 12/138/62 22/139/68
f 22/93/68 12/12/62 23/92/69
f 23/35/69 13/140/54 22/141/68
f 22/28/68 13/13/54 16/29/56
f 11/94/70 20/142/71 24/143/52
f 24/36/52 20/95/71 19/21/50
f 11/96/70 18/97/72 20/22/71
f 6/99/73 18/144/72 3/145/61
f 3/98/61 18/100/72 11/11/70
f 3/3/61 7/7/59 6/101/73
f 14/33/53 17/146/51 6/147/73
f 6/6/73 17/20/51 18/19/72
