# This file uses centimeters as units for non-parametric coordinates.

v -7.802095 -0.114174 4.713947
v -7.802095 0.149052 4.713947
v 7.773015 -1.221369 4.539021
v 7.773015 -1.484594 4.539021
v 0.378110 -3.723755 8.539915
v 0.150248 -3.900262 8.513924
v -5.105111 0.851837 7.696234
v -5.365458 0.726601 7.575569
v -6.403883 -1.915140 6.295660
v -6.224971 -2.257037 6.472239
v -7.253478 -0.088962 5.576118
v -7.467254 -0.281997 5.331720
v -7.346263 -1.508710 5.182819
v -7.530972 -1.692068 4.924864
v -6.393751 1.695220 6.408525
v -6.271076 1.443955 6.644745
v -6.483287 -1.360248 6.388279
v -6.314282 -1.559362 6.580099
v -4.947603 1.678278 7.668810
v -5.233448 1.432495 7.554506
v -2.512924 -3.415884 8.260147
v -2.219280 -3.732689 8.296036
v -5.241029 -2.733489 7.089279
v -5.461421 -2.922723 6.906754
v -5.527871 -1.054435 7.400415
v -5.297741 -1.021361 7.539049
v -4.595057 -2.950594 7.479475
v -4.697640 -3.175586 7.357527
v -2.237584 -1.066065 9.009249
v -2.133079 -1.335671 9.052053
v -2.936288 -1.035532 8.798672
v -2.666580 -1.314217 8.900326
v -0.197131 -1.108487 9.305819
v -0.410526 -1.371898 9.302153
v 6.384210 0.163192 6.658594
v 6.218671 -0.018296 6.871910
v 3.924579 -3.041528 7.836096
v 4.181941 -3.122960 7.709467
v 0.488457 -4.196375 8.287880
v 0.280872 -4.458715 8.224352
v 3.948722 -3.725068 7.483635
v 4.213666 -3.921412 7.308540
v 2.294763 -4.292741 7.949434
v 2.279084 -4.051467 8.050388
v 4.775918 0.568584 7.953482
v 4.819794 0.309664 7.978582
v 3.396196 0.363685 8.686897
v 3.709073 0.143590 8.593510
v 4.010711 -1.452967 8.317087
v 3.748255 -1.432900 8.399725
v 5.340922 0.655432 7.555737
v 5.344192 0.390186 7.608177
v 6.552839 -2.311357 5.985300
v 6.714625 -2.471768 5.791471
v 6.104391 -2.289497 6.494091
v 5.898928 -2.549521 6.668571
v 6.000382 -2.679676 6.409233
v 5.762465 -3.130513 6.559008
v 7.476315 -0.818554 5.137230
v 7.309156 -1.246991 5.449581
v 6.755821 -1.287347 6.080853
v 6.925070 -1.473481 5.893711
v 7.271479 -1.651241 5.213043
v 7.065318 -2.155630 5.516640
v 10.861056 -1.116569 4.539024
v 10.861056 -1.589394 4.539024
v -10.076645 -0.268345 4.713951
v -10.076645 0.303223 4.713951
vt 0.121306 0.714826
vt 0.121306 0.714826
vt 0.121306 0.714826
vt 0.300491 0.894011
vt 0.300491 0.714826
vt 0.121306 0.714826
vt 0.121306 0.714826
vt 0.121306 0.714826
vt 0.300491 0.714826
vt 0.300491 0.894011
vt 0.121306 0.714826
vt 0.121306 0.714826
vt 0.300491 0.714826
vt 0.300491 0.894011
vt 0.121306 0.714826
vt 0.300491 0.714826
vt 0.121306 0.714826
vt 0.121306 0.714826
vt 0.300491 0.894011
vt 0.121306 0.714826
vt 0.121306 0.714826
vt 0.300491 0.714826
vt 0.300491 0.894011
vt 0.300491 0.894011
vt 0.300491 0.894011
vt 0.300491 0.714826
vt 0.300491 0.714826
vt 0.121306 0.714826
vt 0.121306 0.714826
vt 0.121306 0.714826
vt 0.121306 0.714826
vt 0.300491 0.894011
vt 0.300491 0.714826
vt 0.300491 0.894011
vt 0.300491 0.894011
vt 0.300491 0.714826
vt 0.300491 0.894011
vt 0.121306 0.714826
vt 0.121306 0.714826
vt 0.121306 0.714826
vt 0.121306 0.714826
vt 0.300491 0.714826
vt 0.121306 0.714826
vt 0.300491 0.894011
vt 0.300491 0.714826
vt 0.121306 0.714826
vt 0.300491 0.894011
vt 0.121306 0.714826
vt 0.300491 0.714826
vt 0.300491 0.714826
vt 0.121306 0.714826
vt 0.300491 0.894011
vt 0.121306 0.714826
vt 0.121306 0.714826
vt 0.121306 0.714826
vt 0.121306 0.714826
vt 0.300491 0.714826
vt 0.121306 0.714826
vt 0.300491 0.894011
vt 0.300491 0.714826
vt 0.300491 0.714826
vt 0.121306 0.714826
vt 0.300491 0.894011
vt 0.300491 0.894011
vt 0.121306 0.714826
vt 0.300491 0.714826
vt 0.300491 0.894011
vt 0.121306 0.714826
vt 0.121306 0.714826
vt 0.300491 0.714826
vt 0.121306 0.714826
vt 0.300491 0.894011
vt 0.121306 0.714826
vt 0.300491 0.714826
vt 0.121306 0.714826
vt 0.300491 0.894011
vt 0.121306 0.714826
vt 0.300491 0.714826
vt 0.300491 0.894011
vt 0.121306 0.714826
vt 0.121306 0.714826
vt 0.300491 0.714826
vt 0.300491 0.894011
vt 0.121306 0.714826
vt 0.300491 0.714826
vt 0.300491 0.894011
vt 0.300491 0.714826
vt 0.300491 0.894011
vt 0.121306 0.714826
vt 0.300491 0.894011
vt 0.121306 0.714826
vt 0.300491 0.714826
vt 0.300491 0.894011
vt 0.121306 0.714826
vt 0.300491 0.714826
vt 0.300491 0.894011
vt 0.300491 0.714826
vt 0.300491 0.894011
vt 0.300491 0.714826
vt 0.300491 0.894011
vt 0.300491 0.714826
vt 0.300491 0.894011
vt 0.121306 0.714826
vt 0.300491 0.714826
vt 0.300491 0.894011
vt 0.121306 0.714826
vt 0.300491 0.714826
vt 0.300491 0.894011
vt 0.300491 0.714826
vt 0.300491 0.894011
vt 0.300491 0.714826
vt 0.300491 0.894011
vt 0.121306 0.714826
vt 0.300491 0.714826
vt 0.300491 0.894011
vt 0.121306 0.714826
vt 0.300491 0.714826
vt 0.300491 0.894011
vt 0.121306 0.714826
vt 0.300491 0.714826
vt 0.300491 0.894011
vt 0.121306 0.714826
vt 0.300491 0.714826
vt 0.300491 0.894011
vt 0.300491 0.714826
vt 0.300491 0.894011
vt 0.300491 0.714826
vt 0.300491 0.894011
vt 0.121306 0.714826
vt 0.300491 0.714826
vt 0.300491 0.894011
vt 0.121306 0.714826
vt 0.300491 0.714826
vt 0.300491 0.894011
vt 0.300491 0.714826
vt 0.300491 0.894011
vt 0.300491 0.714826
vt 0.300491 0.894011
vt 0.121306 0.714826
vt 0.300491 0.714826
vt 0.300491 0.894011
vt 0.121306 0.714826
vt 0.300491 0.714826
vt 0.300491 0.894011
vt 0.121306 0.714826
vt 0.300491 0.714826
vt 0.300491 0.894011
vt 0.121306 0.714826
vt 0.300491 0.714826
vt 0.300491 0.894011
vt 0.121306 0.714826
vt 0.300491 0.714826
vt 0.300491 0.894011
vt 0.300491 0.714826
vt 0.300491 0.714826
vt 0.300491 0.894011
vt 0.121306 0.714826
vt 0.300491 0.894011
vt 0.300491 0.714826
vt 0.300491 0.894011
vt 0.121306 0.714826
vt 0.300491 0.714826
vt 0.300491 0.894011
vt 0.300491 0.714826
vt 0.121306 0.714826
vt 0.300491 0.714826
vt 0.300491 0.894011
vt 0.121306 0.714826
vt 0.300491 0.714826
vt 0.300491 0.894011
vt 0.300491 0.714826
vt 0.300491 0.894011
vt 0.121306 0.714826
vt 0.300491 0.714826
vt 0.300491 0.894011
vt 0.121306 0.714826
vt 0.300491 0.714826
vt 0.300491 0.894011
vt 0.121306 0.714826
vt 0.300491 0.714826
vt 0.300491 0.894011
vt 0.300491 0.714826
vt 0.300491 0.714826
vt 0.300491 0.894011
vt 0.121306 0.714826
vt 0.300491 0.714826
vt 0.300491 0.894011
vt 0.121306 0.714826
vt 0.300491 0.714826
vt 0.300491 0.894011
vt 0.300491 0.714826
vt 0.300491 0.894011
vt 0.300491 0.714826
vt 0.300491 0.894011
vt 0.300491 0.714826
vt 0.300491 0.894011
vt 0.300491 0.714826
vt 0.300491 0.894011
vn 0.881638 -0.080459 0.465017
vn 0.801265 0.008237 0.598253
vn 0.883178 -0.079662 0.462223
vn 0.802268 0.000000 0.596964
vn 0.090740 -0.087315 0.992040
vn 0.086345 -0.088246 0.992349
vn 0.124035 -0.287711 0.949651
vn 0.138643 -0.314241 0.939165
vn -0.567353 0.303899 0.765347
vn -0.567745 0.302673 0.765542
vn -0.431577 0.031313 0.901533
vn -0.421661 -0.012526 0.906667
vn -0.760398 -0.123096 0.637685
vn -0.763972 -0.120526 0.633893
vn -0.795196 -0.110507 0.596197
vn -0.796810 -0.110130 0.594108
vn -0.879164 0.000000 0.476519
vn -0.750980 -0.026769 0.659782
vn -0.859777 0.059089 0.507239
vn -0.745230 -0.018602 0.666548
vn -0.785008 -0.067412 0.615807
vn -0.812551 0.130482 0.568098
vn -0.765824 -0.017785 0.642804
vn -0.813170 0.136324 0.565836
vn -0.424042 -0.274449 0.863056
vn -0.449812 -0.254024 0.856236
vn -0.410483 -0.278397 0.868331
vn -0.406366 -0.278059 0.870373
vn -0.506755 -0.215046 0.834838
vn -0.506346 -0.216523 0.834704
vn -0.494261 -0.153945 0.855574
vn -0.493710 -0.122708 0.860926
vn -0.523543 -0.205037 0.826960
vn -0.517348 -0.207193 0.830315
vn -0.190803 0.085097 0.977933
vn -0.161117 0.093535 0.982493
vn 0.633042 0.157944 0.757833
vn 0.791784 -0.014915 0.610619
vn 0.635272 0.162227 0.755058
vn 0.795493 -0.013532 0.605812
vn 0.325578 -0.345536 0.880116
vn 0.316683 -0.355587 0.879358
vn 0.327734 -0.346061 0.879109
vn 0.331522 -0.316329 0.888836
vn 0.175406 -0.360630 0.916067
vn 0.173710 -0.362014 0.915844
vn 0.258855 -0.355430 0.898144
vn 0.255874 -0.358947 0.897600
vn 0.316442 0.047847 0.947405
vn 0.320178 0.045711 0.946254
vn 0.487909 0.173871 0.855403
vn 0.489557 0.165944 0.856035
vn 0.281844 -0.220633 0.933748
vn 0.277148 -0.187265 0.942402
vn 0.729954 -0.164851 0.663318
vn 0.664094 -0.185457 0.724282
vn 0.724083 -0.167616 0.669036
vn 0.661139 -0.199537 0.723243
vn 0.779805 -0.207038 0.590795
vn 0.751127 -0.155144 0.641669
vn 0.680061 -0.116237 0.723882
vn 0.868193 0.011097 0.496103
vn 0.687748 -0.059453 0.723511
vn 0.864947 0.027851 0.501090
vn -0.000001 0.000000 1.000000
vn -0.000001 0.000000 1.000000
vn -0.000001 0.000000 1.000000
vn -0.000001 0.000000 1.000000
vn 0.000002 0.000000 1.000000
vn 0.000002 0.000000 1.000000
vn 0.000002 0.000000 1.000000
vn 0.000002 0.000000 1.000000
g skyline
f 64/77/1 4/78/2 63/79/3
f 63/80/3 4/33/2 3/34/4
f 33/81/5 34/82/6 5/83/7
f 5/84/7 34/85/6 6/86/8
f 19/68/9 20/87/10 7/88/11
f 7/89/11 20/66/10 8/90/12
f 13/91/13 14/92/14 9/93/15
f 9/94/15 14/95/14 10/96/16
f 1/1/17 12/97/18 2/98/19
f 2/3/19 12/99/18 11/100/20
f 14/6/14 13/101/13 12/102/18
f 12/2/18 13/5/13 11/4/20
f 18/103/21 16/104/22 17/105/23
f 17/106/23 16/107/22 15/108/24
f 10/8/16 18/109/21 9/110/15
f 9/7/15 18/9/21 17/10/23
f 16/11/22 20/111/10 15/112/24
f 15/12/24 20/13/10 19/14/9
f 27/113/25 28/114/26 21/115/27
f 21/116/27 28/117/26 22/118/28
f 24/119/29 23/120/30 25/121/31
f 25/122/31 23/123/30 26/124/32
f 25/58/31 26/125/32 8/126/12
f 8/62/12 26/60/32 7/64/11
f 24/56/29 28/127/26 23/128/30
f 23/54/30 28/50/26 27/52/25
f 31/129/33 32/130/34 29/131/35
f 29/132/35 32/133/34 30/134/36
f 22/48/28 32/135/34 21/136/27
f 21/46/27 32/42/34 31/44/33
f 30/40/36 34/137/6 29/138/35
f 29/38/35 34/36/6 33/35/5
f 52/139/37 36/140/38 51/141/39
f 51/142/39 36/143/38 35/144/40
f 42/145/41 38/146/42 41/147/43
f 41/148/43 38/149/42 37/150/44
f 40/151/45 39/152/46 6/153/8
f 6/39/8 39/154/46 5/37/7
f 42/51/41 41/155/43 43/156/47
f 43/157/47 41/49/43 44/158/48
f 40/43/45 43/159/47 39/160/46
f 39/41/46 43/45/47 44/47/48
f 47/161/49 48/162/50 45/163/51
f 45/65/51 48/164/50 46/67/52
f 49/165/53 48/166/50 50/167/54
f 50/168/54 48/61/50 47/63/49
f 38/53/42 49/169/53 37/170/44
f 37/55/44 49/57/53 50/59/54
f 46/31/52 52/171/37 45/172/51
f 45/29/51 52/27/37 51/25/39
f 58/173/55 54/174/56 57/175/57
f 57/176/57 54/177/56 53/178/58
f 56/179/59 55/180/60 36/181/38
f 36/21/38 55/182/60 35/23/40
f 58/15/55 57/183/57 56/184/59
f 56/17/59 57/16/57 55/19/60
f 62/185/61 60/186/62 61/187/63
f 61/188/63 60/189/62 59/190/64
f 54/18/56 62/191/61 53/192/58
f 53/20/58 62/22/61 61/24/63
f 59/28/64 60/193/62 63/194/3
f 63/30/3 60/26/62 64/32/1
f 3/69/65 4/195/66 65/196/67
f 65/71/67 4/70/66 66/72/68
f 1/73/69 2/197/70 67/198/71
f 67/75/71 2/74/70 68/76/72
