# This file uses centimeters as units for non-parametric coordinates.

v -1.211159 6.518682 -4.768487
v -1.306598 12.814077 -4.768487
v -1.453638 6.518012 -4.768487
v -1.392972 12.813838 -4.768487
v -2.568433 6.006508 -4.768487
v -8.167114 9.632717 -4.768487
v -2.702623 5.804545 -4.768487
v -8.214914 9.560776 -4.768487
v -1.884121 6.415470 -4.768487
v -4.776568 12.007863 -4.768487
v -2.100862 6.306753 -4.768487
v -4.853775 11.969137 -4.768487
v 0.381071 5.458596 -4.768487
v 7.464256 7.815314 -4.768487
v 0.306929 5.689462 -4.768487
v 7.437846 7.897551 -4.768487
v -1.638618 3.374711 -4.768487
v -1.414491 3.446689 -4.576095
v -0.873399 3.620459 -4.496404
v -0.332307 3.794228 -4.576095
v -0.108180 3.866206 -4.768487
v -2.394076 3.498738 -4.768487
v -1.979943 3.631736 -4.412992
v -0.980136 3.952820 -4.265742
v 0.019672 4.273904 -4.412992
v 0.433805 4.406902 -4.768487
v -2.987280 3.856947 -4.768487
v -2.446189 4.030716 -4.304011
v -1.139878 4.450233 -4.111619
v 0.166433 4.869750 -4.304011
v 0.707524 5.043520 -4.768487
v -3.327921 4.394804 -4.768487
v -2.742248 4.582891 -4.265742
v -1.328307 5.036973 -4.057498
v 0.085633 5.491055 -4.265742
v 0.671307 5.679142 -4.768487
v -3.364139 5.030426 -4.768487
v -2.823048 5.204196 -4.304011
v -1.516737 5.623713 -4.111619
v -0.210426 6.043230 -4.304011
v 0.330666 6.217000 -4.768487
v -3.090420 5.667044 -4.768487
v -2.676286 5.800042 -4.412992
v -1.676479 6.121126 -4.265742
v -0.676672 6.442211 -4.412992
v -0.262539 6.575208 -4.768487
v -2.548435 6.207740 -4.768487
v -2.324308 6.279718 -4.576095
v -1.783216 6.453487 -4.496404
v -1.242124 6.627257 -4.576095
v -1.017997 6.699235 -4.768487
v -0.835918 3.503749 -4.768487
v -1.820697 6.570197 -4.768487
v -0.655600 6.333701 -4.768487
v 2.147990 13.252192 -4.768487
v -0.879364 6.427113 -4.768487
v 2.068283 13.285467 -4.768487
v -3.135038 5.256703 -4.768487
v -10.845604 5.598094 -4.768487
v -3.148213 5.014582 -4.768487
v -10.850296 5.511848 -4.768487
v -0.136257 6.028922 -4.768487
v 4.515786 10.669543 -4.768487
v -0.305453 6.202613 -4.768487
v 4.455515 10.731414 -4.768487
v -1.688012 3.595805 -4.768487
v -2.631249 -2.625154 -4.768487
v -1.448742 3.556484 -4.768487
v -2.546018 -2.639161 -4.768487
v -3.172431 4.438314 -4.768487
v -10.791552 1.342355 -4.768487
v -3.083286 4.212817 -4.768487
v -10.759796 1.262029 -4.768487
v -2.565942 3.789437 -4.768487
v -7.376678 -1.900201 -4.768487
v -2.382430 3.630946 -4.768487
v -7.311308 -1.956658 -4.768487
v -0.878340 3.621388 -4.768487
v 1.582823 -2.169355 -4.768487
v -0.654020 3.713459 -4.768487
v 1.662729 -2.136558 -4.768487
v 0.059492 4.208897 -4.768487
v 6.222354 1.220568 -4.768487
v 0.167766 4.425860 -4.768487
v 6.260923 1.297853 -4.768487
vt 0.012736 0.914750
vt 0.989812 0.914750
vt 0.012736 0.991825
vt 0.989812 0.991825
vt 0.012736 0.914750
vt 0.989812 0.914750
vt 0.989812 0.991825
vt 0.012736 0.991825
vt 0.012736 0.914750
vt 0.989812 0.914750
vt 0.989812 0.991825
vt 0.012736 0.991825
vt 0.012736 0.914750
vt 0.989812 0.914750
vt 0.989812 0.991825
vt 0.012736 0.991825
vt 0.295020 0.045728
vt 0.344844 0.082825
vt 0.267311 0.176654
vt 0.150806 0.142089
vt 0.465132 0.066696
vt 0.465132 0.155668
vt 0.585419 0.082825
vt 0.662952 0.176654
vt 0.635244 0.045728
vt 0.779457 0.142089
vt 0.191840 0.296324
vt 0.054446 0.286303
vt 0.465132 0.286303
vt 0.738423 0.296324
vt 0.875818 0.286303
vt 0.150806 0.456415
vt 0.020608 0.456415
vt 0.465132 0.456415
vt 0.779457 0.456415
vt 0.909655 0.456415
vt 0.191840 0.616505
vt 0.054446 0.626527
vt 0.465132 0.626527
vt 0.738423 0.616505
vt 0.875818 0.626527
vt 0.267311 0.736175
vt 0.150806 0.770740
vt 0.465132 0.757161
vt 0.662952 0.736175
vt 0.779457 0.770740
vt 0.344844 0.830004
vt 0.295020 0.867101
vt 0.465132 0.846133
vt 0.585419 0.830004
vt 0.635244 0.867101
vt 0.465132 0.011891
vt 0.465132 0.900938
vt 0.012736 0.914750
vt 0.989812 0.914750
vt 0.989812 0.991825
vt 0.012736 0.991825
vt 0.012736 0.914750
vt 0.989812 0.914750
vt 0.989812 0.991825
vt 0.012736 0.991825
vt 0.012736 0.914750
vt 0.989812 0.914750
vt 0.989812 0.991825
vt 0.012736 0.991825
vt 0.012736 0.914750
vt 0.989812 0.914750
vt 0.989812 0.991825
vt 0.012736 0.991825
vt 0.012736 0.914750
vt 0.989812 0.914750
vt 0.989812 0.991825
vt 0.012736 0.991825
vt 0.012736 0.914750
vt 0.989812 0.914750
vt 0.989812 0.991825
vt 0.012736 0.991825
vt 0.012736 0.914750
vt 0.989812 0.914750
vt 0.989812 0.991825
vt 0.012736 0.991825
vt 0.012736 0.914750
vt 0.989812 0.914750
vt 0.989812 0.991825
vt 0.012736 0.991825
vn -0.000001 0.000000 1.000000
vn 0.000007 0.000000 1.000000
vn -0.000001 0.000000 1.000000
vn 0.000007 0.000000 1.000000
vn -0.000000 0.000000 1.000000
vn -0.000000 0.000000 1.000000
vn -0.000000 0.000000 1.000000
vn 0.000000 0.000000 1.000000
vn 0.000000 0.000000 1.000000
vn 0.000000 0.000000 1.000000
vn 0.000000 0.000000 1.000000
vn 0.000000 0.000000 1.000000
vn 0.000000 0.000000 1.000000
vn 0.000000 0.000000 1.000000
vn 0.000000 0.000000 1.000000
vn 0.000000 0.000000 1.000000
vn -0.141477 -0.861749 0.487210
vn -0.141477 -0.861749 0.487209
vn -0.141477 -0.861749 0.487210
vn -0.141477 -0.861749 0.487209
vn 0.056790 -0.556862 0.828661
vn 0.056790 -0.556862 0.828662
vn 0.056789 -0.556861 0.828662
vn 0.056789 -0.556861 0.828662
vn 0.278057 -0.485803 0.828661
vn 0.278059 -0.485802 0.828662
vn 0.278058 -0.485802 0.828662
vn 0.278059 -0.485802 0.828662
vn 0.616770 -0.618240 0.487211
vn 0.616770 -0.618240 0.487210
vn 0.616770 -0.618241 0.487210
vn 0.616770 -0.618241 0.487210
vn -0.379954 -0.629215 0.678029
vn -0.379954 -0.629215 0.678029
vn -0.379954 -0.629215 0.678029
vn -0.379954 -0.629215 0.678029
vn -0.041166 -0.307755 0.950575
vn -0.041166 -0.307755 0.950575
vn -0.041165 -0.307755 0.950575
vn -0.041165 -0.307756 0.950575
vn 0.212656 -0.226241 0.950575
vn 0.212656 -0.226241 0.950575
vn 0.212656 -0.226241 0.950575
vn 0.212656 -0.226241 0.950575
vn 0.675266 -0.290335 0.678028
vn 0.675265 -0.290335 0.678029
vn 0.675265 -0.290335 0.678029
vn 0.675264 -0.290336 0.678030
vn -0.545026 -0.345181 0.764066
vn -0.545026 -0.345181 0.764066
vn -0.545026 -0.345181 0.764066
vn -0.545026 -0.345181 0.764066
vn -0.105227 -0.124795 0.986587
vn -0.105226 -0.124795 0.986587
vn -0.105226 -0.124796 0.986587
vn -0.105225 -0.124796 0.986587
vn 0.158212 -0.040193 0.986587
vn 0.158211 -0.040193 0.986587
vn 0.158212 -0.040193 0.986587
vn 0.158211 -0.040193 0.986587
vn 0.644094 0.036701 0.764066
vn 0.644093 0.036701 0.764066
vn 0.644093 0.036701 0.764066
vn 0.644093 0.036701 0.764067
vn -0.644093 -0.036700 0.764066
vn -0.644094 -0.036701 0.764066
vn -0.644093 -0.036701 0.764066
vn -0.644094 -0.036701 0.764066
vn -0.158211 0.040193 0.986587
vn -0.158211 0.040193 0.986587
vn -0.158211 0.040193 0.986587
vn -0.158211 0.040193 0.986587
vn 0.105226 0.124795 0.986587
vn 0.105226 0.124795 0.986587
vn 0.105226 0.124795 0.986587
vn 0.105226 0.124795 0.986587
vn 0.545026 0.345180 0.764067
vn 0.545026 0.345180 0.764066
vn 0.545026 0.345180 0.764067
vn 0.545026 0.345180 0.764066
vn -0.675265 0.290336 0.678028
vn -0.675265 0.290336 0.678028
vn -0.675265 0.290336 0.678028
vn -0.675265 0.290335 0.678028
vn -0.212656 0.226242 0.950575
vn -0.212656 0.226242 0.950575
vn -0.212656 0.226241 0.950575
vn -0.212656 0.226242 0.950575
vn 0.041166 0.307755 0.950575
vn 0.041166 0.307755 0.950575
vn 0.041165 0.307755 0.950575
vn 0.041165 0.307755 0.950575
vn 0.379954 0.629216 0.678028
vn 0.379954 0.629216 0.678028
vn 0.379954 0.629216 0.678028
vn 0.379954 0.629215 0.678029
vn -0.616770 0.618240 0.487211
vn -0.616770 0.618240 0.487211
vn -0.616770 0.618241 0.487210
vn -0.616770 0.618241 0.487209
vn -0.278058 0.485801 0.828663
vn -0.278058 0.485801 0.828662
vn -0.278058 0.485801 0.828662
vn -0.278057 0.485802 0.828662
vn -0.056789 0.556861 0.828662
vn -0.056790 0.556861 0.828662
vn -0.056790 0.556862 0.828662
vn -0.056791 0.556862 0.828661
vn 0.141477 0.861749 0.487209
vn 0.141477 0.861748 0.487211
vn 0.141477 0.861749 0.487210
vn 0.141477 0.861748 0.487212
vn 0.156082 -0.970940 0.181421
vn 0.156082 -0.970940 0.181421
vn 0.156082 -0.970940 0.181421
vn 0.223568 -0.884222 0.410083
vn 0.223568 -0.884222 0.410083
vn 0.223568 -0.884222 0.410083
vn 0.333067 -0.849057 0.410084
vn 0.333067 -0.849057 0.410084
vn 0.333067 -0.849057 0.410084
vn 0.438427 -0.880268 0.181414
vn 0.438427 -0.880268 0.181414
vn 0.438427 -0.880268 0.181414
vn -0.438425 0.880268 0.181417
vn -0.438425 0.880268 0.181417
vn -0.438425 0.880268 0.181417
vn -0.333069 0.849058 0.410080
vn -0.333069 0.849058 0.410080
vn -0.333069 0.849058 0.410080
vn -0.223568 0.884222 0.410085
vn -0.223568 0.884222 0.410085
vn -0.223568 0.884222 0.410085
vn -0.156083 0.970941 0.181414
vn -0.156083 0.970941 0.181414
vn -0.156083 0.970941 0.181414
vn -0.000003 0.000000 1.000000
vn -0.000000 0.000000 1.000000
vn -0.000003 0.000000 1.000000
vn 0.000000 0.000000 1.000000
vn 0.000000 0.000000 1.000000
vn -0.000001 0.000000 1.000000
vn -0.000000 0.000000 1.000000
vn -0.000001 0.000000 1.000000
vn 0.000001 0.000000 1.000000
vn -0.000006 0.000000 1.000000
vn 0.000001 0.000000 1.000000
vn -0.000007 0.000000 1.000000
vn -0.000001 0.000000 1.000000
vn -0.000000 0.000000 1.000000
vn -0.000001 0.000000 1.000000
vn 0.000000 0.000000 1.000000
vn 0.000000 0.000000 1.000000
vn 0.000003 0.000000 1.000000
vn 0.000000 0.000000 1.000000
vn 0.000003 0.000000 1.000000
vn -0.000001 0.000000 1.000000
vn 0.000006 0.000000 1.000000
vn -0.000001 0.000000 1.000000
vn 0.000006 0.000000 1.000000
vn -0.000002 0.000000 1.000000
vn 0.000006 0.000000 1.000000
vn -0.000002 0.000000 1.000000
vn 0.000007 0.000000 1.000000
vn 0.000000 0.000000 1.000000
vn 0.000000 0.000000 1.000000
vn 0.000000 0.000000 1.000000
vn 0.000000 0.000000 1.000000
g sun
f 1/1/1 2/2/2 3/3/3
f 3/3/3 2/2/2 4/4/4
f 5/5/5 6/6/6 7/8/7
f 7/8/7 6/6/6 8/7/8
f 9/9/9 10/10/10 11/12/11
f 11/12/11 10/10/10 12/11/12
f 13/13/13 14/14/14 15/16/15
f 15/16/15 14/14/14 16/15/16
f 18/18/17 23/19/18 17/17/19
f 17/17/19 23/19/18 22/20/20
f 19/21/21 24/22/22 18/18/23
f 18/18/23 24/22/22 23/19/24
f 19/21/25 20/23/26 24/22/27
f 24/22/27 20/23/26 25/24/28
f 20/23/29 21/25/30 25/24/31
f 25/24/31 21/25/30 26/26/32
f 23/19/33 28/27/34 22/20/35
f 22/20/35 28/27/34 27/28/36
f 24/22/37 29/29/38 23/19/39
f 23/19/39 29/29/38 28/27/40
f 24/22/41 25/24/42 29/29/43
f 29/29/43 25/24/42 30/30/44
f 25/24/45 26/26/46 30/30/47
f 30/30/47 26/26/46 31/31/48
f 28/27/49 33/32/50 27/28/51
f 27/28/51 33/32/50 32/33/52
f 29/29/53 34/34/54 28/27/55
f 28/27/55 34/34/54 33/32/56
f 29/29/57 30/30/58 34/34/59
f 34/34/59 30/30/58 35/35/60
f 30/30/61 31/31/62 35/35/63
f 35/35/63 31/31/62 36/36/64
f 32/33/65 33/32/66 37/38/67
f 37/38/67 33/32/66 38/37/68
f 33/32/69 34/34/70 38/37/71
f 38/37/71 34/34/70 39/39/72
f 35/35/73 40/40/74 34/34/75
f 34/34/75 40/40/74 39/39/76
f 36/36/77 41/41/78 35/35/79
f 35/35/79 41/41/78 40/40/80
f 37/38/81 38/37/82 42/43/83
f 42/43/83 38/37/82 43/42/84
f 38/37/85 39/39/86 43/42/87
f 43/42/87 39/39/86 44/44/88
f 40/40/89 45/45/90 39/39/91
f 39/39/91 45/45/90 44/44/92
f 41/41/93 46/46/94 40/40/95
f 40/40/95 46/46/94 45/45/96
f 42/43/97 43/42/98 47/48/99
f 47/48/99 43/42/98 48/47/100
f 43/42/101 44/44/102 48/47/103
f 48/47/103 44/44/102 49/49/104
f 45/45/105 50/50/106 44/44/107
f 44/44/107 50/50/106 49/49/108
f 46/46/109 51/51/110 45/45/111
f 45/45/111 51/51/110 50/50/112
f 18/18/113 17/17/114 52/52/115
f 19/21/116 18/18/117 52/52/118
f 20/23/119 19/21/120 52/52/121
f 21/25/122 20/23/123 52/52/124
f 47/48/125 48/47/126 53/53/127
f 48/47/128 49/49/129 53/53/130
f 49/49/131 50/50/132 53/53/133
f 50/50/134 51/51/135 53/53/136
f 54/54/137 55/55/138 56/57/139
f 56/57/139 55/55/138 57/56/140
f 58/58/141 59/59/142 60/61/143
f 60/61/143 59/59/142 61/60/144
f 62/62/145 63/63/146 64/65/147
f 64/65/147 63/63/146 65/64/148
f 66/66/149 67/67/150 68/69/151
f 68/69/151 67/67/150 69/68/152
f 70/70/153 71/71/154 72/73/155
f 72/73/155 71/71/154 73/72/156
f 74/74/157 75/75/158 76/77/159
f 76/77/159 75/75/158 77/76/160
f 78/78/161 79/79/162 80/81/163
f 80/81/163 79/79/162 81/80/164
f 82/82/165 83/83/166 84/85/167
f 84/85/167 83/83/166 85/84/168
