# This file uses centimeters as units for non-parametric coordinates.

v -1.500000 -0.500000 -3.000000
v 0.500000 -0.500000 3.000000
v 0.500000 0.500000 3.000000
v -1.500000 -0.500000 -2.000000
v -1.500000 0.500000 -2.000000
v -0.500000 -0.500000 -2.000000
v -0.500000 0.500000 -2.000000
v -0.500000 -0.500000 3.000000
v -0.500000 0.500000 3.000000
v 0.496162 -0.500000 3.000000
v 0.496162 0.500000 3.000000
v 1.500000 -0.500000 -2.000000
v 1.500000 0.500000 -2.000000
v 0.500000 -0.500000 -2.000000
v 0.500000 0.500000 -2.000000
v 1.500000 -0.500000 -3.000000
v 1.500000 0.500000 -3.000000
v -1.500000 0.500000 -3.000000
vt 0.086036 0.966914
vt 0.210487 0.970844
vt 0.210487 0.970844
vt 0.210487 0.970844
vt 0.213868 0.974225
vt 0.213868 0.974225
vt 0.213868 0.970844
vt 0.213868 0.974225
vt 0.213868 0.974225
vt 0.213868 0.970844
vt 0.210487 0.970844
vt 0.213868 0.974225
vt 0.213868 0.974225
vt 0.210487 0.970844
vt 0.213868 0.970844
vt 0.213868 0.970844
vt 0.210487 0.970844
vt 0.213868 0.970844
vt 0.213868 0.970844
vt 0.089416 0.970295
vt 0.086036 0.966914
vt 0.089416 0.966914
vt 0.089416 0.970295
vt 0.086036 0.966914
vt 0.089416 0.966914
vt 0.089416 0.970295
vt 0.089416 0.966914
vt 0.089416 0.970295
vt 0.086036 0.966914
vt 0.089416 0.966914
vt 0.089416 0.970295
vt 0.086036 0.966914
vt 0.089416 0.966914
vt 0.089416 0.970295
vt 0.086036 0.966914
vt 0.089416 0.966914
vt 0.089416 0.970295
vt 0.086036 0.966914
vt 0.089416 0.966914
vt 0.089416 0.970295
vt 0.086036 0.966914
vt 0.089416 0.966914
vt 0.089416 0.970295
vt 0.086036 0.966914
vt 0.089416 0.966914
vt 0.089416 0.970295
vt 0.086036 0.966914
vt 0.089416 0.966914
vt 0.089416 0.970295
vt 0.086036 0.966914
vt 0.089416 0.966914
vt 0.089416 0.970295
vt 0.086036 0.966914
vt 0.089416 0.966914
vt 0.089416 0.970295
vt 0.086036 0.966914
vt 0.089416 0.966914
vt 0.089416 0.970295
vt 0.086036 0.966914
vt 0.089416 0.966914
vt 0.089416 0.970295
vt 0.086036 0.966914
vt 0.089416 0.966914
vt 0.089416 0.970295
vt 0.086036 0.966914
vt 0.089416 0.966914
vt 0.089416 0.970295
vt 0.086036 0.966914
vt 0.089416 0.966914
vt 0.089416 0.970295
vt 0.086036 0.966914
vt 0.089416 0.966914
vt 0.210487 0.970844
vt 0.213868 0.970844
vt 0.213868 0.974225
vt 0.210487 0.970844
vt 0.213868 0.970844
vt 0.213868 0.974225
vt 0.210487 0.970844
vt 0.213868 0.970844
vt 0.213868 0.974225
vt 0.210487 0.970844
vt 0.213868 0.970844
vt 0.213868 0.974225
vt 0.210487 0.970844
vt 0.213868 0.970844
vt 0.213868 0.974225
vt 0.210487 0.970844
vt 0.213868 0.970844
vt 0.213868 0.974225
vt 0.210487 0.970844
vt 0.210487 0.970844
vt 0.213868 0.970844
vt 0.213868 0.974225
vt 0.213868 0.970844
vt 0.213868 0.974225
vn 0.000000 0.000000 1.000000
vn 0.000000 0.000000 1.000000
vn 0.000000 0.000000 1.000000
vn 0.000000 0.000000 1.000000
vn -1.000000 0.000000 0.000000
vn -1.000000 0.000000 0.000000
vn -1.000000 0.000000 0.000000
vn -1.000000 0.000000 0.000000
vn 0.000000 0.000000 1.000000
vn 0.000000 0.000000 1.000000
vn 0.000000 0.000000 1.000000
vn 0.000000 0.000000 1.000000
vn -1.000000 0.000000 0.000000
vn -1.000000 0.000000 0.000000
vn -1.000000 0.000000 0.000000
vn -1.000000 0.000000 0.000000
vn 0.000000 0.000000 1.000000
vn 0.000000 0.000000 1.000000
vn 0.000000 0.000000 1.000000
vn 0.000000 0.000000 1.000000
vn 1.000000 0.000000 0.000000
vn 1.000000 0.000000 0.000000
vn 1.000000 0.000000 0.000000
vn 1.000000 0.000000 0.000000
vn 0.000000 0.000000 1.000000
vn 0.000000 0.000000 1.000000
vn 0.000000 0.000000 1.000000
vn 0.000000 0.000000 1.000000
vn 1.000000 0.000000 0.000000
vn 1.000000 0.000000 0.000000
vn 1.000000 0.000000 0.000000
vn 1.000000 0.000000 0.000000
vn 0.000000 0.000000 -1.000000
vn 0.000000 0.000000 -1.000000
vn 0.000000 0.000000 -1.000000
vn 0.000000 0.000000 -1.000000
vn 0.000000 1.000000 0.000000
vn 0.000000 1.000000 0.000000
vn 0.000000 1.000000 0.000000
vn 0.000000 1.000000 0.000000
vn 0.000000 -1.000000 0.000000
vn 0.000000 -1.000000 0.000000
vn 0.000000 -1.000000 0.000000
vn 0.000000 -1.000000 0.000000
vn 0.000000 1.000000 0.000000
vn 0.000000 1.000000 0.000000
vn 0.000000 1.000000 0.000000
vn 0.000000 1.000000 0.000000
vn 0.000000 1.000000 0.000000
vn 0.000000 1.000000 0.000000
vn 0.000000 1.000000 0.000000
vn 0.000000 1.000000 0.000000
vn 0.000000 1.000000 0.000000
vn 0.000000 1.000000 0.000000
vn 0.000000 1.000000 0.000000
vn 0.000000 -1.000000 0.000000
vn 0.000000 -1.000000 0.000000
vn 0.000000 -1.000000 0.000000
vn 0.000000 -1.000000 0.000000
vn 0.000000 -1.000000 0.000000
vn 0.000000 -1.000000 0.000000
vn 0.000000 -1.000000 0.000000
vn 0.000000 -1.000000 0.000000
vn 0.000000 -1.000000 0.000000
vn 0.000000 -1.000000 0.000000
vn 0.000000 -1.000000 0.000000
g t
f 3/21/1 11/22/2 2/23/3
f 2/24/3 11/25/2 10/26/4
f 1/1/5 4/27/6 18/28/7
f 18/29/7 4/30/6 5/31/8
f 4/32/9 6/33/10 5/34/11
f 5/35/11 6/36/10 7/37/12
f 6/38/13 8/39/14 7/40/15
f 7/41/15 8/42/14 9/43/16
f 8/44/17 10/45/18 9/46/19
f 9/47/19 10/48/18 11/49/20
f 3/50/21 2/51/22 15/52/23
f 15/53/23 2/54/22 14/55/24
f 15/56/25 14/57/26 13/58/27
f 13/59/27 14/60/26 12/61/28
f 13/62/29 12/63/30 17/64/31
f 17/65/31 12/66/30 16/67/32
f 16/68/33 1/69/34 17/70/35
f 17/71/35 1/72/34 18/20/36
f 7/73/37 15/74/38 18/75/39
f 18/76/39 15/77/38 17/78/40
f 6/79/41 1/80/42 14/81/43
f 14/82/43 1/83/42 16/84/44
f 7/85/45 18/18/46 5/5/47
f 3/3/48 15/86/49 11/87/50
f 15/88/49 7/89/51 11/90/50
f 11/11/50 7/7/51 9/9/52
f 17/17/53 15/15/54 13/13/55
f 14/91/56 16/16/57 12/12/58
f 6/92/59 14/93/60 8/94/61
f 2/2/62 10/95/63 14/96/60
f 14/14/60 10/10/63 8/8/61
f 4/4/64 1/19/65 6/6/66
