# This file uses centimeters as units for non-parametric coordinates.

v -1.500000 -0.500000 3.000000
v 0.500000 -0.500000 -3.000000
v 0.500000 0.500000 -3.000000
v 1.500000 -0.500000 3.000000
v 1.500000 0.500000 3.000000
v 1.500000 -0.500000 2.000000
v 1.500000 0.500000 2.000000
v -0.500000 -0.500000 2.000000
v -0.500000 0.500000 2.000000
v 1.500000 -0.500000 -1.000000
v 1.500000 0.500000 -1.000000
v 1.500000 -0.500000 -2.000000
v 1.500000 0.500000 -2.000000
v -1.500000 -0.500000 -3.000000
v -1.500000 0.500000 -3.000000
v -1.500000 -0.500000 -2.000000
v -1.500000 0.500000 -2.000000
v 0.500000 -0.500000 -2.000000
v 0.500000 0.500000 -2.000000
v 0.500000 -0.500000 -1.000000
v 0.500000 0.500000 -1.000000
v -1.500000 -0.500000 2.000000
v -1.500000 0.500000 2.000000
v -1.500000 0.500000 3.000000
vt 0.090475 0.956393
vt 0.224389 0.956393
vt 0.204446 0.956393
vt 0.204446 0.976336
vt 0.224389 0.976336
vt 0.224389 0.976336
vt 0.204446 0.976336
vt 0.224389 0.956393
vt 0.204446 0.956393
vt 0.224389 0.956393
vt 0.204446 0.956393
vt 0.224389 0.956393
vt 0.204446 0.956393
vt 0.204446 0.956393
vt 0.224389 0.956393
vt 0.204446 0.976336
vt 0.224389 0.976336
vt 0.204446 0.956393
vt 0.224389 0.956393
vt 0.204446 0.956393
vt 0.224389 0.956393
vt 0.204446 0.976336
vt 0.224389 0.956393
vt 0.224389 0.976336
vt 0.204446 0.956393
vt 0.110418 0.976336
vt 0.090475 0.956393
vt 0.110418 0.956393
vt 0.110418 0.976336
vt 0.090475 0.976336
vt 0.110418 0.956393
vt 0.110418 0.976336
vt 0.090475 0.976336
vt 0.090475 0.956393
vt 0.110418 0.956393
vt 0.110418 0.976336
vt 0.090475 0.976336
vt 0.090475 0.956393
vt 0.110418 0.956393
vt 0.110418 0.976336
vt 0.090475 0.976336
vt 0.090475 0.956393
vt 0.110418 0.956393
vt 0.110418 0.976336
vt 0.090475 0.976336
vt 0.090475 0.956393
vt 0.110418 0.956393
vt 0.110418 0.976336
vt 0.090475 0.976336
vt 0.090475 0.956393
vt 0.110418 0.956393
vt 0.110418 0.976336
vt 0.090475 0.976336
vt 0.090475 0.956393
vt 0.110418 0.956393
vt 0.110418 0.976336
vt 0.090475 0.976336
vt 0.090475 0.956393
vt 0.110418 0.956393
vt 0.110418 0.976336
vt 0.090475 0.976336
vt 0.090475 0.956393
vt 0.110418 0.956393
vt 0.110418 0.976336
vt 0.090475 0.976336
vt 0.090475 0.956393
vt 0.110418 0.956393
vt 0.110418 0.976336
vt 0.090475 0.976336
vt 0.090475 0.956393
vt 0.110418 0.956393
vt 0.090475 0.976336
vt 0.204446 0.956393
vt 0.224389 0.956393
vt 0.224389 0.976336
vt 0.224389 0.956393
vt 0.224389 0.976336
vt 0.204446 0.976336
vt 0.224389 0.976336
vt 0.204446 0.976336
vt 0.224389 0.976336
vt 0.204446 0.976336
vt 0.204446 0.956393
vt 0.224389 0.956393
vt 0.204446 0.956393
vt 0.224389 0.956393
vt 0.224389 0.976336
vt 0.204446 0.956393
vt 0.224389 0.976336
vt 0.224389 0.976336
vt 0.204446 0.976336
vt 0.224389 0.976336
vn 0.832050 0.000000 0.554700
vn 0.832050 0.000000 0.554700
vn 0.832050 0.000000 0.554700
vn 0.832050 0.000000 0.554700
vn 0.000000 0.000000 1.000000
vn 0.000000 0.000000 1.000000
vn 0.000000 0.000000 1.000000
vn 0.000000 0.000000 1.000000
vn 1.000000 0.000000 0.000000
vn 1.000000 0.000000 0.000000
vn 1.000000 0.000000 0.000000
vn 1.000000 0.000000 0.000000
vn 0.000000 0.000000 -1.000000
vn 0.000000 0.000000 -1.000000
vn 0.000000 0.000000 -1.000000
vn 0.000000 0.000000 -1.000000
vn 1.000000 0.000000 0.000000
vn 1.000000 0.000000 0.000000
vn 1.000000 0.000000 0.000000
vn 1.000000 0.000000 0.000000
vn 0.707107 0.000000 -0.707107
vn 0.707107 0.000000 -0.707107
vn 0.707107 0.000000 -0.707107
vn 0.707107 0.000000 -0.707107
vn -1.000000 0.000000 0.000000
vn -1.000000 0.000000 0.000000
vn -1.000000 0.000000 0.000000
vn -1.000000 0.000000 0.000000
vn 0.000000 0.000000 -1.000000
vn 0.000000 0.000000 -1.000000
vn 0.000000 0.000000 -1.000000
vn 0.000000 0.000000 -1.000000
vn -1.000000 0.000000 0.000000
vn -1.000000 0.000000 0.000000
vn -1.000000 0.000000 0.000000
vn -1.000000 0.000000 0.000000
vn 0.000000 0.000000 1.000000
vn 0.000000 0.000000 1.000000
vn 0.000000 0.000000 1.000000
vn 0.000000 0.000000 1.000000
vn -0.832050 0.000000 -0.554700
vn -0.832050 0.000000 -0.554700
vn -0.832050 0.000000 -0.554700
vn -0.832050 0.000000 -0.554700
vn -1.000000 0.000000 0.000000
vn -1.000000 0.000000 0.000000
vn -1.000000 0.000000 0.000000
vn -1.000000 0.000000 0.000000
vn 0.000000 1.000000 0.000000
vn 0.000000 1.000000 0.000000
vn 0.000000 1.000000 0.000000
vn 0.000000 -1.000000 0.000000
vn 0.000000 -1.000000 0.000000
vn 0.000000 -1.000000 0.000000
vn 0.000000 -1.000000 0.000000
vn 0.000000 1.000000 0.000000
vn 0.000000 1.000000 0.000000
vn 0.000000 1.000000 0.000000
vn 0.000000 1.000000 0.000000
vn 0.000000 1.000000 0.000000
vn 0.000000 1.000000 0.000000
vn 0.000000 1.000000 0.000000
vn 0.000000 1.000000 0.000000
vn 0.000000 1.000000 0.000000
vn 0.000000 -1.000000 0.000000
vn 0.000000 -1.000000 0.000000
vn 0.000000 -1.000000 0.000000
vn 0.000000 -1.000000 0.000000
vn 0.000000 -1.000000 0.000000
vn 0.000000 -1.000000 0.000000
vn 0.000000 -1.000000 0.000000
vn 0.000000 -1.000000 0.000000
g two
f 8/27/1 10/28/2 9/30/3
f 9/30/3 10/28/2 11/29/4
f 1/1/5 4/31/6 24/33/7
f 24/33/7 4/31/6 5/32/8
f 5/34/9 4/35/10 7/37/11
f 7/37/11 4/35/10 6/36/12
f 6/38/13 8/39/14 7/41/15
f 7/41/15 8/39/14 9/40/16
f 11/42/17 10/43/18 13/45/19
f 13/45/19 10/43/18 12/44/20
f 13/46/21 12/47/22 3/49/23
f 3/49/23 12/47/22 2/48/24
f 21/50/25 19/51/26 20/53/27
f 20/53/27 19/51/26 18/52/28
f 2/54/29 14/55/30 3/57/31
f 3/57/31 14/55/30 15/56/32
f 14/58/33 16/59/34 15/61/35
f 15/61/35 16/59/34 17/60/36
f 16/62/37 18/63/38 17/65/39
f 17/65/39 18/63/38 19/64/40
f 20/66/41 22/67/42 21/69/43
f 21/69/43 22/67/42 23/68/44
f 22/70/45 1/71/46 23/72/47
f 23/72/47 1/71/46 24/26/48
f 3/73/49 19/74/50 13/75/51
f 14/14/52 2/76/53 16/16/54
f 16/16/54 2/76/53 18/77/55
f 3/3/49 15/15/56 19/78/50
f 19/78/50 15/15/56 17/17/57
f 13/13/51 19/19/50 11/80/58
f 11/80/58 19/19/50 21/79/59
f 11/11/58 21/21/59 9/82/60
f 9/82/60 21/21/59 23/81/61
f 24/84/62 5/5/63 9/83/60
f 9/83/60 5/5/63 7/7/64
f 9/9/60 23/23/61 24/24/62
f 22/85/65 8/86/66 1/87/67
f 18/88/55 2/2/53 12/89/68
f 18/18/55 12/12/68 20/91/69
f 20/91/69 12/12/68 10/90/70
f 10/10/70 8/92/66 20/20/69
f 20/20/69 8/92/66 22/22/65
f 1/25/67 8/8/66 4/4/71
f 4/4/71 8/8/66 6/6/72
