# This file uses centimeters as units for non-parametric coordinates.

v -1.500000 -0.500000 -3.000000
v 0.500000 -0.500000 3.000000
v 0.500000 0.500000 3.000000
v -1.500000 -0.500000 2.000000
v -1.500000 0.500000 2.000000
v -0.500000 -0.500000 3.000000
v -0.500000 0.500000 3.000000
v 1.500000 -0.500000 2.000000
v 1.500000 0.500000 2.000000
v 1.500000 -0.500000 -3.000000
v 1.500000 0.500000 -3.000000
v -0.500000 -0.500000 2.000000
v -0.500000 0.500000 2.000000
v 0.500000 -0.500000 -3.000000
v 0.500000 0.500000 -3.000000
v 0.500000 -0.500000 2.000000
v 0.500000 0.500000 2.000000
v -0.500000 -0.500000 -3.000000
v -0.500000 0.500000 -3.000000
v -1.500000 0.500000 -3.000000
v -0.524841 0.500000 2.975156
vt 0.088656 0.961674
vt 0.201317 0.962984
vt 0.204697 0.966365
vt 0.201317 0.962984
vt 0.201317 0.962984
vt 0.204697 0.966365
vt 0.201317 0.962984
vt 0.204697 0.966365
vt 0.201317 0.962984
vt 0.201317 0.962984
vt 0.201317 0.962984
vt 0.204697 0.962984
vt 0.204697 0.962984
vt 0.204697 0.966365
vt 0.204697 0.962984
vt 0.204697 0.962984
vt 0.204697 0.962984
vt 0.204697 0.966365
vt 0.204697 0.966365
vt 0.201317 0.962984
vt 0.204697 0.962984
vt 0.088656 0.961674
vt 0.204697 0.966365
vt 0.088656 0.961674
vt 0.092036 0.961674
vt 0.092036 0.965055
vt 0.088656 0.961674
vt 0.092036 0.961674
vt 0.092036 0.965055
vt 0.092036 0.961674
vt 0.092036 0.965055
vt 0.088656 0.961674
vt 0.092036 0.961674
vt 0.092036 0.965055
vt 0.088656 0.961674
vt 0.092036 0.961674
vt 0.092036 0.965055
vt 0.088656 0.961674
vt 0.092036 0.961674
vt 0.092036 0.965055
vt 0.088656 0.961674
vt 0.092036 0.961674
vt 0.092036 0.965055
vt 0.088656 0.961674
vt 0.092036 0.961674
vt 0.092036 0.965055
vt 0.088656 0.961674
vt 0.092036 0.961674
vt 0.092036 0.965055
vt 0.088656 0.961674
vt 0.092036 0.961674
vt 0.092036 0.965055
vt 0.088656 0.961674
vt 0.092036 0.961674
vt 0.092036 0.965055
vt 0.088656 0.961674
vt 0.092036 0.961674
vt 0.092036 0.965055
vt 0.088656 0.961674
vt 0.092036 0.961674
vt 0.092036 0.965055
vt 0.088656 0.961674
vt 0.092036 0.961674
vt 0.092036 0.965055
vt 0.088656 0.961674
vt 0.092036 0.961674
vt 0.092036 0.965055
vt 0.088656 0.961674
vt 0.092036 0.961674
vt 0.092036 0.965055
vt 0.088656 0.961674
vt 0.092036 0.961674
vt 0.092036 0.965055
vt 0.088656 0.961674
vt 0.092036 0.961674
vt 0.092036 0.965055
vt 0.088656 0.961674
vt 0.092036 0.961674
vt 0.092036 0.965055
vt 0.088656 0.961674
vt 0.092036 0.961674
vt 0.092036 0.965055
vt 0.092036 0.961674
vt 0.092036 0.965055
vt 0.201317 0.962984
vt 0.204697 0.962984
vt 0.204697 0.966365
vt 0.201317 0.962984
vt 0.204697 0.962984
vt 0.204697 0.966365
vt 0.204697 0.962984
vt 0.201317 0.962984
vt 0.204697 0.962984
vt 0.204697 0.966365
vt 0.204697 0.962984
vt 0.204697 0.966365
vt 0.201317 0.962984
vt 0.204697 0.962984
vt 0.204697 0.962984
vt 0.204697 0.966365
vt 0.204697 0.962984
vt 0.204697 0.966365
vt 0.201317 0.962984
vt 0.204697 0.966365
vt 0.201317 0.962984
vt 0.204697 0.962984
vt 0.204697 0.966365
vt 0.201317 0.962984
vt 0.204697 0.962984
vt 0.204697 0.966365
vt 0.201317 0.962984
vt 0.204697 0.962984
vt 0.204697 0.966365
vt 0.201317 0.962984
vn 0.000000 0.000000 1.000000
vn 0.000000 0.000000 1.000000
vn 0.000000 0.000000 1.000000
vn 0.000000 0.000000 1.000000
vn -1.000000 0.000000 0.000000
vn -1.000000 0.000000 0.000000
vn -1.000000 0.000000 0.000000
vn -1.000000 0.000000 0.000000
vn -0.707107 0.000000 0.707107
vn -0.707106 0.000001 0.707107
vn -0.707106 0.000001 0.707107
vn -0.707147 0.000000 0.707066
vn -0.707107 0.000002 0.707107
vn 0.707107 0.000000 0.707107
vn 0.707107 0.000000 0.707107
vn 0.707107 0.000000 0.707107
vn 0.707107 0.000000 0.707107
vn 1.000000 0.000000 0.000000
vn 1.000000 0.000000 0.000000
vn 1.000000 0.000000 0.000000
vn 1.000000 0.000000 0.000000
vn 0.000000 0.000000 -1.000000
vn 0.000000 0.000000 -1.000000
vn 0.000000 0.000000 -1.000000
vn 0.000000 0.000000 -1.000000
vn 0.000000 0.000000 -1.000000
vn 0.000000 0.000000 -1.000000
vn 0.000000 0.000000 -1.000000
vn 0.000000 0.000000 -1.000000
vn -1.000000 0.000000 0.000000
vn -1.000000 0.000000 0.000000
vn -1.000000 0.000000 0.000000
vn -1.000000 0.000000 0.000000
vn 1.000000 0.000000 0.000000
vn 1.000000 0.000000 0.000000
vn 1.000000 0.000000 0.000000
vn 1.000000 0.000000 0.000000
vn 0.000000 0.000000 -1.000000
vn 0.000000 0.000000 -1.000000
vn 0.000000 0.000000 -1.000000
vn 0.000000 0.000000 -1.000000
vn 0.000000 1.000000 0.000000
vn 0.000000 1.000000 0.000000
vn 0.000000 1.000000 0.000000
vn 0.000000 -1.000000 0.000000
vn 0.000000 -1.000000 0.000000
vn 0.000000 -1.000000 0.000000
vn 0.000000 -1.000000 0.000000
vn 0.000000 1.000000 0.000000
vn 0.000000 1.000000 0.000000
vn 0.000000 1.000000 0.000000
vn 0.000000 1.000000 0.000000
vn 0.000000 1.000000 0.000000
vn 0.000000 1.000000 0.000000
vn 0.000000 1.000000 0.000000
vn 0.000000 1.000000 0.000000
vn 0.000000 1.000000 0.000000
vn 0.000000 1.000000 0.000000
vn 0.000000 1.000000 0.000000
vn 0.000000 1.000000 0.000000
vn 0.000000 1.000000 0.000000
vn 0.000000 1.000000 0.000000
vn 0.000000 1.000000 0.000000
vn 0.000000 1.000000 0.000000
vn 0.000000 -1.000000 0.000000
vn 0.000000 -1.000000 0.000000
vn 0.000000 -1.000000 0.000000
vn 0.000000 -1.000000 0.000000
vn 0.000000 -1.000000 0.000000
vn 0.000000 -1.000000 0.000000
vn 0.000000 -1.000000 0.000000
vn 0.000000 -1.000000 0.000000
vn 0.000000 -1.000000 0.000000
vn 0.000000 -1.000000 0.000000
vn 0.000000 -1.000000 0.000000
vn 0.000000 -1.000000 0.000000
vn 0.000000 -1.000000 0.000000
vn 0.000000 -1.000000 0.000000
g u
f 3/24/1 7/25/2 2/26/3
f 2/27/3 7/28/2 6/29/4
f 1/1/5 4/30/6 20/31/7
f 20/32/7 4/33/6 5/34/8
f 4/35/9 6/36/10 5/37/11
f 7/38/12 21/39/13 6/40/10
f 6/41/10 21/42/13 5/43/11
f 3/44/14 2/45/15 9/46/16
f 9/47/16 2/48/15 8/49/17
f 9/50/18 8/51/19 11/52/20
f 11/53/20 8/54/19 10/55/21
f 13/56/22 17/57/23 12/58/24
f 12/59/24 17/60/23 16/61/25
f 10/62/26 14/63/27 11/64/28
f 11/65/28 14/66/27 15/67/29
f 14/68/30 16/69/31 15/70/32
f 15/71/32 16/72/31 17/73/33
f 13/74/34 12/75/35 19/76/36
f 19/77/36 12/78/35 18/79/37
f 19/80/38 18/81/39 20/82/40
f 20/22/40 18/83/39 1/84/41
f 21/85/42 13/86/43 5/87/44
f 8/88/45 16/89/46 10/90/47
f 10/10/47 16/91/46 14/14/48
f 3/92/49 17/93/50 7/94/51
f 7/7/51 17/95/50 21/96/52
f 17/97/50 13/98/53 21/23/52
f 5/5/54 13/99/55 20/100/56
f 20/20/56 13/13/55 19/19/57
f 11/11/58 15/101/59 9/102/60
f 9/103/60 15/15/59 17/104/61
f 9/9/62 17/17/63 3/3/64
f 6/105/65 12/106/66 2/107/67
f 2/108/67 12/109/66 16/110/68
f 2/2/69 16/16/70 8/8/71
f 4/111/72 1/112/73 12/113/74
f 12/114/74 1/21/73 18/18/75
f 4/4/76 12/12/77 6/6/78
