# This file uses centimeters as units for non-parametric coordinates.

v -1.500000 -0.500000 -3.000000
v 1.500000 -0.500000 -3.000000
v 1.500000 0.500000 -3.000000
v 0.045609 -0.500000 1.000000
v 0.045609 0.500000 1.000000
v -0.500000 -0.500000 -3.000000
v -0.500000 0.500000 -3.000000
v 0.500000 -0.500000 -3.000000
v 0.500000 0.500000 -3.000000
v 0.500000 -0.500000 3.000000
v 0.500000 0.500000 3.000000
v -0.500000 -0.500000 3.000000
v -0.500000 0.500000 3.000000
v -1.500000 0.500000 -3.000000
vt 0.090726 0.972915
vt 0.205247 0.972154
vt 0.208627 0.972154
vt 0.208627 0.972154
vt 0.208627 0.972154
vt 0.205247 0.972154
vt 0.208627 0.975535
vt 0.208627 0.975535
vt 0.208627 0.975535
vt 0.205247 0.972154
vt 0.205247 0.972154
vt 0.208627 0.975535
vt 0.205247 0.972154
vt 0.205247 0.972154
vt 0.205247 0.972154
vt 0.090726 0.972915
vt 0.087346 0.969534
vt 0.090726 0.969534
vt 0.090726 0.972915
vt 0.087346 0.969534
vt 0.090726 0.969534
vt 0.087346 0.969534
vt 0.090726 0.969534
vt 0.090726 0.972915
vt 0.087346 0.969534
vt 0.090726 0.969534
vt 0.090726 0.972915
vt 0.087346 0.969534
vt 0.090726 0.969534
vt 0.090726 0.972915
vt 0.087346 0.969534
vt 0.090726 0.969534
vt 0.090726 0.972915
vt 0.087346 0.969534
vt 0.090726 0.969534
vt 0.090726 0.972915
vt 0.087346 0.969534
vt 0.090726 0.969534
vt 0.090726 0.972915
vt 0.087346 0.969534
vt 0.090726 0.969534
vt 0.090726 0.972915
vt 0.087346 0.969534
vt 0.090726 0.969534
vt 0.090726 0.972915
vt 0.087346 0.969534
vt 0.090726 0.969534
vt 0.090726 0.972915
vt 0.087346 0.969534
vt 0.090726 0.969534
vt 0.090726 0.972915
vt 0.087346 0.969534
vt 0.090726 0.969534
vt 0.090726 0.972915
vt 0.087346 0.969534
vt 0.090726 0.969534
vt 0.205247 0.972154
vt 0.208627 0.972154
vt 0.208627 0.975535
vt 0.205247 0.972154
vt 0.208627 0.972154
vt 0.208627 0.975535
vt 0.208627 0.972154
vt 0.208627 0.975535
vt 0.205247 0.972154
vt 0.208627 0.972154
vt 0.208627 0.975535
vt 0.208627 0.972154
vt 0.208627 0.975535
vt 0.208627 0.972154
vt 0.208627 0.972154
vt 0.208627 0.975535
vn 0.000000 0.000000 -1.000000
vn 0.000000 0.000000 -1.000000
vn 0.000000 0.000000 -1.000000
vn 0.000000 0.000000 -1.000000
vn 0.990825 0.000000 -0.135151
vn 0.990825 0.000000 -0.135151
vn 0.990825 0.000000 -0.135151
vn 0.990825 0.000000 -0.135151
vn -0.993610 0.000000 -0.112872
vn -0.993610 0.000000 -0.112872
vn -0.993610 0.000000 -0.112872
vn -0.993610 0.000000 -0.112872
vn 0.000000 0.000000 -1.000000
vn 0.000000 0.000000 -1.000000
vn 0.000000 0.000000 -1.000000
vn 0.000000 0.000000 -1.000000
vn 0.986394 0.000000 0.164399
vn 0.986394 0.000000 0.164399
vn 0.986394 0.000000 0.164399
vn 0.986394 0.000000 0.164399
vn 0.000000 0.000000 1.000000
vn 0.000000 0.000000 1.000000
vn 0.000000 0.000000 1.000000
vn 0.000000 0.000000 1.000000
vn -0.986394 0.000000 0.164399
vn -0.986394 0.000000 0.164399
vn -0.986394 0.000000 0.164399
vn -0.986394 0.000000 0.164399
vn 0.000000 1.000000 0.000000
vn 0.000000 1.000000 0.000000
vn 0.000000 1.000000 0.000000
vn 0.000000 -1.000000 0.000000
vn 0.000000 -1.000000 0.000000
vn 0.000000 -1.000000 0.000000
vn 0.000000 1.000000 0.000000
vn 0.000000 1.000000 0.000000
vn 0.000000 1.000000 0.000000
vn 0.000000 1.000000 0.000000
vn 0.000000 1.000000 0.000000
vn 0.000000 1.000000 0.000000
vn 0.000000 1.000000 0.000000
vn 0.000000 1.000000 0.000000
vn 0.000000 -1.000000 0.000000
vn 0.000000 -1.000000 0.000000
vn 0.000000 -1.000000 0.000000
vn 0.000000 -1.000000 0.000000
vn 0.000000 -1.000000 0.000000
vn 0.000000 -1.000000 0.000000
vn 0.000000 -1.000000 0.000000
vn 0.000000 -1.000000 0.000000
g v
f 7/17/1 6/18/2 14/19/3
f 14/20/3 6/21/2 1/1/4
f 7/22/5 5/23/6 6/24/7
f 6/25/7 5/26/6 4/27/8
f 5/28/9 9/29/10 4/30/11
f 4/31/11 9/32/10 8/33/12
f 9/34/13 3/35/14 8/36/15
f 8/37/15 3/38/14 2/39/16
f 2/40/17 3/41/18 10/42/19
f 10/43/19 3/44/18 11/45/20
f 10/46/21 11/47/22 12/48/23
f 12/49/23 11/50/22 13/51/24
f 12/52/25 13/53/26 1/54/27
f 1/55/27 13/56/26 14/16/28
f 5/57/29 13/58/30 11/59/31
f 12/60/32 4/61/33 10/62/34
f 11/11/35 3/63/36 5/64/37
f 5/65/37 3/3/36 9/9/38
f 13/13/39 5/66/40 14/67/41
f 14/14/41 5/5/40 7/7/42
f 6/6/43 4/68/44 1/69/45
f 1/15/45 4/70/44 12/12/46
f 10/10/47 4/71/48 2/72/49
f 2/2/49 4/4/48 8/8/50
