# This file uses centimeters as units for non-parametric coordinates.

v -1.500000 -0.500000 -3.000000
v 1.500000 -0.500000 -3.000000
v 1.500000 0.500000 -3.000000
v 0.500000 -0.500000 3.000000
v 0.500000 0.500000 3.000000
v -1.500000 -0.500000 0.000000
v -1.500000 0.500000 0.000000
v 0.500000 -0.500000 0.000000
v 0.500000 0.500000 0.000000
v 1.500000 -0.500000 3.000000
v 1.500000 0.500000 3.000000
v 0.500000 -0.500000 -3.000000
v 0.500000 0.500000 -3.000000
v 0.500000 -0.500000 -1.000000
v 0.500000 0.500000 -1.000000
v -0.500000 -0.500000 -3.000000
v -0.500000 0.500000 -3.000000
v -0.500000 -0.500000 -1.000000
v -0.500000 0.500000 -1.000000
v -1.500000 0.500000 -3.000000
v -1.500000 -0.500000 -0.061242
vt 0.091276 0.965604
vt 0.211247 0.962984
vt 0.211247 0.962984
vt 0.211247 0.966365
vt 0.211247 0.962984
vt 0.207867 0.962984
vt 0.211247 0.966365
vt 0.207867 0.962984
vt 0.207867 0.962984
vt 0.211247 0.966365
vt 0.211247 0.966365
vt 0.211247 0.966365
vt 0.211247 0.966365
vt 0.207867 0.962984
vt 0.207867 0.962984
vt 0.211247 0.966365
vt 0.211247 0.966365
vt 0.207867 0.962984
vt 0.211247 0.962984
vt 0.207867 0.962984
vt 0.211247 0.962984
vt 0.091276 0.965604
vt 0.091276 0.965604
vt 0.207867 0.962984
vt 0.091276 0.965604
vt 0.094656 0.965604
vt 0.094656 0.968985
vt 0.091276 0.965604
vt 0.094656 0.965604
vt 0.094656 0.968985
vt 0.094656 0.965604
vt 0.094656 0.968985
vt 0.091276 0.965604
vt 0.094656 0.965604
vt 0.094656 0.968985
vt 0.094656 0.965604
vt 0.094656 0.968985
vt 0.091276 0.965604
vt 0.094656 0.965604
vt 0.094656 0.968985
vt 0.091276 0.965604
vt 0.094656 0.965604
vt 0.094656 0.968985
vt 0.091276 0.965604
vt 0.094656 0.965604
vt 0.094656 0.968985
vt 0.091276 0.965604
vt 0.094656 0.965604
vt 0.094656 0.968985
vt 0.091276 0.965604
vt 0.094656 0.965604
vt 0.094656 0.968985
vt 0.091276 0.965604
vt 0.094656 0.965604
vt 0.094656 0.968985
vt 0.091276 0.965604
vt 0.094656 0.965604
vt 0.094656 0.968985
vt 0.091276 0.965604
vt 0.094656 0.965604
vt 0.094656 0.968985
vt 0.091276 0.965604
vt 0.094656 0.965604
vt 0.094656 0.968985
vt 0.091276 0.965604
vt 0.094656 0.965604
vt 0.094656 0.968985
vt 0.091276 0.965604
vt 0.094656 0.965604
vt 0.094656 0.968985
vt 0.091276 0.965604
vt 0.094656 0.965604
vt 0.094656 0.968985
vt 0.091276 0.965604
vt 0.094656 0.965604
vt 0.094656 0.968985
vt 0.091276 0.965604
vt 0.094656 0.965604
vt 0.094656 0.968985
vt 0.091276 0.965604
vt 0.094656 0.965604
vt 0.094656 0.968985
vt 0.094656 0.965604
vt 0.094656 0.968985
vt 0.207867 0.962984
vt 0.211247 0.962984
vt 0.211247 0.966365
vt 0.211247 0.962984
vt 0.207867 0.962984
vt 0.211247 0.962984
vt 0.207867 0.962984
vt 0.211247 0.962984
vt 0.211247 0.966365
vt 0.207867 0.962984
vt 0.211247 0.962984
vt 0.211247 0.966365
vt 0.207867 0.962984
vt 0.211247 0.962984
vt 0.211247 0.966365
vt 0.207867 0.962984
vt 0.207867 0.962984
vt 0.211247 0.962984
vt 0.211247 0.966365
vt 0.207867 0.962984
vt 0.211247 0.962984
vt 0.211247 0.966365
vt 0.211247 0.962984
vt 0.211247 0.966365
vt 0.211247 0.962984
vt 0.211247 0.966365
vt 0.207867 0.962984
vt 0.211247 0.962984
vt 0.211247 0.962984
vt 0.211247 0.966365
vn -1.000000 0.000000 0.000000
vn -1.000000 0.000000 0.000000
vn -1.000000 0.000000 0.000000
vn -1.000000 0.000000 0.000000
vn -1.000000 0.000000 0.000000
vn -1.000000 0.000000 0.000000
vn -1.000000 0.000000 0.000000
vn -1.000000 0.000000 0.000000
vn -1.000000 0.000000 0.000000
vn 0.000000 0.000000 1.000000
vn 0.000000 0.000000 1.000000
vn 0.000000 0.000000 1.000000
vn 0.000000 0.000000 1.000000
vn 0.000000 0.000000 1.000000
vn 0.000000 0.000000 1.000000
vn 0.000000 0.000000 1.000000
vn 0.000000 0.000000 1.000000
vn 1.000000 0.000000 0.000000
vn 1.000000 0.000000 0.000000
vn 1.000000 0.000000 0.000000
vn 1.000000 0.000000 0.000000
vn 0.000000 0.000000 -1.000000
vn 0.000000 0.000000 -1.000000
vn 0.000000 0.000000 -1.000000
vn 0.000000 0.000000 -1.000000
vn -1.000000 0.000000 0.000000
vn -1.000000 0.000000 0.000000
vn -1.000000 0.000000 0.000000
vn -1.000000 0.000000 0.000000
vn 1.000000 0.000000 0.000000
vn 1.000000 0.000000 0.000000
vn 1.000000 0.000000 0.000000
vn 1.000000 0.000000 0.000000
vn 0.000000 0.000000 -1.000000
vn 0.000000 0.000000 -1.000000
vn 0.000000 0.000000 -1.000000
vn 0.000000 0.000000 -1.000000
vn 0.000000 0.000000 -1.000000
vn 0.000000 0.000000 -1.000000
vn 0.000000 0.000000 -1.000000
vn 0.000000 0.000000 -1.000000
vn 0.000000 1.000000 0.000000
vn 0.000000 1.000000 0.000000
vn 0.000000 1.000000 0.000000
vn 0.000000 1.000000 0.000000
vn 0.000000 -1.000000 0.000000
vn 0.000000 -1.000000 0.000000
vn 0.000000 -1.000000 0.000000
vn 0.000000 1.000000 0.000000
vn 0.000000 1.000000 0.000000
vn 0.000000 1.000000 0.000000
vn 0.000000 1.000000 0.000000
vn 0.000000 1.000000 0.000000
vn 0.000000 1.000000 0.000000
vn 0.000000 1.000000 0.000000
vn 0.000000 1.000000 0.000000
vn 0.000000 1.000000 0.000000
vn 0.000000 1.000000 0.000000
vn 0.000000 1.000000 0.000000
vn 0.000000 1.000000 0.000000
vn 0.000000 1.000000 0.000000
vn 0.000000 1.000000 0.000000
vn 0.000000 -1.000000 0.000000
vn 0.000000 -1.000000 0.000000
vn 0.000000 -1.000000 0.000000
vn 0.000000 -1.000000 0.000000
vn 0.000000 -1.000000 0.000000
vn 0.000000 -1.000000 0.000000
vn 0.000000 -1.000000 0.000000
vn 0.000000 -1.000000 0.000000
vn 0.000000 -1.000000 0.000000
vn 0.000000 -1.000000 0.000000
vn 0.000000 -1.000000 0.000000
vn 0.000000 -1.000000 0.000000
vn 0.000000 -1.000000 0.000000
vn 0.000000 -1.000000 0.000000
vn 0.000000 -1.000000 0.000000
vn 0.000000 -1.000000 0.000000
g y
f 5/25/1 9/26/2 4/27/3
f 4/28/3 9/29/2 8/30/4
f 1/1/5 21/31/6 20/32/7
f 6/33/8 7/34/9 21/35/6
f 21/23/6 7/36/9 20/37/7
f 6/38/10 8/39/11 7/40/12
f 7/41/12 8/42/11 9/43/13
f 5/44/14 4/45/15 11/46/16
f 11/47/16 4/48/15 10/49/17
f 11/50/18 10/51/19 3/52/20
f 3/53/20 10/54/19 2/55/21
f 3/56/22 2/57/23 13/58/24
f 13/59/24 2/60/23 12/61/25
f 13/62/26 12/63/27 15/64/28
f 15/65/28 12/66/27 14/67/29
f 17/68/30 19/69/31 16/70/32
f 16/71/32 19/72/31 18/73/33
f 14/74/34 18/75/35 15/76/36
f 15/77/36 18/78/35 19/79/37
f 17/80/38 16/81/39 20/82/40
f 20/22/40 16/83/39 1/84/41
f 7/85/42 19/86/43 20/87/44
f 20/20/44 19/88/43 17/17/45
f 2/89/46 14/90/47 12/12/48
f 11/91/49 3/92/50 9/93/51
f 9/94/51 3/95/50 15/96/52
f 15/97/53 3/3/54 13/13/55
f 15/15/56 19/98/57 9/99/58
f 9/100/58 19/19/57 7/7/59
f 9/9/60 5/5/61 11/11/62
f 21/101/63 1/102/64 18/103/65
f 18/104/65 1/21/64 16/16/66
f 6/6/67 21/105/68 8/106/69
f 21/24/68 18/107/70 8/108/69
f 18/18/70 14/109/71 8/110/69
f 8/111/72 10/112/73 4/4/74
f 14/14/75 2/113/76 8/114/77
f 8/8/77 2/2/76 10/10/78
